<?xml version="1.0" encoding="UTF-8"?>
<svg xmlns="http://www.w3.org/2000/svg" viewBox="0 0 511 606" width="100%" height="100%">
    <defs>
        <style>
            /* 1. Hide all groups with a class of 'pattern' by default */
            .pattern {
            display: none;
            }

            /* 2. ONLY show the group whose ID matches the #hash in the URL */
            .pattern:target {
            display: inline;
            }
        </style>
    </defs>
        <g id="monsoon" class="pattern" viewBox="0 0 373.52 461">
            <path d="M159.1,71.21l29.13-3.21c3.86,3.4-13.15,18.7-17.13,20.33-10.61,4.35-17.73-5.21-24.97,3.98,11.95,4.59,29.85,8.71,32.37,24.27-16.44,1.56-31.49-1.9-44.33-12.52-11.64-1.87-31.46,43.43-26.93,54.65l31.51-22.24c8.18-1.46,14.72,5.9,13.98,13.98-3.74,20.84-25.07,4.78-31.92,8.85-12.75,14.55-1.73,31.69,15.53,35.07-2.81-9.42,24.83-34.15,29.19-29.15,3.64,17.06-9.51,23.24-19.36,34.01l14.05,7.57c7.8-6.19,13.74-13.18,24.78-12.46l-3.02-36.9c-.84-3.02-7.82-1.85-11.48-5.18-3.96-3.59-16.23-31.58-.6-25.44,10.1,3.97,8.07,16.47,18.29,15.68l6.77-24.09c-31.8-6.53-12.87-42.07,7.97-24.52,8.57,7.22-8.95,30.7,3.09,25.91,12.78-5.09,4.51-17.56,5.46-26.65.49-4.68,9.62-28.96,15.66-20.19,5.99,11.88,2.37,22.7-3.25,33.88,12.27.14,25.2,3.63,28.06-11.32-26.42-30.11,23.38-35.98,20.79-12.99-.82,7.27-7.73,7.49-11.34,11.63-7.4,8.48-5.06,19.04,5.9,15.65,5.62-1.74,16.09-34.62,34.34-28.84l-19.42,35.58c18.73,6.69,44.34,11.58,45.34,35.68-24.46,1.4-29.35-9.09-42.08-25.91l-.05,35.66-9.48-.18-7.04-44.87c-16.63-5.6-38.81-4.1-53.86,5.33-3.31,2.08-5.69-.15-4.1,7.24,12.86,9.76,42.56.03,35.3,23.8-4.84,15.86-32.08,7.6-26.12-13.47-22.67-11.46-28.01,6.3-31.89,25.34l42.03,6.67.07,9.49c-15.28,5.35-24.41,1.28-38.85-3.15-3.4,17.45,15.02,20.41,24.25,31.87,4.59-6.71,26.83-14.7,29.26-18.87,2.9-4.97.56-11.94,2.25-17.2,2.07-6.48,12.47-9.94,12.33-18.5,13.44,3.22,1.99,27.53,3.17,29.1,19.79,7.99,27.09-4.17,24.01-22.73,13.56-11.15,29.45-3.91,24.07,14.01-3.75,12.49-22.49,5.27-18.86,13.59,7.55,17.32,30.37-19.92,48.62-9.71,6.14,3.43-9.33,16.97-11.2,18.05-14.39,8.32-33.84-1.7-.14,22.69,7.35-.02,9.73-13.49,18.73-17.31,13.11-5.57,24.74,17.41,12.01,25.37-6.22,3.89-35.51-8.68-32.4,6.28,1.82,8.73,38.83.42,45.32,16.3,2.71,6.64-4.45,4.56-8.04,4.83-11.59.87-21.02.21-30.78-6.5-3.43,14.1,4.58,30.76,3.17,43.43-1.4,12.68-11.48,28.51-17.92,8.58-5.18-16.03,2.37-21.58,4.96-35.81-10.18,8.32-17.88,15.38-32.36,12.94,2.63-20.85,16.37-25.4,32.13-34.27-3.64-18.22-15.12-41.44-35.37-43.47-3.34,11.28,6.54,20.42,5.87,30.07-.73,10.62-14.76,16.13-22.24,7.36-15.37-18.02,11.13-23.26,9.63-32.13-4.03-5.82-13.07-15.01-20.28-14.32-31.27,2.97,1.13,28.14-5.42,47.88-17.02,1.06-23.06-18.31-22.7-32.39-18.4,3.91-8.59,24.92-12.59,38.52,9.77.08,22.24,13.93,28.64,15.21,4.17.83,26.38-18.35,39.01-.26l-25.78,12.94,14.95,17.62c5.41.9,8.28-7.77,13.18-9.05,20.78-5.41,24.09,32.76-.24,28.02-2.56-.5-20.74-21.86-18.29-7.38,2.35,13.89,35.09,16.82,35.68,37.22-18.72,4.49-24.21-11.43-38.85-16.18l-1.88,26.14,24.07,3.47c5.8,10.92,5.93,22.54-8.38,24.87-23.21,3.78-5.64-26.15-28.36-25.32-10.85,7.37,2.7,14.86,5.56,23.54,1.39,4.23,7.82,25.48-2.33,25.03-10.2-8.98-16.16-21.98-14.64-35.6-6.82-7.88-23.72,36.05-24.47,41.97-1.3,10.19,5.52,18.53,4.92,27.52-.55,8.25-9.33,15.67-9.64,24.45-7.84,5.98-12.95-18.81-12.69-24.07.68-13.45,17.58-31.3,15.95-47.21-1.06-1.16-31.4,10.38-29.2-1.67,1.04-4.95,9.18-14.47,13.08-16.1,10.05-4.19,27.84,3.77,25.87-8.15-12.07,1.16-27.36-6.07-29.17-19.44,14.4-.59,33.47-1.68,40.51,13.01,12.81-.24,33.75-41.73,27.51-55.14-16.13-.34-17.16,20.56-28.23,21.96-18.67,2.36-22.4-20.75-8.29-24.72,9.39-2.64,18.02,6.05,25.42-.14,12.51-10.46-.33-28.91-13.07-32.76-4.5,6.36-20.86,30.75-29.23,29.16-19.27-3.65,17.63-34.74,14.5-38.85-7.36-9.68-25.85,6.9-35.27,6.8l.15,36.4c15.55,10.47,21.63,12.83,18.92,34.53l-25.87-16.19-6.47,20.92c9.34,6.69,23,9.05,17.96,24.47-5.24,4.84-14.68,9.06-21.26,4.97-2.25-2.23-4.27-5.17-5.17-8.2-2.31-7.84,7.18-19.82-2.87-19.45-11.39,14.69,2.72,36.32-16.25,48.51-11.77-5.84.19-37.11-1.64-38.8-6.86-1.09-23.66,1.07-25.74,8.54-1.64,5.9,4.47,9.3,5.56,13.39,6.47,24.32-27.58,26.29-25.52,2.34.66-7.62,18.52-8.95,13.3-24.26l-12.45.53c-2.52,15.67-14.08,26.44-29.64,28.6-3.44-18.69,12.11-21.49,19.41-33.97-8.45-10.19-23.99-8.28-34.11-14.53-37.74-23.31,17.74-35.67,20.86-1.99l10.02,1.87-3.27-32.37c-26.43,13.33-37.84-19.62-8.36-22.38l1.9-10.01c-13.9-2.9-20.02,11.23-32.3,14.71-18.55,5.26-20.81-7.31-6.77-16.54,7.22-4.74,22.27-3.43,19.61-9.49-.38-.87-10.88-14.57-11.8-14.78-14.74-3.35-11.68,7.84-15.75,13.07-6.47,8.3-25.7,2.79-23.81-10.52,3.71-26.25,37.01,5.88,35.16-21.82-17.91,3.09-29.62-3.91-45.34-9.79-.9-8.67.03-5.18,4.86-6.39,15.7-3.94,22.31.67,37.24,3.18-2.4-14.66-13.86-50.68,4.92-58.28,6-2.43,11.06,18.17,11.19,21.35.49,11.58-10.79,15.95-9.59,27.23,9.46-6.41,15.94-17.32,29.14-16.23,1.55-9.83-11.57-7.33-12.48-18.38-.53-6.4,9.97-14.58,16.59-13.59,7.01,1.05,10.91,10.19,18.55,9.3.5-19.41-29.55-15.77-32.41-37.17,1.36-7.56,15.24-1,18.5.88,9.61,5.56,7.84,13.73,17.12,13.62l3.62-27.22-22.54-2.4c-9.51-18.12,1.19-31.09,20.31-22.57l5.17,23.03c29.98.63-10.37-34.4,4.82-51.77,10.15,9.02,16.13,21.93,14.6,35.56,6.57,7.69,24.06-29.3,25.12-34.77,4.06-20.95-9.94-38.9,8.89-55.89,22.85,21.01-5.99,46.3-4.84,71.21ZM110.48,187.87c-1.78-16.82-17.18-28.07-27.09-9.77-2.72,5.02.28,10.62-6.79,19.67-8.11,10.38-18.02,10.25-27.24,17.56,4.41,10.88,6.8,21.15,14.38,30.63,6.74,8.44,27.6,28.08,24.21,4.97-1.39-9.45-9.57-15.23-6.21-25.23,11.81-19.73,34.49.06,24.07,14.3-3.15,4.3-17.71-1.21-10.97,17.01,4.5,12.17,27.53,9.59,35.11.48-4.81-5.15-18.65-39.88-8.14-40.36,13.85,6.61,19.64,16.93,17.86,32.34l12.45-5.37.56-31.85c-9.05.21-22.99-13.08-28.18-13.97-5.24-.9-14.3,7.55-22.08,7.59-24.75.15-12.73-21.55,8.07-18ZM169.74,208.3c-23.27,18.71,3.59,64.58,34.45,42.51,28.43-20.33-7.33-64.31-34.45-42.51ZM142.89,278.65c4.98-.56,9.53-3.34,14.66-3.43,6.61-.12,26.85,9.25,27.36,1.82.64-9.29-19.14-23.04-27.49-26.77-5.13,7.14-22.12,13.2-25.7,18.82-5.1,7.99-4.38,25.59-16.43,32.21l-7.82-5.27,2.99-23.86-22.2,3.68c-5.4,19.54,2.96,16.19,9.3,23.66,10.2,12.03,5.21,25.99,6.79,40.35,13.19,5.41,50.97,6.29,57.96-7.8,4.98-10.04-27.21-5.8-30.99-11.07-14.31-19.96,29.68-38.8,24.53-.24l22.26-.41,6.87-23.83c-.84-5.78-43.57-.8-42.08-17.85Z"/>
            <path d="M197.19,221.14c10.25,11.82-6.62,29.19-17.84,17.79-12.81-13.02,7.38-29.85,17.84-17.79Z"/>
        </g>
        <g id="fall" class="pattern" viewBox="0 0 465.98 544.35">
            <path d="M126.62,195.17c6.39,1.16,7.81-3.01,9.19-8.34,3.24-12.47,3.16-34.74-6.41-44.22-5.81-5.76-24.06-10.81-3.92-17.98,12.24-4.36,19.73-2.92,25.01,9.52,7.61,17.94-1.77,23.2-1.55,36.5.1,5.85,2.83,9.31,6.03,3.1,1.31-2.54,5.73-15.45,6.55-18.69,3.03-11.92,1.93-34.03-6.82-43.35-4.27-4.55-18.76-9.07-3.25-15.79,13.54-5.86,29.73-2.06,31.32,14.36.5,5.11.38,14.43-.23,19.54-.83,7-7.62,14.2-3.35,19.06,15.97-14.19,20.48-49.8,1.41-63.08-3.16-2.2-8.85-3.23-10.18-4.53-7.92-7.72,12.69-18.84,23.57-11.67,16.36,10.78,8.55,24.91,11.17,39.3.35,1.94,3.22,6.62,4.89,3.57,4.53-16.06,8.34-35.09-5.64-47.68-3.3-2.97-21.7-9.03-14.05-15.44,1.37-1.15,13.23-2.62,15.51-2.56,9.01.26,19.29,14.57,26.59,19.44,3.58-.01,14.52-19.02,28.1-19.74,3.41-.18,12.38,1.12,14.02,4.25,4.18,7.98-7.08,8.5-11.28,11.22-9.7,6.29-15.06,24.78-13.23,35.7l7.62,16.17c4.56-3.61.49-8.71.67-13.24.4-9.95,2.47-26.47,12.15-31.44,6.88-3.53,19.83-1.88,24.23,4.93,5.2,8.06-4.82,7.96-9.05,10.25-17.11,9.27-16.33,32.8-10.84,48.83,1.74,5.09,5.86,13.37,11.6,14.32-4.61-12.15-10.83-49.08,6.61-52.98,6.32-1.41,22.76-.94,26.02,5.68,3.55,7.21-3.85,7.16-7.29,10.25-11.66,10.47-11.22,35.58-7.6,49.47.84,3.24,7.36,21.42,11.7,17.03.24-8.64-3.89-15.39-4.26-24.46-.31-7.77,1.81-25.89,10.86-28.52,7.16-2.08,19.88-.83,24.37,5.99,4.19,6.38-4.89,7.4-7.64,9.34-13.45,9.47-14.45,28.68-11.49,43.35.71,3.54,5.37,17.5,10.57,13.93,4.67-3.21-9.12-36.6,11.05-48.55,8.46-5.02,13.09-3.3,21.11,1.71,17.45,10.9-2.21,10.65-10.03,17.39-5.31,4.58-9.28,14.66-9.33,21.61-.02,1.91,2.68,23.77,6.85,19.07.64-18.1,6.05-41.96,29.49-35.79,4.38,1.15,18.06,12.1,10.22,14.51-4.54,1.39-8.03-.14-13,3.82-5.59,4.45-12.11,19.72-12.54,26.79-.18,3.01,1.08,19.19,5.3,12.24,3.66-6.03,2.53-13.15,8.59-19.45,13.7-14.23,35.7-11.15,43.46,6.97-5.28,5.73-11.94-1.17-18.26-.12-4.28.71-12.39,5.35-15.38,8.57-7.28,7.83-17.66,38.34-10.47,46.9,9.88,11.75,8.89-14.12,10.65-15.17,12.56,2.22,11.57-5.89,17.99-12.15,9.66-9.42,21.4-10.66,34.47-9.13,16.67,1.95-9.65,17.21-12.65,19.74-17.28,14.6-40.15,53.35-35.76,76.33.37,1.93,2.53,5.49,4.85,4.94,2.93-.69,5.02-17.81,6.25-21.8,4.62-15,10.4-30.33,21.07-42.02,5.63-6.17,13.38-14.32,22.47-13.29,2.06,4.53-3.36,11.48-2.62,14.43,1.19,4.74,20.54,11.76,11.5,22.11-9.97-1.01-14.52-3.29-23.36,2.96-4.29,3.03-21.78,25.15-17.77,29.21,9.26.22,12.64-3.16,21.23,1.91,8.64,5.09,10.97,13.84,8.99,23.41-3.65,17.59-10.47,2.7-16.31-.66-12.11-6.97-33.08,10.12-40.43,19.7,2.99,10.03,13.24-.77,19.13-1.98,14.49-2.98,33.67,1.76,30.88,19.68-3.52,22.66-11.94,4.73-17.95,1.81-6.19-3.01-22.06-2.93-28.75-.86-4.32,1.34-17.04,8.41-10.95,12.56,4.09,2.79,13.24-1.29,20.21.79,4.64,1.39,13.27,9.13,13.93,14.2.7,5.42-7.02,19.46-11.95,20.24-9.48,1.49-4.42-7.85-7.79-13.21-5.63-8.95-30.44-8.65-30.71,4.76,8.85-1.1,22.52,4.65,22.52,14.73,0,6.81-14.74,21.44-22.51,18.93-1.71-1.65,5.1-15.44-8.79-19.96-5.6-1.82-32.97-2.66-27.4,7.1,24.77,8.04,23.67,40.07-4.27,39.3-3.17-6.74,2.36-12.77-1.76-19.98-2.77-4.85-14.7-10.06-20.17-10.67-18.34-2.06-35.5,3.69-53.53-3.95-6.86-2.9-12.81-10.1-20.08-7.25,6.02,18.59,25.42,26.73,44.09,23.75,3.91-.62,18.85-12.47,17.56,2.08-.96,10.93-17.3,17.05-27.15,16.06-11.41-1.14-16.04-8.51-26.08-9.65-4.77,4.61,16.3,19.14,20.69,20.65,6.72,2.31,20.8-.11,22.51,5.56,3.81,12.61-22.58,9.77-29.69,5.82-3.26-1.81-4.9-7.07-9.33-4.77-4.62,2.4-2.26,12.03-2.92,16.77-.97,6.97-10.6,26.47-18.73,16.16-.48-.61-6.94-13.14-7.13-13.89-1.44-5.5,1.26-16.6-3.45-19.04-4.67-2.42-6.57,3.65-9.93,5.56-6.87,3.91-35.96,4.7-28.65-7.62,2.32-3.92,17.02-2.3,23.16-4.88,1.61-.68,12.64-7.39,13.97-8.46,3.19-2.59,5.74-7.75,5.65-11.86-11.55,3.42-20.87,11.78-34.26,9.72-7.81-1.2-23.24-13.59-17.52-21.48,4.23-5.83,10.29,1.89,16.14,3.23,17.16,3.94,40.14-4.75,42.65-23.72-11.42.55-19.46,9.56-31.7,11.05-16.04,1.96-50.12-5.39-60.08,10.03-4.36,6.74,1.27,23.39-7.79,21.84-16.98-2.9-22.26-25-8.29-35.13,2.97-2.15,13.34-4.85,9.6-10.49-2.72-4.1-26.76-2.87-32.5.2-8.69,4.64,1.37,21.83-9.03,18.23-23.02-7.95-22.23-35.69,5.22-33.98,1.37-10.33-15.86-12.48-23.22-9.87-12.32,4.36-6.81,9.29-10.01,16.59-3.71,8.46-16.22-8.53-17.01-13.38-1.39-8.58,7.51-19.01,15.84-20,5.29-.63,20.57,4.1,18.98-3.41-5.92-11.94-28.25-13.38-39.12-8.34-5.41,2.51-7.79,8.36-13.43,9.07-4.5-.41-7.71-12.58-6.84-16.59,2.96-13.65,18.48-16.04,30.3-14.02,5.09.87,8.21,4.61,12.9,5.34,14.29,2.2.88-11.22-3.57-14.66-13.76-10.66-26.98-15.42-38.72.43-13.37-4.55-9.28-21.74-.42-29.99,8.4-7.81,13.81-2.77,23.84-3.51,3.85-3.98-13.88-26.9-18.32-30.06-10.98-7.81-10.29-2.14-18.89-2.1-6.12.02-6.08-6.65-4.12-11.28,1.56-3.68,9.29-6.17,10.27-9.43,1.67-5.53-4.39-10.46-1.03-15.68,5.02-3.15,18.75,9.32,22.33,13.09,15.37,16.23,20.05,43.68,26.53,64.6l2.88-.12c6.26-9.18-.8-32.8-4.97-42.66-7.27-17.19-19.74-32.74-34.41-44.11-2.97-2.3-13.7-5.54-12.43-11.15,1.2-5.27,24.23-4.33,28.94-2.56,8.53,3.21,16.55,17.61,20.01,19.25,3.04,1.45,7.63-.35,9.97,2.64l2.79,14.72,6.93-.51c5.29-3.43.1-28.47-2.17-34.38-6.07-15.77-21.37-27.71-37.79-18.25-8.22-6.93,8.2-18.02,14.29-19.3,13.28-2.79,26.21,6.74,31.28,18.55.42.99,3.47,17.11,6.95,13.37,4.51-13.18-2.65-41.11-16.78-45.6-2.66-.85-7.94-.11-9.26-1.96-2.4-10.33,14.34-15.13,22.57-14.15,17.82,2.11,17.37,35.09,21,35.05,7.48-11.55,5.56-30.59-5.01-39.83-4.02-3.51-18.37-5.56-16.62-11.17,1.05-3.39,18.27-11.35,22.71-10.42,6.07,1.27,16.45,12.76,16.45,18.69v31.55ZM231.24,88.7c-5.66,3.3-4.58,10.22-7.28,15.24-6.95,12.89-24.78,37.82-34.28,49.85-22.31,28.24-57.09,46.68-79.07,75.16-33.71,43.68-51.96,113.07-28.14,165.31,21.13,46.34,86.84,69.92,133.59,50.91,9.04-3.68,11.63-10.95,23.09-5.7,30.75,14.09,57.21,17.68,89.91,3.73,100.4-42.84,68.91-179.11,2.27-238.92-8.35-7.49-18.26-13.57-26.68-20.99-25.05-22.08-47.22-51.44-64.26-80.16-2.86-4.83-2.34-12.72-9.16-14.42Z"/>
            <path d="M235.62,2.05c1.62,1.61,4.27,9.62,6.24,12.68,2.65,4.11,11.32,12.49,11.01,15.63-.44,4.56-9.01,8.15-11.91,12.07-3.14,4.24-3.42,13.23-9.86,12.63-4.71-.44-4.71-9.1-7.95-13.21-2.78-3.51-11.94-7.3-11.94-11.43,0-1.63,11.18-14.67,13.3-18.46,1.99-3.57,3.94-17.03,11.11-9.91Z"/>
            <path d="M227.91,109.99c4.69-4.86,10.93,2.57,11.95,7.69,1.27,6.32-1.31,10-1.15,15.06.13,3.96,3.08,7.5,2.84,11.17-.4,6.22-7.86,8.42-2,17.56,19.2,29.94,61.9,42.87,88.98,66.64,57.8,50.74,76.55,141.6,10.46,194.17-23.19,18.45-66.34,24.42-92.26,9.6-3.93-2.25-12.04-10.82-14.34-11.04-3.96-.38-10.69,8.52-15.31,11.33-19.52,11.9-57.48,9.22-77.42-1.18-34.59-18.06-58.95-61.31-56.34-100.33,2.67-39.97,24.96-77.91,54.48-103.95,24.66-21.74,71.11-36.88,87.02-64.4,4.74-8.2-1.65-14.06-1.45-19.57.11-3.05,2.73-6.28,2.84-10,.19-6.02-4.01-16.86,1.67-22.75ZM229.89,170.08c-2.56.84-4.06,7.11-5.91,9.59-18.72,25.01-41.79,41.79-39.94,76.56,2.13,40.04,26.65,52.25,41.01,83.77,1.68,3.68,1.39,11.89,6.04,12.31,6.71.6,6.92-8.76,9.26-13.25,15.15-29.03,36.79-44.88,40.32-80.26,1.34-13.45-2.36-24.97-7.31-37.21l-37.33-49.59c-1.47-1.97-3.84-2.67-6.14-1.92ZM112.61,287.71c7.77,1.09,12.91-6.92,19.28-9.45,6.18-2.46,20.77-2.58,27.55-1.64,7.19.99,21.07,13.82,18.44-.18-2.95-15.72-10.52-30.37-3.87-47.19,2.02-5.1,9.39-10.52,5.94-15.2-5.25-3.57-17.56,7.8-20.32,12.03-2.65,4.07-2.53,9.8-7.23,12.4-5.29,2.93-12.65.29-17.49,4.93-6.31,8.2,8.25,11.79,5.11,17.68-1.64,3.07-9.34,3.52-12.98,5.3-7.41,3.63-16.67,12.19-14.43,21.32ZM352.35,287.71c2.44-8.81-7.41-17.76-14.44-21.32-5.92-3.01-16.54-.75-13.4-10.01,1.12-3.32,10.56-3.93,5.5-11.54-3.64-5.48-12.95-3.93-18.22-7.02-6.74-3.94-7.47-19.97-21.1-23.8-14.96-4.2-.63,13.02.71,17.55,3.51,11.9.76,27.76-2.5,39.64-1.13,4.12-5.45,6.86-3.84,12.27,7.13.54,12.36-5.35,19.25-6.68,7.46-1.44,20.56-1.38,27.8.99,7.77,2.54,11.57,11.38,20.24,9.91ZM203.57,348.17c1.35.87,2.65,12.58,3.65,15.27,4.36,11.73,8.91,15.14,10.51,30.15.39,3.68-1.45,18.14,2.15,18.9,4.28-.77,5.88-5.32,6.32-9.07,4.71-40.2-24.44-109.81-69.61-114.12-20.3-1.94-39.73,3.56-52.36,20.19-16.69,21.96-11.98,66,19.59,69.36,3.04-8.52-9.38-12.59-10.93-17.81-2.44-8.24-.76-21.26,8.18-24.88,8.39-3.4,17.89,6.56,21.03,13.9,7.32,17.08,6.07,34.13,17.85,50.85,10.35,14.68,38.35,38.73,53.45,17.62,1.19-3.26-3.01-4.49-3.78-7.01-2.33-7.6,1.6-13.71-4.71-23.33-10.53-16.05-27.97-2.77-22.98,4.74,2.3,3.45,14.61-4.74,16.2,4.92,2.51,15.24-22.65,16.14-28.74,2.03-6.16-14.28,4.39-18.18,4.72-30.68-5.03-1.58-18.87-6.1-19.52-12.15-.63-5.91,6.14-4.92,7.8-7.61,4.57-7.41-4.43-8.61-7.81-11.88-9.58-9.25-10.6-15.58-24.78-21.49-2.82-1.17-12.17-1.84-11.65-5.24,1.2-7.79,16.74-7.42,22.12-5.23,4,1.62,6.01,7.9,10.84,7.45,4.64-.43,4.88-11.33,12.36-9.72,8.98,2.31-7.61,18.56.93,24.42,8.67,5.96,11.4-18.73,19.08-12.15,4.96,4.25-.17,10.21-.67,14.98-.55,5.24-.79,28,8.29,23.75,2.66-1.24,6.93-9.75,12.47-6.17ZM341.15,378.84c31.55-2.68,35.2-49.4,18.8-69.98-17.97-22.56-52.63-26.31-76.21-10.54-27.24,18.22-55.18,77.85-44.04,109.76.69,1.99.97,2.91,2.77,4.25,7.08,5.3,3.03-8.03,3.23-11.75.99-18.82,11.66-34.01,15.42-51.98l5.31-1.07c11.7,16.93,16.43.21,15.87-12.9-.18-4.31-6.12-21.49,1.84-20.15,4.92,2.09,6.65,11.47,10.77,13.26,7.41,3.22,7.73-4.54,6.86-9.79-.56-3.37-6.74-13.31-1.83-14.69,8.7-2.46,8.96,9.34,13.87,9.81,5.11.5,7.17-6.28,10.51-7.79,4.21-1.9,23.51-1.42,22.35,5.44-.6,3.52-13.05,5.47-16.76,7.16-10.43,4.74-12.47,12.49-19.58,19.67-2.55,2.58-11.83,5.52-9.26,10.45,1.41,2.72,9.25,4.76,9.24,9.13-.01,7.6-19.8,9.85-20.9,14.3-1.12,4.52,7.74,9.93,8.14,18.15,1.06,21.84-28.51,26.44-30.77,12.35-2.56-15.96,10.26-6.42,14.54-7.77,7.11-2.24-1.75-19.01-15.95-11.81-11.47,5.81-8.35,17.26-9.86,26.59-1.16,7.19-9.47,8.48,2.41,15.95,13.76,8.66,37.05-10.63,45.33-21.49,13.51-17.7,13.2-49.04,25.18-61.75,14.28-15.15,30.45,2.95,23.2,18.99-3.23,7.15-12.44,9.24-10.52,18.21ZM127.63,390.37c-13.14,3.01-.97,17.82,4.59,22.84,6.95,6.27,28.47,17.83,37.56,18.64,1.74.16,4.12-.02,4.51-1.85.57-2.62-34.09-32.34-37.07-38.61-2.66-1.97-6.45-1.74-9.59-1.02ZM290.67,430.71c4.6,4.5,33.98-10.65,39.14-14.83,5.9-4.79,20.95-21.56,7.53-25.52-11.68-3.45-18.49,11.39-24.93,17.94-3.44,3.5-6.88,7.23-10.51,10.52-4.17,3.77-11.93,5.42-11.23,11.89Z"/>
            <path d="M227.97,283.07c-6.57-5.6-10.62-21.17-10.2-29.69.28-5.65,6.72-26.75,10.48-30.17,3.64-3.32,7.59-.63,9.72,2.92,8.32,13.87,11.67,33.88,3.84,48.5-2.72,5.09-7.62,13.77-13.85,8.45Z"/>
            <path d="M231.41,303.42c22.66-2.15,7.25,29.91-7.4,15.2-6.38-6.41.01-14.5,7.4-15.2Z"/>
            <path d="M229.98,188.4c12.76-3.74,20.68,20.96-.2,17.94-12.69-1.84-7.54-15.66.2-17.94Z"/>
            <path d="M204.71,276.74c9.42-2.9,19.16,8.54,12.41,15.25-10.18,10.13-25.16-11.33-12.41-15.25Z"/>
            <path d="M210.25,213.82c17.77-1.02,3.65,28.02-7.14,16.32-6.35-6.88-1.05-15.85,7.14-16.32Z"/>
            <path d="M259.39,243.1c12.32-3.78,18.15,13.77,5.04,19.18-10.47,1.06-13.95-16.44-5.04-19.18Z"/>
            <path d="M197.7,243.1c7.66-2.35,16.16,5.54,11.71,13.14-10.25,17.51-25.06-9.04-11.71-13.14Z"/>
            <path d="M262.28,278.23c12.9,12.88-26.45,28.48-13.33.04,2.54-2.38,10.89-2.47,13.33-.04Z"/>
            <path d="M260.81,216.63c15.37,12.4-19.63,25.8-13.51.38,2.41-3.67,10.56-2.76,13.51-.38Z"/>
        </g>
        <g id="winter" class="pattern" viewBox="0 0 243.32 369.29">
            <path d="M126.42,119.82l21.27-35.54,7.84-6.56-6.43,35.63c24.56-15.55,32.39,20.71,11.22,19.18-4.45-.32-7.59-5.66-11.44-4.86-13.56,2.82-20.83,28.32-19.22,40.75,5.73-2.53,5.83-10.64,11.16-16.34,12.61-13.48,30.65-12.94,44.16-1.12-16.27,29.1-18.06,70.95-58.22,76.17l-.34,32.05c20.3-30.99,55.43-51.56,68.07-87.48,6.2-5.81,12.91,16.16,13.15,21.1.72,15.2-10.64,39.3-22.86,48.64l-.03,4.73c6.33.86,13.88,5.34,12.93,13.01-24.54-6.38-66.18,1.03-68,32.42,24.15-31.57,48.65-18.03,79.15-22.89,9.3-1.48,23.11-11.14,13.17-19.18l-9.73,6.54-7.82-5.46,6.25-43.25c9.42-2.04,6.27,9.04,11.42,16.07,10.66,14.52,21.73,14.15,21.19,37.39-.88,37.81-44.12,68.69-80.37,54.16-7.7-3.09-17.97-15.32-23.65-12.27s-15.25,20.82-3.13,19.72c2.85-9.31,6.86-9.1,16.14-8.15,4.07,25.38-22.77,33.44-30.77,55.02-7.17-23.43-34.76-29.25-30.77-55.02l12.64.43,6.76,9.27c-2.38-45.05-20.72-9.35-37.43-6.66-27.17,4.37-56.72-10.7-66.9-36.43-13.57-34.31-1.4-34.34,15.11-57.47,5.05-7.07,2.07-18.09,11.43-16.09,4.57,9.19.21,20.08,1.03,27,.68,5.73,14.55,17.48-2.61,21.73l-14.57-6.58c11.45,39.92,71.63,1.44,97.17,38.87-.41-29.99-46.25-37.53-67.99-25.92-2.43-12.73,4.13-14.77,12.87-21.06-20.47-16.58-32.17-54.13-9.7-72.91,1.87,16.3,14.13,27.56,22.82,40.4l45.25,47.07c7.87-36.37-17-27.51-32.37-46.99-13.96-17.69-9.42-41.49-29.12-55.07,15.22-14.27,37.2-16.95,50.03,1.75,4.98,7.26,4.57,18.48,11.44,22.53,1.21-13.34-10.35-49.31-24.71-51.56-4.69-.73-7.66,8.04-14.15,4.83-14.57-7.2-4.91-27.69,12.98-21.32l-3.24-32.37,8.04,6.38,21.07,32.47c6.03-26.43-16.92-27.61-16.41-53.44.17-8.88,15.73-63.1,21.3-63.13,10.86,20.77,27.36,55.38,20.41,78.67-2.8,9.38-23.97,20.69-15.51,41.14Z"/>
        </g>
        <g id="spring" class="pattern" viewBox="0 0 254.82 463.31">
            <path d="M190.02,0c9.45,12.03,21.07,25.54,14.61,42.17l-17.85,6.4c16.86-17.95,12.72-30.7-12.96-22.68l6.46-12.91-22.42.28-.59,12.27-19.1,10.08c8.79.46,29.64-8.76,29.17,6.5-22.23.05-36.2,7.26-35.77,30.74.33,18.27,11.23,2.84,12.39-3.96,1.14-6.69-5.96-12.11,2.4-17.07,12.14,12.05,17.63-.83,22.52,0l5.07,11.33c-12.34,3.15-3.43,8.27-4.07,13.1-1.2,9.03-14.5.78-19.73,2.01-8.18,1.94-26.88,23.46-2.2,20.62-.45,19.5-20.36,24.89-15.8,43.32l12.25,5.66.47,22.03c-19.71,5.29-16.58,17.61,3.03,11.62-9.11,9.82-17.28,25.43-15.34,39.22,1.33,9.45,8.79,11.84,8.36,16.83-.28,3.23-10.27,20.83-9.22,21.66l16.18-3.2c1.04,9.37-11.58,13.13-14.49,19.48-7.33,16,6.53,37.2,8.05,53.39,1.25,13.34-2.3,24.45-3.23,37.29,19.86-9.23,11.38-30.79,12.96-48.61l6.51,9.7c12.9,8.96,9.46-41.29-13.04-32.4-2.36-12.53,12.09-7.76,3.89-21.78l4.3-7.37,17.75,6.47c3.97-15.45-5.42-20.18-9.67-32.39,17.57,9.74,16.64-2.83,25.74-11.49,6-5.71,14.74-6.58,16.39-16.19,2.28-13.23-4.42-17.82-12.98-25.83l12.92-1.59c1.89-23.25-6.76-15.59-15.99-21.13-1.18-.71-18.69-17.88-19.72-19.26-9.7-12.89-4.87-37.86,13.08-37.41l-3.26-16.14c15.75,5.57,16.58,5.62,32.37-.01l3.28,29.15-12.49.44-3.77,12.53c-7.2,5.29-17.76-30.64-28.66-2.23.91,6.05,21.65,25.53,25.44,21.66-1.02-7.06-6.12-11.25,1.71-16.2,14.05,12.02,17.42-.77,30.71,3.27-3.53,10.74.39,15.99,3.21,25.89h-16.18s-3.25,19.44-3.25,19.44c5.5,4.46,22.84-19.05,22.65-4.87l-22.64,24.33,25.94-11.29c-10.57,15.59-28.25,30.89-43.88,40.38-13.47,12.45-16.11,45.27-1.59,56.81l-16,5-.13,19.29c4.77,5.62,52.28-42.15,35.68-53.63-2.24-1.55-35.9,6.76-6.53-11.24,1.44-1.96-12.05-8.8-3.28-14.55l19.5,3.53c8.49-6.71,9.14-22.6,21.01-24.6,13.18-2.22-4.1,13.76-5.61,17.08-2.29,5.05-3,9.87-2.44,15.36,10.87,1.48,9.09-19.2,22.65-11.34-8.9,7.34-13.82,15.52-13.07,27.43l-19.15.32c1.42,17.61-14.03,29.92-20.89,41.84-1.23,2.15,1.62,7.36-.19,9.79-4.33,5.81-33.13,12.31-34.18,29.16l48.39-24.23c-13.96-17.22-.29-21.28,14.58-11.42l22.92-29.11c3.94,10.84-8.05,15.7-8.41,27.65-.32,10.58,7.19,14.46,6.76,24.17l-16.16-3.23-.03,12.99-11.16.17-6.63-13.09c-23.19,11.36-94.04,51.51-85.68,82.27.42,1.54,4.3,6.59,6.27,3.55l14.63-27.55,6.39,19.38c10.54-3.8,7.86-25.6,11.44-29.12,10.36-10.2,2.45,15.48,3.21,16.17,16.65,3.91,10.34-23.45,24.3-32.37v19.46s16.21-19.45,16.21-19.45l3.18,12.91,29.27-19.37,4.77,4.77-19.4,16.26,9.69,8.04-29.13,3.3,9.69,12.9-42.1,3.3c-2.2,14.08,24.08-1.42,22.65,16.17l-42.09.03c-2.63,13.49,19.53.14,22.66,12.91-10.13,2.7-21.03,6.44-30.83.16-8.25,4.92,2.85,13.2-6.44,19.31l-11.3-9.71c.93,14.1-13.12,19.1-24.42,22.6l-11.24-11.21,19.56-9.65c4.57-3.12,1.81-6.13-1.59-8.37-12.13-8.01-29.27,5.65-43.9-3.14-3.03-14.73,22.49,1.87,19.41-12.9-4.82-3.67-38.3,6.65-42.11-6.46,7.44-.99,19.32-1.57,22.68-9.72-11.91-2.33-37.8,7.15-38.89-9.74l9.71-6.48-29.14-3.31,8.04-3.14c6.86-6.76-3.13-6.57-6.35-9.69-3.73-3.61-19.33-16.25-6.61-16.25l29.18,19.46,1.69-13.01,14.57,16.19,3.18-12.92c13.21,7.78,6.08,32.12,24.34,29.11,2.16-1.82-10.43-19.35,3.24-16.19-1.19,11.54,2.18,27.94,16.2,29.16l1.59-16.16,11.43,25.89c4.63,4.67,5.92-.41,6.49-4.85,5.12-39.68-54.11-66.95-82.71-82.56l-6.63,13.09-11.16-.17-.03-13-19.41,3.23c4.34-11.44,11.87-16.3,8.53-30.29-2.37-9.93-12.85-12.74-10.19-21.52,13.71,5.53,15.26,17.9,24.3,27.8l11.86-4.75,7.61,4.54-6.42,12.91,3.19,3.22,45.39,19.42c0-14.66-32.98-25.47-34.3-27.31-1.34-1.87,2.14-7.35,1.24-10.8-2.55-9.8-25.31-26.37-20.36-41.27l-17.77-.09-13.1-29.02,16.18,11.36,6.51-3.36c4.42-9.74-22.36-26.07-8.15-27.45l21.11,24.51,11.35-5.19c14.1,2.65.15,17.85,14.51,24.4-5.42,8.48-11.65,2.67-19.36,1.63-2.03,14.8,2.58,24.45,11.24,35.71,2.59,3.36,24.48,26.12,27.6,22.59l.04-22.68h-16.24c-3.98-10.88,7.51-9.8,8.59-14.4,1.06-4.53,1.41-29.91-.55-34.14-5.39-11.7-45.59-39.34-56.57-50.28,8.49-10.77,19.05,10.4,29.1,8.07-1.26-3.01-36.39-36-15.8-27.87,8.31,3.28,8.53,16.9,15.8,6.78-3.09-10.78-3.12-19.77-16.26-16.02l-3.1-3.55,4.72-24.17c5.72-8.01,10.18,3.24,15.73,2.84,4.74-.34,8.9-7.68,15.09-6.02l1.58,16.14c10.74-6.34,31.09-20.38,15.86-31.95l-10.92-.43.04,11.02-8.14,1.96c-5.49-15.57-8.75-10.57-21.02-17.81,10.7-5.89,2.71-14.48,3.62-19.17,2.38-12.28,15.32.41,18.02.85,4.97.8,10.6-11.12,15.62-2.76,2.95,4.92-3.09,10.21-1.45,12.55,4.3,6.15,19.75,5.51,16.03,27.81-1.21,7.24-27.93,38.52-38.94,30.94l.03,19.46c24.38-6.12,4.43,7.07,1.45,15.99-7.57,22.62,3.84,18.8,16.37,29.36,7.47,6.3,5.85,18.55,21.02,9.72,3.85,4.34-18.81,25.73-4.75,32.43l17.72-6.49c-7.15,19.7,6.97,14.61,6.52,29.13-20.38-5.78-23.11,16.02-22.69,32.4l16.15-9.7c4.11,5.68-8.81,47.56,12.98,48.59-1.26-13.83-4.65-26.22-3.23-40.53,1.31-13.24,10.97-28.94,9.7-41.81s-13.01-15.86-16.2-26.17l12.98,1.57c2.24-7.82-6.6-14.86-6.36-21.06.17-4.31,5.36-8.1,6.23-13.1,3.32-19.16-2.74-27.38-12.85-41.94l12.96,1.59.23-11.12c-24.47-6.62-1.05-11.79-13.19-26.06l5.17-4.63,7.81,2.95c5.6-20.69-11.93-28.56-12.99-46.97l12.98-6.48c-10.62-13.46-19.15-16.42-35.61-11.41,7.05-9.85-4.77-17.51-3.26-24.22,2.06-9.14,19.11,5.2,27.49-4.94l4.96,4.96c-8.05,10.76-5.11,17.4,6.42,24.22,4.67-24.15-7.11-33.75-22.65-48.58l22.67,9.67-9.67-25.91,14.08,9.45L154.38,0h35.65Z"/>
            <path d="M171.23,217.77c-1.94,1.62-.55,10.06-5.51,12.25-7.17-2.08-7.46-15.52-8.13-16.18-1.29-1.28-15.95,8.65-16.18-4.8l9.41-5.37c2.01-2.96-5.93-14.07,2-15.72,7.93-1.65,14.11,11.6,19.45,3.28l3.17-16.17c10.19,7.72,5.48,19.02,6.49,27.48.55,4.62,9.14,8.49,1.66,13.05-3.4,2.08-10.12.31-12.36,2.18Z"/>
            <path d="M105.75,187.95c-4.61,15.56,9.47,15.37,6.48,29.15l-13.11-1.89c-1.93,13.31-13.64,19.63-12.98,2.25l-16.01-.36c-2.36-6.19,5.03-11.18,5.27-14.67.43-6.4-9.01-16.53,6.07-27.43l6.55,19.45,17.73-6.5Z"/>
        </g>
        <g id="summer" class="pattern" viewBox="0 0 301.96 463.99">
            <path d="M13.54,282.38c-1.56-5.34-6.68-12.63-6.3-17.93.35-4.88,6.38-8.18,5.77-12.23-.49-3.27-7.51-7.05-5.96-13.52,2.79-11.59,27.38-2.14,9.73,14.48l24.27,6.55c4.07-10.84,10.67-33.45-6.54-35.84-7.88-1.1-4.88,12.2-14.46,9.86-2.74-8.86-5.28-16.9.77-25.12,9.78-6.37,24.35-5.62,31.28,4.43,4.23,6.15.27,16.62,10.03,14.21-.79-10.62,3.42-37.5-6.33-43.85-13.81-8.99-30.16,42.19-32.56,1.76l13.01-.03c-7.96-13.86,5.86-30.44,19.31-24.41,8.21,3.68,6.51,16.28,16.3,14.71,11.79-58.4-16.04-17.88-27.07-19.84l-7.65-7.62,2.33-8.19,16.18,3.23c-4.92-31.22,32.17-26.2,34.03,0,16.79-14.39,16.25-57.16-9.72-29.16l-3.21-6.46c-7.07,8.32-20.41,11.7-19.53-3.29l9.15-5.95,7.13,5.94c9.94-33.74,47.2-25.15,43.17,7.33-.36,2.88-11.47,23.07-1.1,18.62,8.28-3.55,26.06-31.04,26.12-40.46.12-17.72-19.03-24.31-26.08-4.95l-4.89-12.91-13.05,5.11c-13.84-4.96-11.27-13.95,1.3-17.81l11.72,9.47c3.09-13.56,17.33-23.34,30.33-15.63,6.22,3.69,2.94,11.28,11.84,9.12-6.52-15.65-3.69-37.23,15.31-41.45,33.91-7.53,24.78,32.2,13.92,25.25l-10.95-9.34c-9.28,4.32-15.42,24.11-7.79,31.3,7.37,6.94,23.35-1.33,25.37,18.49,3.23,31.74-24.82,29.93-22.85,38.88,2.98,13.56,36.69,12.74,22.66-14.48,24.87-5.81,17.21,23.3,19.55,25.79,1.07,1.14,18.38-1.25,27.2,13.29,6.26,10.31-3.04,16.75,18.06,14.17l3.28,9.83-11.03,5.17-6.82-9.87c-9.22,6.82-16.01,13.53-27.55,6.42l-4.94,22.65c-6.84,3.07-4.96-16.43-21.09-8.16-19.93,10.22,1.64,50.64,14.67,60.02-2.92-14.88,12.43-34.87,28.72-31.74,5.59,1.07,7.41,10.97,14.98,9.07-.3-6.98,7.28-19.65.21-24.49-15.47-8.04-12.64,11.42-26.1,8.3-2.16-16.4,3.23-35.08,22.76-31.17,39.51,7.9,7.17,57.73,9.65,60.32,34.51-15.35,44.04,30.01,16.21,42.15-6.27-44.92-33.14,2.04-25.94,25.9,9.86.38,8.65-10.79,18.23-15.76,7.72-4.01,15.64-5.71,23.9-2.05,16.03,10.12,7.99,30.75-8.08,34.09-10.93,2.27,2.51-10.1-4.8-14.72-14.8-9.35-25.36,15.76-29.23,26.04,11.21,3.13,17.53-7.01,30.57-4.92,16.06,2.57,16.53,28.01.11,32.37-12.07,3.21,6.5-17.22-9.75-19.57-11.9-1.72-16.78,7.57-24.18,14.81l19.43,12.88,6.06,10.51c1.35,9.29-9.76,18.54-19.03,17.05l1.86-19.62c-5.12-4.66-12.26-4.31-18.05-1.25-.77.41-12.31,12.06-9.75,14.37,24.67,0,21.82,36.6-3.22,32.43-1.81-1.59,16.85-22.9-5.08-26-19.96-2.83-42.1,39.94-11.15,29.28,2.29,11.27-5.73,13.04-15.22,15.54-18.36-6.63-13.49-20.49-7.46-34.98-7.79-3.22-27.76,8.36-29.13,14.61-2.11,9.61,15.83,4.9,12.91,12.87l-14.38,8.3c-23.64-3.44-2.16-33.07-5.05-35.78-7.12-6.68-21.36,9.48-22.73,17.77-1.62,9.79,14.38,2.08,13,6.5-3.81,6.35-10.3,16.85-19.31,13.12-22.26-9.21,2.07-38.65-.12-40.63-11.1-1.08-27.93,5.4-29.21-9.73l-6.4,19.42,19.4-3.21c5.41,22.59-32.57,26.76-35.71,4.66-1.19-8.36,3.07-14.08,6.56-20.84-45.03,4.91-59.24-64.75-6.5-48.65,3.08-3.11-16.5-34.44-27.46-32.4-8.9,1.65,3.96,39.65-16.24,35.62l-4.51-5.09c8.79-16.33-12.52-28.65,3.84-42.51,11.84-10.03,22.26,6.09,34.65,5.48-7.41-15.14-4.88-41.17-25.89-42.09v16.21c-3.19.31-6.6-.41-9.74-.02,2.83,9.67,5.71,11.45-4.86,19.38-12.39-11.16-12.16-17.27,4.86-19.38ZM165.13,109.91c6.92-6.69,11.66-31.02-6.94-24.82-7.08,2.36-10.36,22.51-18.21,27.16-.27,7.3,22.81-.09,25.15-2.35ZM156.1,126.87c-8.29-2.09-20.99-8.16-25.9,3.17l25.9-3.17ZM143.18,159.29c18.63-3.22,7.6-21.54-6.49-19.48,7.08,22.27,4.38,38.72-22.68,35.61,19.94-39.55-27.8-27.6-35.61-1.54-3.2,10.66,14.19-.65,18.31-.89,20.01-1.13,16.03,26.99,17.35,28.31.66.66,12.39-.03,18.56,2.5,29.51,12.13-.93,44.91-2.43,31.35,2.44-37.57-36.55-5.71-24.34,18.13,3.63,7.09,25.46,7.86,21.1,25.83-37.35-9.03-32.48,33.7-11.32,51.8l19.44-25.8c7.91,10.33,2.9,18.3,11.35,30.71,36.49,53.58,86.12-33.16,48.76-42.45-15.61,3.39-7.83,24.5-11.5,37.75-1.59,5.74-.98,7.54-8.07,6.34.09-21.17-23.76-29.92-19.47-51.86-15.53,7.44-32.58-12.41-17.72-16.2,7.15-1.82,13.91,10.39,20.94,4.87-7.73-13.32-52.17-24.04-16.23-29.39,1.72,4.32,21.62,29.21,25.95,24.5-.08-14.51-13.69-24.43-22.65-34.05,19.41-28.22,15.14,38.33,45.34,27.57-6.17-15.45-23.33-28.6-27.62-45.26-4.59-17.81-2.56-44.15,17.77-50.54,14.17-4.45,18.42,4,24.37,3.84,2.38-.07,19.07-8.06,17.89-13.3-3.01-13.33-42.15-17.18-53.44-14.64-4.61.55,1.5,11.55,1.46,14.87-.14,11.57-29.94,17.75-28.99,1.41ZM94.56,198.13c-18.93-7.06-25.29,12.56-22.33,28.82,11,1.5,19.98,3.44,19.12,16.52,5.3-1.47,3.33-12.14,5.66-18.59,3.22-8.91,18.43-17.84-5.68-10.57l3.23-16.18ZM227.4,236.98l-11.39,3.2c-4.06,14.96-4.3,36.02,14.62,38.94l6.48-29.16-8.19.3-1.52-13.28ZM75.12,272.67c.89-41.18-32-8.31-21.25,16.38l30.93,6.29,12.98-38.87c-10.57-2.04-4.64,9.94-12.82,14.7-3.19,1.86-6.36,1.68-9.84,1.5ZM201.45,288.85c12.85-28.63-25.27-22.89-35.58-8.05l22.64,8.03c.71-.68-7.53-18.59,4.82-16.16,6.4,1.26-.81,15.2,8.11,16.18ZM233.86,308.3c2.94-5.26-12.65-26.96-17.6-25.84l-8.3,11.19,6.44,4.9,9.76-6.43v9.69s-9.35.2-9.35.2l.18,18.76,22.13,6.95-.02-19.43c-6.65,1.69-9.49,14.85-16.14,4.83l12.9-4.83ZM90.34,312.54c-6.33-4.74-19.3-6.04-23.33,2.26-8.43,17.36,7.96,31.56,19.48,42.08,9.48-.71,2.52-15.71,7.97-23.76,1.89-2.79,6.31-1.97,6.5-2.26.57-.89-9.32-17.34-10.62-18.32ZM224.17,369.87c3.97-5.45,12.17-8.63,9.74-19.43-24,3.96-11.2-18.26,3.19-3.26,6.68-11.55-32.6-28.73-29.23-8.17,8.32,2.62,7.14,6.24,6.56,14.63-35.19-16.3-6.73,11.22-9.69,29.21,16.73,2.91,14.29-5.93,19.43-12.99-5.11,5.11-14.87-4.54-9.71-9.71,5.17-5.17,14.81,4.6,9.71,9.71ZM133.39,330.99c-8.81-8.49-5.92,22.89-9.94,25.67l-19.15-2.98,9.71,25.88c-7.25-3.6-26.82,15.99-22.67,19.46l16.2.05,4.79-12.96,1.68,16.15,29.17.05v-13.02s9.69.04,9.69.04l-3.22,12.91,12.96.02c-1.49-2.71-3.11-19.78,4.81-16.16,7.04,3.22-.5,18.35,9.72,16.15,10.35-2.23,1.64-16.77.23-21.33-.53-1.73,2.04-5.39.84-7.07-2.46-3.46-13.06-3.34-9.14-16.96-4.38-.83-7.82,1.17-9.25,5.35-4.49,13.16,15,11.4,1.16,23.76-6.67-9.62-10.69-20.98-9.63-32.36l-6.11-2.86-7.42,5.76c-16.19-3.45,3.7-13.8-4.43-25.54ZM114,343.91l-9.69-9.69c-1.07,6.13,3.78,10.79,9.69,9.69ZM61.13,350.97c-43.36,21.67,21.04,51.07,39.85,23.76l-39.85-23.76ZM187.77,357.96c-4.5-2.01-10.14-3.42-8.62,3.41.69,3.09,13.23,38.2,19.08,31.16,1.68-8.74-2.12-30.86-10.46-34.58Z"/>
            <path d="M285.76,269.43l16.15,4.88c-.78,19.27-19.98,12.99-16.15-4.88Z"/>
            <path d="M198.23,68.48l-16.15-4.88c.78-19.27,19.98-12.99,16.15,4.88Z"/>
            <path d="M199.9,87.98c14.9-4.18,14.9,20.32,0,16.14-6.52-1.83-6.52-14.31,0-16.14Z"/>
            <polygon points="301.96 324.52 301.61 337.1 286.08 337.1 285.73 324.52 301.96 324.52"/>
            <path d="M183.7.48c14.9-4.18,14.9,20.32,0,16.14-6.52-1.83-6.52-14.31,0-16.14Z"/>
            <path d="M167.5,444.43c14.9-4.18,14.9,20.32,0,16.14-6.52-1.83-6.52-14.31,0-16.14Z"/>
            <polygon points="230.15 120.9 230.64 133.29 214.48 128.42 219.61 117.27 230.15 120.9"/>
            <path d="M274.43,369.9c14.9-4.18,14.9,20.32,0,16.14-6.52-1.83-6.52-14.31,0-16.14Z"/>
            <path d="M86.48,434.71c14.9-4.18,14.9,20.32,0,16.14-6.52-1.83-6.52-14.31,0-16.14Z"/>
            <path d="M276.01,230.51c-8.62,8.22-25.27-11.85-8.03-16.16,7.98-1.99,10.01,14.28,8.03,16.16Z"/>
            <path d="M256.56,421.7c-8.62,8.22-25.27-11.85-8.03-16.16,7.98-1.99,10.01,14.28,8.03,16.16Z"/>
            <path d="M201.51,447.62c-1.98-1.89.05-18.16,8.03-16.16,17.25,4.31.59,24.39-8.03,16.16Z"/>
            <path d="M120.49,447.66c8.62-8.22,25.27,11.85,8.03,16.16-7.98,1.99-10.01-14.28-8.03-16.16Z"/>
            <path d="M146.38,42.56c-9.63,8.71-23-12.29-8.04-16.17,7.99-2.07,9.99,14.41,8.04,16.17Z"/>
            <path d="M52.03,399.37c5.69,4.31-.19,17.29-7.66,15.85-9.81-1.89-5.55-25.86,7.66-15.85Z"/>
            <path d="M133.46,369.89c6.26-6.26,20.02,10.29,8.04,12.93-6.82,1.5-10.39-10.57-8.04-12.93Z"/>
            <path d="M133.42,386.09c.76,5.97.2,9.51-4.89,12.91l-4.79.02v-12.94s9.69,0,9.69,0Z"/>
            <path d="M117.25,376.33v-9.69c16.21-1.22,16.21,10.91,0,9.69Z"/>
        </g>
        <g id="autumn" class="pattern" viewBox="0 0 269.99 460.79">
            <path d="M140.51,22.63c10,2.57,21.99-8.3,29.09,1.61-11.06,4.74-12.18,13.58-17.99,20.83-3.09,3.85-9.41,5.06-12.11,10.85-1.54,3.29-1.88,29.6,2.64,31.49,1.68-8.03,14.39-14.79,16.3-19.5,2.81-6.89-6.98-16.8,3.21-22.64,12.55,12.02,17.46-3.71,27.63,5.26-7.84,16.97,2.54,41.23-24.51,24.65l-3.26,2.23c-10.6,14.18-21.33,30.25-20.97,48.91,13.94-19.06,31.15-38.31,57.37-37.94,4.43.06,26.95,13.41,29.12,16.23,3.52,4.57,11.18,24.57,1.04,24.95-6.3-24.58-20.27-12.33-33.92-13.07-17.14-.92-27.66-23.44-43.91,13.03,20.07-9.06,45.97-12.91,45.33,16.23-15.94-14.93-33.89,9.86-55.08,3.22l.05,25.94c12.38-11,33.5-17.2,35.76,4.76.68,6.64,1.31,9.57-6.62,8.21l-6.44-9.71c-2.37,15.7-9.68,20.62-22.41,27.75,2.24,36.05,49.18,106.68,23.85,137.37-8.39,10.16-26.15,9.75-24.15,26.04,27.26-2.79,58.39-39.35,55.01-66.13-1.24-9.81-11.99-25.4-22.6-18.11-2.25-12.6,9.05-15.77,19.42-16.23.02-8.2-9.05-24.78-16.29-27.61-6.36-2.48-19.92,7.05-22.61-9.6,15.91-7.49,7.31-8.7,6.61-19.92-.93-14.94,13.18-14.42,17.87-.95l15.96-6.71c12.93,8.51-1.67,18.22-1.55,24.32.08,4.13,5.27,7.42,5.52,10.26.66,7.41-3.55,17.62,1,27,.84.87,4.18-1.77,4.88-3.18,1.05-2.12,5.2-41.65,5.11-47.05-.24-15.57-10.92-21.8-3.52-37.24-29.03,1.27-25-31.51,3.21-22.69-2.15-12.75,3.97-28.71,18.08-19.75,9.85,8.07.53,19.04,1.37,19.7,10.72-1.34,19.81,3.98,22.86,14.66-3.6,12.75-16.1,11.67-26.07,8.07,6.78,15.62-7.45,21.15-9.57,34.18-1.55,9.57.63,20.79-.14,30.61,7.27-7.37,16.85-24.26,6.86-31.29l4.83-7.42c10.19,6.95,34.28-11.31,33.72,4.65-.26,7.47-12.82,11.45-.37,25.53l-8.22,8.34-12.49-8.77c-20.58,8.09-25.55,32.02-30.82,51.08,12.65-1.36,13.2-19.89,24.12-26.08,8.82-5,21.17-4.29,30.99-1.48,8.13,7.28,9.27,22.76-1.7,27.54-9.13,3.98,2.69-15.63-9.63-12.92-6.12,3.3-9.42,15.42-14.58,17.85-6.08,2.86-13.93-.02-19.48,3.2-2.56,1.48-18.6,22.22-16.19,27.53,2.64,2.89,31.2-26.33,56.73-6.53,18.38,14.26,8.34,39-14.61,35.69-2.85-9.21,7.53-6.43,9.7-11.32,7.88-17.81-24.03,1.03-27.8,1.52-19.2,2.48-24.2-9-40.23,14.69,8.15,2.99,14.46-5.13,24.01-4.69,32.1,1.48,52.4,50.36,8.39,45.16-1.15-13.2,13.91.66,9.72-16.17-1.3-1.37-27.85,1.15-33.98-.05-6.93-1.36-9.51-7.99-12.9-8.49-12.05-1.77-41.94,10.31-37.35,27.97,15.2-9.43,43.25-16.06,52.66,3.99,9.93,21.17-10.34,44-26.73,23.51l12.91-1.59c2.64-21.93-27.16-4.25-42.09-12.93l9.72,48.59c-56.45,4.79-16.14-15.29-22.73-48.6-9.7,8.48-28.82-1.28-35.54,1.53-18.65,7.77,9.66,10.89,9.58,13.06-6.52,9.25-14.4,10.38-24,4.6-12.96-13.39-3.9-37.07,13.58-41.27,10.72-2.57,34.68,10.78,36.4,9.11,1.87-18.13-27.17-31.61-40.3-28.64-3.91.88-4,9.63-11.27,11.1-8.32,1.69-22.77-4.61-32.69-1.87l.02,9.7,9.71,6.45c-42.15,9.77-26.97-43.77,5.16-45.13,5.63-.24,28.18,11.42,23.99,1.47-6.79-16.14-25.04-9.16-37.05-11.58-7.17-1.44-21.34-10.19-26.06-9.54-12.34,1.72,8.91,15.65,4.79,19.43-26.7,1.68-24.51-29.13-6.21-40.22,17.78-10.78,35.22-.36,46.75,14.29,6.99-6.55-6.46-27.95-11.41-30.96-5.25-3.19-10.66,2.41-16.08.3-9.47-3.69-14.05-27.47-26.06-19.5l3.3,11.26c-25-.18-13.9-35.01,10.61-31.75,17.73,2.36,23.9,21.08,34.73,31.78-4.07-28.1-12.4-56.92-46.92-45.33-8.38-10.09,4.91-13.9,5-14.8.77-7.48-9.77-14.72-6.64-24.11,13.73.83,20.58,8.31,35.61,3.24-1.64,12.56-2.56,35.63,9.71,42.11-.89-10.83,1.54-23.3-.16-33.84-2.33-14.5-17.66-16.56-9.55-34.19l-17.16,2.75-8.98-14.05c.42-12.13,16.95-5.28,21.51-11.3,1.66-2.19-1.95-7.82-1.97-11.51-.13-22.49,27.86-9.35,22.93,11.29,31.06-3.6,30.39,18.39,2.98,24.88-3.15,28.51-5.46,57.07.18,85.42,13.34-5.83,5.62-19.92,6.52-27.42.65-5.44,6.08-8.1,6.52-13.04.09-1.01-16.27-7.13-6.67-16.26,8.96-8.53,13.05,2.08,17.47,1.35,1.73-.29,20.63-21.01,21.61-1.37.26,5.19-3.85,9.94-2.69,15.43.63,2.98,4.9,6.02,5.87,10.57,2.14,10.06-15.17,4.61-19.36,6.45-5.75,2.53-20.71,22.58-16.35,27.51,11.28-.04,19.66,3.84,19.43,16.22-8.31-2.32-9-3.35-14.34,3.34-24.28,30.41,14.08,71.24,43.5,80.92l-.51-12.46c-34.32-11.76-31.09-38.73-23.74-68.53,3.45-14,28.9-75.57,27.32-82.43-1.03-4.45-10.48-4.74-14.31-8.41-5.98-5.74-11.53-32.04-17.97-9.65l-6.5-8.05c3.16-10.67,12.67-17.35,23.71-14.08,5.9,1.75,7.72,10.63,15.25,9.16l-3.24-25.92c-23.96,10.29-31.06-16.7-55.05-6.48,6.2-26.98,25.2-21.11,45.33-12.96,3.27-3.18-14.86-21.4-18.47-22.33-7.46-1.91-13.47,8.6-22.29,9.4-8.33.75-14.21-4.48-24.24-2.01-8.3,2.05-7.63,15.08-16.04,10.05,6.35-32.61,41.1-45.66,67.95-25.74l26.05,27.39c.18-11.71-14.91-51.47-26.9-51.25-3.59.07-8.09,3.77-11.82,4.54-15.28,3.16-4.97-20.69-9.86-31.03,11.54,2.92,16.92.2,27.46-3.27l4.73,5.25c-7.11,15.89,6.2,28.23,16.37,40.13,1.21-10.82,3.67-25.56-1.66-35.65-2.42-4.57-8.59-4.84-11.4-8.82-2.8-3.97-3.45-10.45-6.25-14.74-2.94-4.51-11.63-3.88-9.81-12.06l25.9,3.24L135.65,0c7.53,5.5,4.51,14.69,4.87,22.63ZM137.22,236.5c-5.42-5.37-5.45,1.67-6.75,4.54-4.69,10.41-21.19,62.47-20.76,71.69.98,21.3,27.14,38.3,42.05,20.88,14.02-16.38,3.81-47.28-2.44-65.44-1.59-4.61-10.91-30.48-12.11-31.67Z"/>
            <path d="M140.95,294.42l11.13,3.39c-.5,44.97-32.64,40.94-34.22-2.94l9.11-.42,8.68-25.48,5.31,25.45Z"/>
        </g>
        <g id="corner-ornament" class="pattern">
            <path d="M114.97,361.93c-7.95,16.2,28.46,43.28,20.11,59.88-4.27,5.7-5.1.64-8.95-1.64-13.89-8.22-25.19-16.3-31.23-32.02l-22.97,17.93c-3.12-25.2,21.69-37.35,33.63-55.13,11.17-16.65,15.08-48.66,28.28-65.89-8.11-8.78-19.94,1.6-31.03,1.06-14.79-.71-27.81-14.6-34.55-15.73-3.09-.52-10.21,4.21-17.47,3.56-39.66-3.53-22.21-49.85-48.55-67.57,4.93-17.83,19.39-15.23,32.51-19.72l-21.01-28.97c9.41-10.02,19.62-10.99,31.65-5.9,1.97-1.74,7.99-18.67,7.91-21.28-.21-7.02-10.18-13.75-3.35-17.2,10.18-5.13,27.47-1.22,34.15,8.81,11.83,17.76-.28,35.62,1.86,54.13,10.43-8.65,10.52-24.3,18.32-34.42,2.72-3.53.61-5.79,8.27-3.94,13.14,24.78-2.44,45.8-2.3,71l20.86-20.42c21.18,22.34,14.9,64.35-15.32,74.71-18.76,6.44-49.17-14.85-35.61-34.45,4.93,6.45,10.68,11.32,19.02,8.62,12.52-6.31-1.21-25.97-12.53-18.42l-4.46-2.69c14.91-24.17-24.5-51.95-28.28-24.84-2.44,17.56,18.01,3.79,19.98,10.48,5.08,17.21-30.15,31.6,2.86,61,24.15,21.51,67.61,11.73,76.84-18.96,3.04-10.11-3.04-45.07-1.97-47.18,8.1-15.93,14.85,15.39,15.26,22.8,2.66,47.84-36.14,73.83-42.04,114.33-4.24,29.12,10.65,53.52,37.02,65.56,42.6,19.46,76.09-30.58,29.87-51.94-12.72-1.09-15.94,17.36-4.87,20.48l16,.9c2.28,29.09-35.13,39.21-47.94,13-1.95-4-.29-10.19-2.18-13.67-2.45-4.51-10.15-6.6-12.61-12.49-1.97-4.72,2.97-9.71,2.5-13.89s-8.62-6.89-8.3-12.97c.72-13.81,13.53-15.7,19.08-22.72,3.73-4.72,2.48-12.43,6.85-18.11,9.47-12.29,31.11-23.63,45.5-14.22-12.9,9.98-22.1,16.77-19.23,34.3,3.57,21.8,42.13,39.02,38.89,69.2-1.82,16.97-15.71,29.42-29.02,38.27,7.04,4.56,26.48,18.77,22.22,27.87-14.15-12.66-38.78-1.74-52.09-12.84-9.47-7.9-7.54-17.76-12.28-22.63-3.11-3.19-9.64-4.25-13.15-7.48-13.33-12.26-17.09-23.77-26.16-38.54Z"/>
            <path d="M439.34,250.21c-13.67-9.34-21.03-15.96-20.75-33.48-18.45,27.01-44.09,38.98-71.12,15.87-26.48-22.64-33.89-58.95-70.96-20.75-9.48-17.9,4.58-33.39,19.99-41.45,6.92-3.62,18.81-2.95,22.45-5.91s3.8-9.79,8.81-12.67c11.58-6.63,17.4,4.26,24.65,6.27,4.27,1.18,9.69-2.98,13.95-.51,6.14,3.56,6.63,11.86,10.63,15.24,4.03,3.39,13.22.68,19.59,8.97,14.67,19.12-10.3,51.14-27.87,41.88-6.58-3.46,2.91-9.47,3.27-14.64,1.39-19.71-29.54-9.36-16.9,9.2,8.94,13.14,18.35,19.8,33.79,12.97,40.36-17.86,15.38-69.59-14.99-85.44-39.99-20.86-92.42,21.95-132.41,22.9-8.5.2-46.75-4.85-35.44-19.99,37.85,13.58,87.62,13.57,83.04-40.45-3.91-46.14-30.48-42.51-66.45-36.6-3.84-2.9,7.56-27.3-14.97-19.45-16.02,19.7,6.42,38.79,27.06,28.39l4.18,4.78c-5.17,5.43-4.68,13.08,0,18.86,30.51,7.03,7.05-20.62,10.77-23.81,21.04-3.46,36.45,19.66,28.49,38.59-13.31,31.64-54.75,35.32-74.83,8.89l2.21-7.23c1.25-.75,25.82-7.77,14.69-12.35-23.8,4.71-44.42,7.35-66.16-6.68,7.68-16.53,29.6-10.17,41.59-21.43-21.47-3.4-52.89,7.77-60.64-21.21-1.52-5.68-1.83-27.35,7.87-24.25,11.57,3.7,20.11,9.78,33.87,2.03-3.2-13.52-3.01-22.48,10.06-30.59,4.61,11.59,14.02,21.53,27.15,23.54,6.37-4.02-1.93-6.44,2.78-13.45,4.38-6.51,10.51-11.27,16.4-16.25,9.87,24.04,48.98,22.88,59.53,41.81,10.62,19.07-4.88,30.51-4.09,35.38,2.47,15.23,16.05,17.2,10.7,47.81-1.31,7.52-9.77,11.79-2.09,17.01,20.26-10.52,49.03-10.72,69.07-19.53,19.29-8.48,42.88-38.72,59.87-20.08l-21.59,14.62c15.76,11.01,29.96,26.63,30.13,46.73-26.62,3.28-36.25-33.78-58.78-30.28,19.85,8.92,29.24,36.03,41.41,47.35,5.48,5.1,15.61,4.38,19.13,12.74l2.9,56.65Z"/>
            <path d="M305.17,126.53c26.54-19.22-10.47-103.37,4.26-115.67,5.22-4.36,5.96,2.91,7.11,4.96,6.67,11.96,13.45,23.51,21.21,34.75,5.36-13.54,13.59-26.39,30.26-24.34l5.06,45.02c9-10.54,45.9,8.46,39,17.59-8.82,4.4-18.3-1.5-27.76,3.69-8.28,4.55-13.85,12.82-21.84,17.71-5.2,3.18-56.05,30.53-57.3,16.29Z"/>
            <path d="M37.83,313.17c-8.07-13.69-19.76-18.37-31.6-26.16-2.04-1.34-10.07-2.52-4.01-7.16,7.24-5.54,62.31,10.29,72.36,16.23l45.99-1.55c-6.01,38.41-53.1,57.81-54.68,97.38-17.78-2.26-18.28-28.61-13.28-42.13l-42.9-9.82c-.15-18.84,15.1-19.77,28.12-26.8Z"/>
            <path d="M136.83,135.97l-9.87-2.06c5.07-25.09-29.48-32.89-48.23-38.84-4.67-4.88-28.29,3.45-28.42-3.83-.08-4.23,58.37-56.01,63.36-55.49l5.4,47.41c5.69,15.83,8.83,33.85,29.2,32.08l.74,10.06c8.69-6.62,35.66,1.97,39.1,10.54,2.33,5.82-5.63,10.56-5.21,15.85.73,8.96,15.57,15.91,2.5,27.91-12.23,11.23-18.34-4.74-26.88-6.55-4.68-.99-10.17,4.78-14.03,3.91-12.4-2.82-15.88-32-7.66-40.98Z"/>
            <path d="M199.04,167.73c9.73,15.07,55.71,7.5,62.41,12.38,4.93,3.59-2.6,21.14-6.44,24.47-4.73,4.1-12.88,2.16-17.48,6.97,13.43,27.83-1.31,41.05-28.37,26.65-10.86,11.24-11.18,23.34-30.98,18.73-.41-15.77,2.55-29.52.5-45.81-.96-7.64-6.14-13.37-5.17-21.04l18.63-3.25,6.9-19.11Z"/>
            <path d="M292.4,318.58l-17.67,24.04c-17.78-29.64-50.47-94.53,13.61-83.95l47.32,30.61-26.17,14.32c16.1,22.8,3.2,38.15-17.09,14.98Z"/>
            <path d="M252.92,426.98c-3.52-.32-18.04,14.15-14.04-12.04-39.2,5.64,1.73-34.37,10.47-49.87,6.5-11.53,6.49-21.67,12.26-32.46,16,16.41,35.69,90.08,10.62,102.05-10.15,4.85-15.78-7.37-19.32-7.69Z"/>
            <path d="M327.47,274.96c14.47-5.63,31.07-4.54,45.54-11.83,13.39-6.75,28.45-27.88,42.5-9.84l-3.45,10.01,13.33,5.46-6.48,12.32c6.76,4.49,12.26,6.34,9.32,15.65-11.25,25.08-89.54-.85-100.76-21.77Z"/>
            <path d="M284.89,347.9c0-10.44,19.66-11.85,25.79-7.75,8.55,5.72,32.35,72.22,23.2,83.32-15.32,18.59-16.05,1.65-19.87.81-6.22-1.37-14.82,11.61-21.84-3.45-4.5-9.67.37-58.46-7.29-72.93Z"/>
            <path d="M399.78,361.11c-8.14.28-59.62-23.54-65.99-29.82-8.47-8.35-6.4-16.21-4.32-26.9,19.17-6.61,38.13,5.32,56.23,9.71,13.49,3.28,28.45-4.37,31.59,15.1l-9.06,8.52,10.7,12.2c-5.32,4.73-11.48,10.92-19.15,11.18Z"/>
            <path d="M382.72,411.47l-11.06-7.24-12.74,19.6c-2.91-3.59-8.62-5.42-11.08-8.95-2.03-2.92-19.27-58.69-21.98-67.69-1.01-3.37-3.38-7.12-.25-10.32,11.96,15.66,66.09,25.37,74.53,36.15,12.73,16.25-15.86,18.81-16.22,20.48l5.71,11.92-6.91,6.05Z"/>
            <path d="M283.44,245.88c-9.26-1.04-20.65,11.21-21.72-6.28-1.41-23.2,36.08-24.8,52.69-28.61l-5.44,17.99,40.08,31.34c-23.78,17.49-46.03-12.23-65.62-14.44Z"/>
            <path d="M244.25,352.09c-5.35-5.75-10.58-11.5-14.82-18.18-11.4-17.98-2.75-31.93-29.51-22.67,4.46-20.52,17.87-59.48,45.19-41.76-20.71,24.01,23.39,56.09-.87,82.62Z"/>
            <path d="M245.75,260.34c-7.38-1.69-6.56-17.37,1.21-18.26,10.37-1.19,9.29,20.66-1.21,18.26Z"/>
        </g>
        <g id="arch" class="pattern">
            <path d="M30.37,227.5c.07.04-1.13,16.73-.9,18.68.6,5.21,2.05,10.34,4.62,14.92.83,1.48,1.77,2.87,2.79,4.18h208.92c5.42-8.58,7.06-19.74,6.05-30.91-.29-3.18-.76-6.34-1.35-9.47,35.92-27.73,37.34-67.46-2.11-94.84,5.68-21.17-2.39-41.16-21.74-51.3-4.94-2.59-17.21-4.61-18.87-5.78-2.24-1.58-8.64-21.95-14.59-27.93C172.64,25.43,149.49,28.31,140.75.19c-.63-2.01-6.2,12.81-8.41,14.17-19.58,24.63-54.55,23.18-62.61,56.51-29.3,3.22-51.17,29.41-39.18,58.58-45.1,13.78-36.07,77.89-.18,98.05Z"/>
        </g>
</svg>