<?xml version="1.0" encoding="UTF-8"?>
<svg id="b" xmlns="http://www.w3.org/2000/svg" viewBox="0 0 552.89 1372.52">
    <g id="c">
        <g id="d">
            <path d="M280.43,909.81c3.75,22.38,29.58,26.12,40.35,42.29,10.65,15.99,12.71,50.38,1.31,65.8-10.02,13.55-39.76,19.9-36.81,37.72,7.69-7.92,15.27-17.37,27.54-16.17-.88,29.02-32.89,45.39-25.89,77.77l9.99-1.95c15.16-31.25,9.83-76.94,48.35-90.4,8.37-2.93,28.33-6.74,36.56-4.24,22.52,6.83,34.12,48.29.58,51.12l-6.69-2.8-4.6-11.64-2.56,5.73c5.84,31.53,42.91,44.97,54.58,68.6,25.73,52.06-7.84,95.76-54.07,117.96-19.78,9.49-42.32,11.87-59.47,24.78,7.92,4.11,37.05-14.76,31.79,5.79-.57,2.22-19.21,39.21-20.7,40.95-8.07,9.43-24.96,13.94-35.67,19.53l8.25,24.24c-9.45,10.17-25.98,10.16-35.43,0l9.64-27.32c-33.11-.72-49.02-38.7-58.33-64.81l29.13,1.62c-28.28-22.61-63.66-21.69-90.84-48.5-24.95-24.6-35.79-63.46-17.46-95.48,7.37-12.89,48.83-48.15,52.57-60.85,1.61-5.47.59-11.55.63-17.14-6.05-.4-1.91,8.02-4.78,12.96-7.79,13.42-38.41,2.99-28.24-25.03,11.08-30.55,57.05-23.11,75.23-2.58,5.14,5.81,12.34,22.17,15.38,29.99,2.64,6.79,12.62,57.61,23.43,49.43,8.86-29.37-23.11-50.17-25.88-77.73,10.46-.6,21.2,5.25,22.73,16.16,6.94,1.5,8.33-1.5,5.95-7.6-4.89-12.54-29.09-19.86-36.7-31.36-5.38-8.13-8.7-24.21-8.47-33.92.87-35.73,35.63-44.65,48.87-72.92h9.72ZM293.39,1026.44c16.22-4.24,23.49-31.87,22.47-46.48-2.17-30.91-23.91-38.88-40.29-60.37-33.47,27.48-52.44,59.45-26.25,100.83,1.23,1.95,3.9,11.66,8.41,6.04,1.85-2.31-8.57-27.07-9.34-34.37-3.01-28.79,9.42-42.5,27.18-62.77,31.43,28.96,38.75,58.58,17.82,97.13ZM280.46,1026.47c20.29-23.52,17.49-65.5-4.89-87.43-18.18,23.53-22.25,46-12.82,74.33,1.18,3.56,3.47,13.12,7.92,13.09-2.51-16.95-4.39-32.45-2.81-49.81.3-3.28,4.88-35.55,12.53-27.95,8.6,27.32,4.44,50.23.06,77.78ZM280.43,1120.45v-53.47l-6.48-3.28c-11.43,19.22,9.08,45.26-9.66,61.72-26.05,13.48-32.05-51.41-38.01-65.86-4.55-11.02-13.25-26.29-25.92-29.16-8.86-2.01-29.79-3.57-33.34,5.75,69.02,18.51-15.6,81.13-26.6,107.92-3.77,9.18-11.19,35.9.64,41.18-4.87-6.89,16.51-65.74,25.94-55.07-6.19,22.66-26.97,49.6-20.42,73.91,1.56,5.8-.83,8.49,7.46,7.07-6.98-39.2,25.07-67.61,25.96-103.66l9.75,12.94c12.72-5.7,2.88-20.07,3.07-30.63.24-13.36,9.64-31.72,8.21-47.12,13.95,11.79,24.49,34.43,20.4,52.74-3.18,14.24-20.17,16.2-25.19,29.91,4.16,5.31,12.03,2.41,9.67,11.27-30.16,3.02-48.48,44.96-44.58,72.13.4,2.78,1.48,9.8,5.66,8.9l.07-16.19,17.81,35.63-1.62-22.65c16.94-3.35,12.21,27.09,27.54,35.61,4.71-10.73-15.72-27.07,4.81-29.14,3.38,29.13,21.13,41.36,42.13,58.32,1.99-15.3-15.91-17.36-21.54-28.65l-17.29-36.14c16.9-2.41,29.11,2.92,42.08,12.94-1.6-10.35-11.51-14.41-15.86-24.61-4.21-9.87-2.66-20.47-9.96-28.88,6.23-12.74,25.25,8.01,29.09,4.85-3.31-10.03-7.47-22-5.24-32.5.46-2.19,11.54-24.19,12.59-25.12,2.45-2.17,8.24-.11,8.86-.67ZM384.12,1036.16c-7.38-11.63-34.43-7.96-43.8-.02-30.59,25.95-10.08,93.66-56.64,90.8.76,9.64,8.72,9.53,9.93,20.94,1.51,14.18-5.4,21.4-6.68,34.13l22.42-11.68c12.81-1.95.91,27.36-2.34,33.41-4.25,7.92-13.28,11.35-13.6,20.4,11.77-10.59,23.52-10.84,38.84-9.7-7.52,24.15-17.39,40.89-35.63,58.28,2.63,2.39,23.26-14.44,25.97-17.75,7.71-9.39,9.93-30.92,17.83-34.04,13.04-5.15-3.21,27.1-.07,29.11,14.69-5.99,13.23-20.58,17.55-33.73l10-1.9c1.23,10.99-1.19,20.29-9.69,27.56,2.58,6.68,15.8-11.44,17.56-14.83,6.14-11.83,5-28.48-1.76-39.89-11.38-19.2-40.74-14.13-35.24,10.94l6.48-12.97,10.94.41c17.32,14.35-7.02,35.81-22.33,22.33-19.46-17.14,8.94-35.5,4.88-38.9-17.15,2.34-34.18-7.92-31.8-26.67,3.85-30.34,44.76-20.01,31.3,6.74l-15.67.46,9.64-14.57c-13.88-14.4-22.79,6.65-11.44,18,13.34,13.34,35.86-3.23,53.66,20.86,11.86,16.05,10.87,31.83,6.47,50.24,13.67.65,10.45-20.78,9.34-30.43-2.8-24.49-16.71-55.91-45.01-57.08l2.36-6.48,7.36.02c3.46-17.73-18.88-19.31-21.97-28.25-7.12-20.57,1.98-44.52,17.13-59.22-1.21,26.57,17.82,44.7,4.84,69.59,9.37,11.9,5.31-7.42,16.18-4.8,7.76,36.84,31.33,66.61,25.99,106.94,9.82-4.98,7.44-27.52,6.17-36.99-2.38-17.81-13.81-31.1-19.15-47.24,9.42-10.04,29.74,47.78,25.94,55.07,8.06-2.4,7.05-13.64,6.66-21.17-1.94-37.73-48.28-57.75-54.56-88.11-4.21-20.31-2.25-39.41,21.94-39.82ZM176.71,1045.96c-12.29-6.53-22.38,7.33-11.27,16.13l2.86-9.77,8.41-6.36ZM390.3,1046.23c-1.66-2.31-13.43-5.1-15.88,1.32l9.74,14.57c6.36-.87,8.44-12.68,6.14-15.89ZM270.73,1172.28c8.67,7.94,19.95-33.13,8.03-35.62-14.38-3-11.51,27.53-8.03,35.62ZM303.1,1182.03c-16.22.62-11.25,23.01-27.53,23.01-16.28,0-11.31-22.38-27.53-23.01-2.19,17.92,14.34,27.57,20.42,42.74,2.04,5.1,9.15,26.68.58,28.52-11.22,2.42-13.64-35.78-33.96-29.13-1.48,19.67,18.63,27.32,27.35,39.05,6.06,8.15,6.37,18.43,13.14,25.68,11.69-22.89,38.07-37.8,40.49-64.73-21.56-3.03-15.45,31.51-35.6,29.16-10.28-28.98,22.88-44.93,22.63-71.28ZM322.54,1285.73c-22.54-2.71-22.32,18.42-30.73,32.26-8.63-11.81-28.62-.2-30.88-1.27-6.46-3.07-7.85-29.13-24.74-30.62l-7.58,4.58c8.34,53.9,93.31,50.15,93.93-4.95Z"/>
            <path d="M212.38,1169.09c-2.06,1.38,28.45,26.58,1.07,41.7-16.97,9.37-30.61-12.69-18.47-25.67l10.9.11,6.48,12.97c4.18-20.22-13.4-28.75-29-17.64l-13.08,17.64c-10.21-41.82,57.87-37.44,63.36-45.13,5.58-7.8.84-29.76-11.57-21.27l6.49,17.77-9.79,1.79c-24.99-20.08,14.65-43.43,23.83-14.19,7.16,22.8-8.84,32.94-30.23,31.9Z"/>
        </g>
        <g id="e">
            <path d="M372.52,396.08c.91-.04,1.66-.22,2.29-.51-.76.19-1.52.36-2.29.51Z"/>
            <path d="M526.44,298.08c-49.17-97.65-129.84-150.19-195.23-231.33-12.26-15.21-28.22-48.12-41.02-59.29-.7-.61-10.19-6.72-10.8-6.91-8.3-2.51-15.99,4-21.61,9.72-7.96,8.08-12.13,18.42-18.62,26.9-36.44,47.6-74.46,88.84-116.17,131.67-10.34,10.62-24.12,21.17-33.83,31.92-4.9,5.42-7.05,12.88-12.46,17.99l-6.79,11.58C9.67,303.34-23.3,408.03,19.21,498.46c4.39,9.33,17.96,33.84,24.16,40.76,9.56,10.67,52.07,38.76,65.65,43.09,41.15,13.1,80.61,10.49,120.54-3.41,9.04-4.31,38.09-30.51,45.12-30.93,8.93-.54,9.09,7.2,15.91,11.25,11.34,6.75,46.03,21.45,58.71,23.9,24.74,4.77,87.63,3.65,108.8-10.04,20.21-13.07,41.53-28.28,55.88-48.65,48.88-69.36,50.16-151.46,12.45-226.35ZM521.85,373.5c4.43,5.45-4.85,16.94-5.09,23.88-7.45,6.79-17.76,6.01-27.1,7.44,1.54-6.8,26.25-12.89,25.2-19.18-.62-3.71-6.99-5.17-10.5-4.11-3.92,1.18-21.27,19.58-19.82,5.65.91-8.66,31.88-20.38,37.31-13.69ZM492.21,425.1c-2.33,5.47,1.18,14.31-9.29,13.45,1.91-11.38-.23-22.84,15.16-21.9.78,4.4-4.61,5.51-5.87,8.45ZM513.26,322.22l-6.93,36.06c-1.34,4.16-18.23,11.06-20.04,9.45l18.41-24.2c-13.97-18.56-13.42,8.83-24.3,10.75-3.01.3-2.59.07-2.61-2.59-.09-13.03,21.65-32.28,35.47-29.47ZM488.54,286.97c7.21,2.06,4.55,24.14,1.51,29.76-.62,1.15-11.86,12.24-14.15,14.51-1.46,1.45-4.42,4.91-6.47,2.79-4.71-4.9,18.99-25.74,8.41-31.25-7.8-4.06-9.32,10.82-14.32,14.37-3.04-2.19-2.89-3.47-1.8-6.81,1.5-4.61,21.62-24.84,26.82-23.35ZM331.18,468.04c-.71-3.9,1.74-2.24,4.21-2.47,12.55-1.16,26.61-6.44,34-17.01l17.21,7.05.12,4.76c-17.81,7.15-37.26,24.49-55.55,7.67ZM355.35,512.57c-2.63.74-13.1-3.19-13.89-5.99-.57-3.84,6.68-18.08,9.36-18.96,12.53-4.12,11.02,23.13,4.53,24.95ZM280.59,428.44v-27.82c0-35.73,60.16-84.02,92.61-58.89,23.66,18.31-5.58,47-20.84,32.64-11.14-10.49-7.19-32.98-27.82-19.16-11.93,8-29.94,31.28-32.06,45.52-1.63,10.93,8.32,28.09-11.89,27.7ZM234.99,469.79c1.77-10.75,17.77,2.9,18.48,5.28,1.09,3.63-5.46,15.49-9.95,12.38.69-9.06-9.81-9.86-8.53-17.66ZM198.63,489.21c3.94.67,7.25,13.68,7.84,17.62-4.14,11.28-22.79,6.56-8.51-.87v-2.48c-9.3-4.79-8.53-10.22.67-14.27ZM200.7,478.93c-3.7-1.66-41.75-14.2-36.45-20.13l15.67-6.58c6.21,8.18,10.83,7.45,18.47,10.36,2.48.95,3.74,3.65,5.82,4.29,4.13,1.28,9.61-.12,13.98.35,2.12,1.86-13.25,15.11-17.5,11.71ZM93.45,332.33c1.96-2.11,26.26,10.38,18.51,19.38-9.65,11.22-15.96-.26-26.96.85-.35-8.75,11.31-9.86,8.44-20.23ZM130.56,271.64c6.08-1.56,5.82,4.05,9.44,6.56,2.6,1.8,7,1.34,9.1,4.44-8.61,17.3-16.53,25.83-28.73,5.02,0-4.85,11.79-9.29,10.2-16.02ZM174.54,217.88c4.21-3.02,20.61,9.44,22.96,14.12-.26,1.38-.81,2.68-1.74,3.74-1.04,1.17-11.1,9-12.13,9-4.84-4.59-18.63-6.6-17.83-14.37.42-4.08,9.17-6.23,8.73-12.49ZM174.14,255.85c.9,4.71-12.54,15.5-16.01,19.04-19.23-10.95-19.95-17.47-2.8-31.73,2.85-.74,15.72,9.74,18.81,12.69ZM117.64,327.03l-13.87-9.24,6.55-15.8c14.95,4.35,23.44,13.59,7.32,25.04ZM101.77,377.2c-.11,15.71-13.13,8.06-23.51,9.1.44-3.52-1.65-17.76,2.58-18.57l20.93,9.47ZM78.26,401.45l18.66-.97.85,17.95c-20.36,5.9-22.94,3.7-19.51-16.98ZM104.98,442.53c-14.08,17.15-21.68,18.88-25.04-5.65,10.72.49,21.27-10.47,25.04,5.65ZM104.54,465.67c1.92-1.38,2.68-6.04,5.14-6.78,5.33-1.61,12.81,11.17,13.9,15.7l-15.81,14.67c-1.1,0-11.92-11.29-12.73-12.66-6.63-11.13,5.17-7.8,9.5-10.92ZM142.96,510.92l-22.47-8.37c7.73-28.24,40.29-19.73,22.47,8.37ZM211,396.79c5.14-1.05,20.97-1.11,25.84.37,3.81,1.16,13.69,11.51,7.47,12.74-9.22-1.81-15.76-8.58-25.78-5.65-22.35,6.52-39.05,44.08-70.69,50.77-3.98.84-23.9,3.68-24.01-2.13,4.79-4.44,12.06-1.94,18.61-3.28,28.89-5.87,43.27-47.66,68.57-52.83ZM201.36,387.14c3.15-3.03,9.76-6.32,11.87-10.04,2.17-3.81,1.42-13.55,5.84-12.78,4.73.83,24.46,19.99,21.05,23.65-.68.73-15.37-4.97-19.46-4.82-5.4.2-12.89,7.75-19.3,3.99ZM240.84,431.62c-11.58-3.5-22.55,2.25-34.46-2.3l-1.59-5.83c5.63-.12,10.4-7.05,14.69-8.16,8.21-2.12,32.6,4.89,21.35,16.29ZM135.63,468.06c15.97-10.22,27.46,8.31,42.1,12.67.43,2.89-4.01,1.79-5.85,1.65-13.34-1.08-26.26-5.26-36.25-14.31ZM215.57,457.2c-9.48-2.29-7.17-2.12-14.71-5.5-2.19-.98-12.36-4.27-12.76-4.92-2.8-4.58,4.77-11.52,8.75-11.29,2.48.15,9.45,5.17,14.17,6.04,5.11.94,12.52,1.13,18.18,1.68,2.48.24,5.97-2.96,7.37,1.49,2.64,8.35-6.66,16.11-14.2,15.65-2.17-.13-4.14-2.51-6.8-3.15ZM248.75,455.22c.27-10.98,4.28-19.56,15.54-11.33,7.97,5.83,3.87,11.87-1.62,18.18l-13.92-6.85ZM267.19,429.4c-18.75.33-8.4-12-8.48-21.96-.19-25.27-24-55.79-50.45-54.69-3.52,15.32-6.35,30.45-26.23,26.7-7.98-1.5-15.67-12.35-13.7-20.14,2.26-8.97,8.37-18.64,17.79-21.14,27.88-7.38,69.51,19.42,79.62,45.26,6.16,15.74,5.42,29.69,1.45,45.97ZM296.31,233.07l6.12,10.78c-1.12,1.72-2.17,2.17-4.15,2.5-16.43,2.75-33.02-1.35-49.73,0-.06-6.21.44-11.08,7.49-11.89,13.14-1.5,27.1,1.7,40.26-1.39ZM273.82,191.46c2.89-1.92,4.28.86,5.84,2.73,2.35,2.82,12.04,19.95,13.55,23.55.7,1.68,1.25,3.13.87,4.99-6.42,3.56-12.21.29-17.7.35-3.75.05-17.91,4.23-19.38-1.22-.52-1.93,14.56-26.33,16.82-30.41ZM310.95,254.8c10.45-.96,20.09-3.55,30.31.85,2.06,1.15,2.08,2.67,1.49,4.77-.34,1.21-13.67,17.4-15.77,19.68-5.21,5.67-12.2,13.39-19.43,15.98-3.17,1.14-16.56,4.8-15.15-1.64,9.85-10.47,20.63-24.58,18.55-39.64ZM254.39,291.94c1.03,2.27,1.16,4.25.91,6.67-24.7,1.61-32.15-22.99-48.13-35.36-5.9-10.76,23.64-9.83,28.91-6.96,3.13,2.56,1.93,8.06,3.63,11.54,3.29,6.74,11.6,17.36,14.67,24.1ZM252.77,266.59c-3.17,0-3.17-8.43,0-8.43,11.82,0,31.57-1.76,42.15,0,4.7.78,4.76,4.25,4.21,8.43h-46.36ZM261.2,276.67c10.1.7,18.78,3.24,29.5.04,1.06.98-2.22,6.68-3.29,7.65-4.57,4.11-28.78,5.91-28.77-5.11-.28-2.82-.12-2.76,2.56-2.57ZM267.97,298.66c4.72-3.89,12.07-1.53,16.11,2.37,5.81,8.23-2.71,29.35-6.9,38.05-10.95-3.12-8.66-13.36-10.47-20.68-2.05-8.28-8.11-12.01,1.26-19.74ZM294.78,330.51c1.67-4.45,3.19-17.47,5.17-20.12,1.4-1.86,10.27-2.95,13.86-4.69,14.55-7.05,21.06-23.22,32.49-33.26,4.21-3.7,12.59-5.04,11.93-11.68-.52-5.23-15.68-16.6-20.79-18.16-8.38-2.55-17.39-.68-25.73-2.89-1.85-2.98-.04-8.57-1.12-12.41-.69-2.46-15.82-27.75-18.52-32.06-2.45-3.9-11.19-17.8-13.89-19.83-9.81-7.37-11.31,7.09-13.79,11.73-9.66,18.04-23.14,35.62-27.86,55.6-7.85,1.39-17.99-1.28-25.5.63-1.64.42-18.32,13.74-18.95,14.76-5.74,9.36,4.87,9.63,9.2,12.71,15.98,11.37,17.02,26.83,40.66,38.58,3.23,1.61,7.12.19,10.1,3.39,4.65,5,2.2,15.13,4.01,21.28,2.57,8.72,15.55,16.99,12.72,28.57l-21.34-19.95c-5.78-1.39-9.99-6.79-14.54-9.07-3.59-1.8-28.6-6.65-22.37-14.89,2.07-2.74,9.72-.27,10.97-4.3-5.92-22.9-23.45-11.62-22.64,7.8-4.86,6.31-11.26-12.3-10.79-14.22.61-2.49,6.07-3.41,7.41-6.05,4.27-8.41-6.45-21.68-13.43-11.72-1.31,1.87-6.17,13.78-6.14,15.94.07,5.03,10.38,16.69,6.66,22.5-1.42,2.22-9.14,2.62-11.73-.48-6.31-7.53,6.89-6.2,5.02-13.3-.78-2.97-10.51-12.15-14.68-9.27-10.72,13.36-5.17,21.31,4.64,32.32-8.52,5.32-6.16,15.26-10.19,21.95-2.31,3.83-10.53,9.24-14.03,14.63-5.26,8.09-11.27,20.86,2.99,21.64l16.91-16.58c3.66,2.45,10.3,10.21,14.07,11.32,7.68,2.25,14.94-2.45,22.4-.48-19.25,11.29-27.86,33.71-47.7,45.03-9.87,5.63-32.25,12.38-34.81-4.66-1.04-6.88-1.92-21.45-1.88-28.62.39-86.95,90.73-156.21,141.72-217.44,3.21-3.86,14.16-23.18,17.86-24.34l4.86,1.63,26.95,33.74c40.87,45.71,122.23,119.08,130.53,181.38,1.36,10.22,1.92,39.07-.15,48.33-4.32,19.25-30.87,11.65-41.68,3.62-20.24-15.04-30.29-38.5-58.39-44.46-8.76-1.86-17.7-1.11-26.02,1.57-.64-2.81.9-3.42,2.55-5.02,2.35-2.27,17.32-16.59,18.54-16.88,2.07-.49,11.05,15.32,15.15,18.53,3.88,3.04,7.03,3.66,10.1,4.27.27-.05.57-.07.9-.03,7.7.89,15.31.28,22.59-2.15.05-.12.1-.24.16-.35.83-1.47,8.77-7,10.24-10.1l20.4,18.29c12.69-1.64,6.72-14.89,1.39-21.77-4.41-5.67-12.72-8.8-15.12-11.85-3.76-4.77-6.3-17.95-12.49-23.08-1.39-5.69,10.23-10.13,11.25-16.79,1.86-12.13-7.93-21.11-19.98-16.35-.82-10.14-18.6-25.44-21.58-9.87-1.68,8.77,8.02,7.1,8.13,13.04l-6.78,16.04-5,.03c5.14-12.19-16.48-31.33-22.82-16.8-4.74,10.86,14.34,10.18,10.9,20.05-6.52,2.23-16.96,5.28-22.66,8.53-5.38,3.07-20.36,14.84-24.47,19.36-1.67,1.84-6.35,13.77-10.07,10.98-5.92-4.44,11.77-27.44,14.17-33.85ZM225.81,198.59l-17.83-15.48,17.86-21.06,19.23,16.25c.45,2.61-15.36,20.52-19.26,20.28ZM293.82,126.05c.78,4.01-13.42,19.82-17.74,20.48-4.05.54-19.17-17.18-19.16-19.04l15.27-26.12c4.21-2.87,16.9,22.19,21.63,24.68ZM289.87,92.94l.83,6.73h-3.35c-.41-3.11-.07-4.91,2.53-6.73ZM300.31,138.64c3.66-1.98,14.11,12.71,14.1,14.16l-16.12,16.04-12.71-14.38,14.73-15.83ZM444.69,355.51c-1.53.21-4.16-.57-5.21-1.67-2.41-2.5-5.26-15.22-3.05-18.25,1.36-1.86,5.57-1.28,7.59-2.52,3.46-2.13,5.18-7.83,10.23-5.04l10.04,20.15-19.6,7.32ZM473.73,381.22c-3.29,6.57-18.44,5.77-24.65,4.34l-3.15-18.43,1.51-1.98c4.73.23,9.41-3.04,13.11-3.76,14.63-2.87,9.88,9.36,13.18,19.83ZM447.5,315.46l-19.35,10.15c-15.47-18.87-8.42-17.11,6.71-30.33,2.59,3.12,14.65,17.34,12.64,20.18ZM427.32,285.91c-.51,4.86-11.59,11.93-15.88,14.32l-12.64-17.39,14.3-14.47c4.3-1.35,14.69,13.04,14.22,17.54ZM372.51,328.53c-10.89-2.37-4.36-17.35,2.48-21.48.47,10.91,11.32,12.55-2.48,21.48ZM345.03,398.56c11.01,4.58,24.98,24.31,35.01,32.43,12.05,9.76,29.51,19.79,45.53,17.69.71,7.84-17.39,3.74-22.01,2.62-31.56-7.64-38.06-29.28-61.11-43.42-13.82-8.48-23.75-3.87-38.25-1.37-.65-15.46,31.61-11.79,40.83-7.95ZM332.41,414.57c3.64,1.2,13.43,6.77,12.14,11.18-.36,1.17-5.09,4.38-5.79,4.38-6.53,0-25.92,1.34-30.35,0-10.07-3.04,6.96-21.21,24-15.56ZM345.08,438.14c2.79-.96,4.29-4.71,7.16-4.72,1.8,0,11.51,7.11,10.96,9.33-15.81,12.35-46.13,25.87-52.26-2.5,12.64.81,21.84,2.11,34.13-2.11ZM396.5,462.58c8.17-2.1,26.19.42,11.6,6.54-9.59,4.02-18.95,10.2-29.71,9.89-2.64-2.32,16.28-14.8,18.12-16.43ZM418.79,479.84c1,.47,13.26,12.69,13.47,13.62,1.01,4.52-21.96,13.61-26.9,12.54l-4.93-19.14c3.95-3.83,13.06-9.48,18.36-7.02ZM425.68,472.91l11.2-17.28c27.42,7.87,23.76,13.99,4.49,30.02l-15.69-12.74ZM441.52,443.62c-1.89-3.56,5.2-12.48,6.94-16.67l21.91,4.75c3.45,4.82-1.7,16.81-6.02,19.54-3.37,2.13-20.94-4.06-22.83-7.61ZM447.74,414.72l.5-16.73,24.57-2.48,1.68,22.81c-9.39.34-18.12.56-26.74-3.6ZM458.78,251.61c8.47-2.24,9.8,26.71,8.86,32.58-1.05,6.5-17.92,27.95-16.66,10.44.76-10.59,17.4-29.86-.15-28.98l-9.22,19.44c-11.26.26,13.81-32.22,17.17-33.49ZM434.89,212.65c2.59-.58,3.76,1.99,4.15,4.23,1.55,8.74,2.72,25.06,1.71,33.69-.44,3.79-6.6,20.34-10.94,19.38-7.49-1.67,1.86-14.49,2.41-17.77.75-4.44,1.92-17.66-5.55-15.71-7.29,1.9-2.37,15.71-7.03,16.63-4.05.79-4.41-4.87-4.3-7.55.15-3.9,16.19-32.14,19.53-32.89ZM407.73,187.45c1.36.37,11,23.49,10.94,26.06-.09,4.09-8.9,20.32-13.29,22.72-2.71-10.36,13.77-22.45-.87-28.72-7.37,2.11-8.17,10.25-7.59,16.91-3.03.51-4.8-1.34-5.11-4.22-.53-4.85,7.72-33.12,15.92-32.75ZM408.6,257.55c.72,4.28-14.13,12.78-17.58,15.22-5.06.32-13.13-14.63-16.11-18.85-.01-1.44,13.82-12.2,14.76-12.45,4.73-1.25,14.19,13.12,18.93,16.08ZM375.81,155.27c1.82-1.42,1.45-2.45,3.42.02,2.45,9.31,9.95,20.22,10.47,29.79.11,2.05-5.87,23.91-7.14,24.17-9.11,1.89,1.74-27.78-4.35-31.86l-7.53,1.42-.75,16.95c-15.14-.17,2.34-37.73,5.88-40.49ZM367.77,216.26c1.95-.55,3.81-.69,5.56.56l11.73,13.4c-13.45,13-20.59,23.21-30.31.1,0-2.28,10.82-13.42,13.02-14.05ZM361.31,209.08c-15.11,8.3-17.99,17.85-30.14-2.29l17.7-14.44c4.54,1.61,15.74,12.12,12.44,16.73ZM348.89,126.65c7.65,1.12,4.83,8.93,6.65,13.56,2.19,5.57,5.88,6.21,6.13,14.24.14,4.45-6.12,28.75-11.94,22.77-1.44-6.07,2.88-10.46,3.44-15.98,1.82-18.09-14.69-15.91-11.89.81-12.18,1.18,5.63-34.91,7.62-35.39ZM339.46,179.9c5.44,6.58-11,14.18-15.89,18.68-4.44.26-16.28-16.15-18.97-20.54l18.75-15.88c6.66,4.25,9.42,10.3,13.41,16.24.53.79,2.23.94,2.69,1.49ZM309.44,125.78c.33-5.31,13.93-37.89,19.61-23.14.88,2.28,6.79,21.68,6.75,22.87-.03,1.05-6.58,18.8-7.19,19.65-1.74,2.4-3.29,1.8-5.86,1.71-2.41-9.56,7.81-15.99,4.25-25.3-12.04-9.4-9.7,8.12-13.56,10.12-3.14,1.06-4.09-4.4-4-5.91ZM302.59,73.46c8.07,15.06,9.8,23.79-3.44,36.33-.28-6.01,7.72-21.19-1.19-23.44-3.94-.99-4.76,3.44-7.27,2.35,2.05-5.69,5.41-27.35,11.89-15.24ZM270.12,32.73c.94-1.68,1.85-4.36,4.44-3.79,5.62,1.23,12.97,24.31,17.85,29.46l-10.98,17.64c-5.99.27,5.31-26.74-10.54-18.08l-2.94,16.42c-13.3-11.16-4.71-29.37,2.17-41.65ZM246,62.59c6.7,5.8,19.09,31.7,15.22,38.79-1.25,2.28-1.97,1.7-3.38-.03-4.24-5.19-5.21-31.51-14.36-15.18-2.45.42-1.51-.63-1.67-2.49-.33-3.85-1.76-22.38,4.2-21.1ZM243.48,89.55l6.75,28.66c-5.15.94-2.57-1.61-3.51-3.98-2.78-7.01-6.63-14.39-6.65-22.12,0-3.35.19-2.7,3.41-2.55ZM249.4,136.79l15.92,14.52c.48,1.6-8.78,15.37-10.5,16.97-1.02.95-3.26,2.2-4.64,1.47l-16.76-16.97,15.99-15.99ZM221.56,95.4c1.73-1.37,3.34-.98,5.12-.02,6.15,3.3,9.26,29.22,11.01,36.29l-5.18,1.75c-.65-8.59-2.16-14.17-9.3-19.5l-8.36,2.61c-.94-8.06,1.71-14.96,6.71-21.13ZM215.68,119.94c4.68.11,14.68,28.64,4.23,30.31.91-9.92-11.68-21.44-4.23-30.31ZM189.55,123.28c8.22-8.27,20.83,36.77,20.21,42.13-8.84-1.49-3.82-22.67-16.93-19.46-8.04,5.83,16.13,33.3-1.6,36.32,2.26-9.12-4.77-19.78-4.77-27.81,0-9.35,8.04-19.94,3.09-31.18ZM199.02,192.49c2.27-.67,22.42,12.22,17.6,19.37-11.53,17.1-18.14,5.02-30.43-3.49l12.83-15.88ZM160.81,181.37c.09-3.76,2.23-28.6,3.46-29.43,16.06,2.56,14.96,19.3,16.91,31.11.67,4.05,8.47,11.27-1.75,12.72.26-5.66-5.21-23.42-13.58-17.77-4.58,3.09,2.26,10.24,3.08,13.94.46,2.07,2.19,15.07,2.06,16.45-.44,4.61-6.51,8.64-8.15,3.13-2.09-7-2.22-22.45-2.04-30.14ZM150.78,227.8v-6.73c6.71.04,6.63,6.73,0,6.73ZM137.29,183.98c3.87-.29,6.85,2.57,8.88,5.43,3.23,4.55,12.67,26.56,1.25,26.59-1.37-7.81-4.91-11.61-11.97-14.55l1.84-17.47ZM130.53,208.42l3.35-.83c5.19,6.93,3.92,13.35,5.84,20.31,1.16,4.2,8.85,9.17,1.75,15.07-4.8.98-3.98-7.5-5.02-10.12-3.9-9.81-7.47-11.93-5.92-24.43ZM112.88,217.7c11,1.3,12.99,17.1,16.33,25.76,1.87,4.84,7.84,6.05,2.89,14.61l-4.91.09c-1.15-.94-2.83-25.8-12.61-23.59-7.55,2.28,5.65,32.07,4.15,38.75-3.5,4.11-11.25-15.01-11.64-17.84-.74-5.44,1.8-36.69,5.79-37.78ZM83.34,244.68c2.73-.63,3.43.95,5.1,2.47,2.21,2.03,19.86,31.91,20.16,33.86.5,3.22.33,5.47-2.51,7.46-8.14-4.6-4.66-20.32-13.87-21.62-14.86-2.11,6.11,28.81,6.32,32.76.19,3.61-1.66,5.24-4.25,7.41l-14.32-21.19,3.37-41.15ZM75.82,300.37c1.37,3.2-1.2,5.69-.14,8.33.95,2.38,7.47,6.39,9.39,9.25.68,1.01,5.47,12.21,4.99,12.69-7.91-3.32-10.83-.44-17.45,3.21l-13.78-13.38c1.03-9.41-1.94-18.9-2.39-28.01-.65-13.4,17.71,3.99,19.38,7.9ZM69.83,360.99c-2.09,2.42-18.06-22.01-20.31-7.52-1.42,9.13,12.08,12.45,13.57,21.01-26.37-3.29-20.38-29.52-25.27-48.88,10.69-2.71,38.24,28.16,32.02,35.39ZM28.91,376.46c5.34-1.54,28.46,9.43,32.45,14.09,1.72,2.02,2.85,3.43.99,5.95l-9.37,3.3,5.05,10.08c-14.42-.35-21.33-8.28-28.34-19.69-2.72-4.43-8.87-11.4-.79-13.72ZM61.38,425.91l-14.32-.98c-5.58-.47-7.28,4.28-5.64,9.14,1.12,3.31,7.4,3.05,6.5,7.85-6.46,4.36-21.24-15.09-21.76-17.94-1.65-9.06,31.07-7.63,35.22,1.93ZM31.08,462.96c-1.78-8.22,42.15-13.64,35.38-4.19-1.92,2.67-25.2-.99-19.46,10.14,2.43,4.71,9.85,3.29,14.4,3.37.91,6.75-11.98,6.15-15.14,4.18-1.38-.86-2.04-3.73-3.55-4.87-2.41-1.81-11.18-6.6-11.62-8.63ZM52.46,500.63c-2.5-1.18-10.71-2.53-11.27-3.08-4.95-4.88,6.26-1.74,7.19-1.96,1.95-.46,3.88-3.12,6.29-3.93,4.29-1.43,28.4-9.22,30.34-7.56,5.86,5.02-29.44,8.79-20.38,19.52,7.19,8.52,15.68-5.1,23.75-2.66,3.16,2.65-11.24,9.52-13.07,9.83-6.46,1.09-16.37-7.09-22.86-10.15ZM74.91,532.11c-.7-2.41,7.54-11.31,9.23-12.66,1.41-1.13,8.64-5.36,10.55-6.31,2.73-1.34,17.22-7.51,17.27-2.93l-16.61,12.05c-1.8,6.6,7.15,6.79,11.56,4.77,2.39-1.09,13.78-15.85,16.88-12.6,3.15,3.3-17.62,20.95-19.73,21.56-4.18,1.22-27.94.26-29.15-3.89ZM123.37,557c-3.07,1.36-9.76,8.92-13.99,3.02-2-2.8.03-3.98.84-6.05,1.4-3.59,4.44-11.01,6.15-14.08,4.19-7.55,11.56-10.69,15.84-17.87,3.47-1.66,7.65-1.77,10.09,1.69-26.97,13.03-6.65,33.58,5.12,5.91l3.36.84c-1.56,15.77-14.94,21.03-27.41,26.54ZM170.99,554.03c-3.35,1.97-15.38,15.35-18.52,12.67-6.62-7.09,10.4-39.93,15.98-38.77,7.16,1.49-2.74,8.89-3.31,10.13-5.21,11.34,6.67,12.27,5.86,15.97ZM156.54,512.82c-1.6-2.28,4.13-19.12,7.17-20.1,11.96-3.84,16.17,8.51,17.1,17.95.92,9.42-18.91,5.62-24.27,2.14ZM213.11,542.21l-19.32,19.42c-7.64-7.35-6.26-17.56-3.22-26.86,1.21-3.72,3.2-6.23,7.41-5.15.6.51-4.4,11.38-.11,14.44l6.95-.03,5.81-14.38c3.95,3.05,2.55,8.3,2.49,12.58ZM214.75,490.07c.22-2.59,5.75-8.46,8.03-9.1,4.78-1.35,10.11,5.05,12.37,8.94,5.55,9.56-6.07,12.03-12.62,16.08l-7.77-15.92ZM255.38,508.61c-.46,6.17-12.59,31.2-16.62,37.33-3.8,5.79-11.1,8.2-13.54,1.09-1.58-4.6-3.01-35.84,8.15-32.59l-1.54,15.76c15.6,12.34,8.41-18.85,10.74-24.13.48-1.09,8.66-10.49,10.17-10.17,3.56,2.75,2.94,8.61,2.63,12.72ZM277.77,521c-13.55,4.26-11.59-14.25-12.48-20.77-.88-6.43-7.37-18.3,3.49-21.2-2.81,27.71,16.42,29.82,11.82,1.68l5.2.99c5.2,6.6-2.01,37.42-8.02,39.3ZM291.97,437.19c6.98-1.81,11.75,8.75,10.32,13.67-.43,1.49-8.48,8.06-9.96,8.73-10.98,4.98-15.07-18.59-.37-22.4ZM308.41,460.5l9.05,10.62c-9.87,13.84-15.78,26.24-23.2,2.35l14.15-12.97ZM318.48,548.13c-3.56.8-7.32-12.19-9.53-15.69-7.65-12.09-14.97-15.49-11.49-33.17,17.26,1.5,8.17,16.77,10.4,24.09,1.41,4.65,9.87,8.64,12.44,2.82,1.68-2.72-.66-5.35-.82-7.77-.44-6.9,6.59-7.61,8.05-2.86,2.89,9.44.79,27.11-9.04,32.58ZM328.67,504.13l-16.04-9.11c-.72-2.97,4.77-4.38,6.54-6.92,2.16-3.08,1.69-8.86,6.32-10.54,16.04,3.66,9.36,16.78,3.18,26.57ZM359.81,559.94c-5.37.47-5.49-6.21-8.37-9.3-3.47-3.72-11.86-6.97-14.02-11.38-2.39-4.89,1.75-11.07.5-16.4,9.57.32,1.07,17.54,10.98,18.63,12.11,1.34,2.15-14.24,2.5-16.07.78-4.19,5.31-2.36,7.47.93,5.89,8.95,5.62,24.23.94,33.59ZM369.94,490.82c3.54-.22,7.4.52,10.89-.07,3.38-.57,8.09-5.2,10.25-1.66,1.44,2.37,3.01,21.45.06,23.84-1.01.82-13.36,1.38-14.92,1.16-10.19-1.49-5.21-15.73-6.28-23.27ZM396.96,560.83c-3.75,2.89-6.61-6.35-10.26-8.36-5.85-3.23-14.09-1.26-13.37-12.74l11.78,3.37-1.67-18.54c6.74-1.14,9.94,7.05,12.16,12.27,2.4,5.65,7.04,19.64,1.36,24.01ZM445.82,554.01c-1.29,6.34-10.61-1.28-13.02-2.13-6.36-2.25-17.04-3.22-21.37-5.61-6.24-3.45-8.26-16.91-11.13-23.42,8.37,2.53,12.03,21.28,20.85,18.41,10.97-3.56-8.41-18.77-9.09-22.61-.88-4.9,5.15-1.96,7.39-.63,6.02,3.57,27.42,30.79,26.37,35.98ZM448.54,532.57l-21.26-21.49c8.73-.35,17.92,16.75,27.03,11,8.73-5.51-15.45-15.01-16.9-18.63-.86-3.97,3.41-2.78,5.53-2.16,4.05,1.19,20.61,11.19,24.64,14.14,21.88,15.98-6.69,11.8-19.04,17.14ZM475.42,505.94c-2.57-.18-28.4-11.71-24.54-15.11l27.03,7.68c7.05-13.43-11.54-9.23-16.88-16.97-.02-5.91,24.72.85,28.12,2.19,3.9,1.54,11.08,5.49,12.41,9.6.03,3.46-22.38,12.86-26.14,12.6ZM519.58,457.98c-.09,1.18-16.41,14.38-18.2,15.1-4.32,1.75-19.93-2.2-20.12-5.02-.26-3.81,13.51.07,18.11-2.1,5.97-2.82,5.92-9.65-2.04-10.62-6.02-.74-24.75,5.63-19.5-4.16,3.19-.74,6.54-1.61,9.78-2.02,6.6-.82,32.75-1.54,31.97,8.82ZM499.78,431.82c7.27.98,12.3-.77,9.8-8.94-.95-3.09-5.5-4.01-4.74-7.92,7.24-.03,15.36-5.36,20.14,2.72.31,1.94-23.55,30.31-25.19,14.14Z"/>
            <path d="M361.02,349.46c9.78-2.93,18.99,8.73,9.59,14.73-13.53,8.64-20.92-11.33-9.59-14.73Z"/>
            <path d="M188.93,345.95c10.5,4.5,14.29,15.33,3.23,21.88-5.18,3.06-9.98.69-12.82-4.22-4.81-8.33,4.41-12.11,9.59-17.66Z"/>
        </g>
        <g id="f">
            <path d="M286,579.72c9.28-3.34,15.94-3.12,22.65,4.88,2.51,5.36-11.54,7.85-16.26,12.86-9.16,9.74-10.84,24.52-9.63,37.31l22.65-16.17c4.82,17.71-12.21,23.47-12.93,38.85l22.65-19.41-3.19,25.91,8.07-6.42c3.03,2.54,4.69,3.76,5.01,8.05,1.08,14.38-13.52,18.42-13.1,30.76l19.39-16.19c6,19.67-12.27,22.75-12.91,38.87,10.46,3.16,14.89-18.9,21-16.15,17.31,7.77-15.47,31.46-11.28,35.6l22.65-12.93c8.14,13.73-22.41,28.47-16.17,35.61,4.58,5.25,23.99-25.78,25.92-11.26.37,2.78-5.99,14.76-8.22,17.71-4.82,6.39-13.01,4.09-11.22,12.99l25.89-12.93c1.66,1.71-5.07,15.06-6.91,17.34-4.22,5.21-22.77,10.55-15.74,18.27,3.26,3.58,19.2-15.5,25.89-8.11-5.75,15.49-14.25,18.22-25.9,27.53,3.02,3.77,33.26-8.62,29.14,1.61-4.53,11.25-22.1,12.16-32.36,14.68-1.78,14.88,22.37,1.48,29.19,4.85-3.12,15.4-21.15,9.82-32.41,14.59,4.97,8.96,26.83,1.41,25.89,16.14-14.81,4.91-21.94,2.06-35.62-3.2-1.96,10.49,27.08,15.23,14.61,25.81-19-7.54-28.83-16.63-50.28-9.59l19.42,25.86c-13.07,8.51-24.37-3.12-34.08-2.93s-18.15,11.87-35.16,2.94l-2.01-6.4c10.22-1.45,15.64-10.87,19.42-19.47-23.65-9.42-32.62,9.37-55.09,6.42,4.64-8.89,19.68-10.57,19.42-22.64-13.36,1.94-24.87,11.59-35.61-1.65l25.89-11.29c-12.36,1.19-30.51-.58-32.37-16.22,5.06-4.24,26.07,7.7,29.14-3.22-11.53-3.11-30.96-4.06-32.38-19.46l29.12,6.46c4.82-5.07-25.73-20.36-22.68-30.75,10.61-3.08,25.25,20.88,22.32-1.26-13.42-2.09-20.29-13.58-22.26-26.31l25.88,12.94c3.91-3.82-19.81-22.11-19.33-30.81.8-14.59,21.31,16.23,25.81,11.36,4.67-5.05-11.11-16.08-13.61-23.48-1.74-5.15-3.4-9.81-2.54-15.39,6.06-.92,18.74,20.61,22.63,16.19,2.9-3.29-21.93-25.78-11.34-35.61,3.1,1,18.03,19.8,21.06,16.17,5.73-6.87-7.94-12.24-9.65-15.44-3.16-5.94-3.23-16.57-3.28-23.41,9.81-3.36,12.43,25.24,22.65,16.17,2.07-1.83-21.85-29.13-16.17-38.85l22.63,19.43-12.9-38.89,22.62,19.44c-.79-15.38-17.68-21.23-12.91-38.87,9.89-1.2,11.14,13.33,17.85,16.16,11.29,4.76,6.47-28.36-.21-32.21-1.23-8.5-23.33-12.61-20.86-17.94,3.94-8.52,19.61-2.94,22.35-5.22l6.82-25.61c7.89-5.96,14.85,20.81,12.94,25.93ZM273.04,650.99c-8.63,27.03-23.78,51.08-33.31,78.51-12.91,37.17-25.49,77.03-17.14,116.11,3.24,15.15,13.97,26.42,29.57,28.76,7.26,1.09,37.85,3.29,44.41,2.74,15.34-1.28,30.54-16.09,34.04-30.82,9.17-38.59-3.85-75.43-16.29-111.86-6.56-19.19-20.27-57.47-29.8-73.9-2.8-4.83-4.28-10.82-11.48-9.56ZM311.9,667.22c-5.91-1.1-10.76,3.56-9.69,9.69l9.69-9.69Z"/>
            <path d="M310.89,766.69c-2.92,3.5-11.68,8.15-16.85,13.9-4.15,4.62-15.19,26.78-20.97,22.69-2.64-16.47-40.32-33.61-35.53-49.92l7.43-4.75,32.68,28.66,32.57-29.04c7.27,4.67,5.32,12.89.66,18.47Z"/>
            <path d="M289.92,705.46c1.34,2.35,10.84,2.4,8.97,8.62l-21.23,24.3c-2.46.54-34.59-29.32-19.22-35.47l16.64,15.89,10.87-7.9c.9-10.34-8.76.75-16.1-2.99-15.81-8.07.55-29.14,3.21-40.7,11.62-8.83,15.75,36.32,16.86,38.26ZM279.48,683.41h-6.45v12.93h6.45v-12.93Z"/>
            <path d="M266.52,864.84c-35.86,3.35-40.81-33.73-38.85-61.54,6.23-6.35,20.13,13.48,22.16,18.32,4.47,10.64,2.04,16.76,4.42,24.75,2.15,7.21,13.36,9.55,12.27,18.48Z"/>
            <path d="M324.85,803.31c1.88,24.01-6.02,69.68-38.85,61.52-2.03-9.3,7.12-5.93,10.59-13.62,7.01-15.49,1.33-41.88,28.26-47.91Z"/>
            <path d="M272.69,822.38l-15.9,2.19c-7.75-21.86-35.26-27.9-22.62-53.68,12.79,3.15,45.82,40.04,38.52,51.49Z"/>
            <path d="M247.1,725.53c7.48-5.74,25.22,18.64,30.78,22.61l19.5-22.6c23.23,2.8-19.9,42.8-22.71,42.1-3.15-10.09-38.45-33.77-27.58-42.11Z"/>
            <path d="M313.91,774.42l7.33,5.02c4.86,15.54-23.53,35.27-30.39,49.71l-9.89-9.76c-4.85-9.71,21.97-41.02,32.96-44.98Z"/>
            <path d="M264.09,833.26c13.07-12.57,36.67,1.55,23.36,18.42-13.32,16.88-35.08-7.14-23.36-18.42Z"/>
        </g>
    </g>
</svg>