<?xml version="1.0" encoding="UTF-8"?><svg id="b" xmlns="http://www.w3.org/2000/svg" viewBox="0 0 370.37 400.55"><g id="c"><path d="M31.06,279.08c0-18.71,12.86-34.48,30.45-39.44-9.34-7.39-15.31-18.66-15.31-31.28,0-22.26,18.55-40.31,41.43-40.31,3.44,0,6.78.42,9.98,1.19-3.26-6.28-5.11-13.37-5.11-20.88,0-25.62,21.35-46.39,47.68-46.39,7.68,0,14.92,1.78,21.35,4.91-.31-2.02-.48-4.08-.48-6.19,0-22.68,18.9-41.06,42.2-41.06,12.65,0,24.3,9.6,32.04,18.18.56-22.21,18.92-43.67,41.87-44.22,33.77-.81,35.71,22.54,36.47,18.1,5.4-31.52,54.03-22.51,56.73-50.42.27-2.83-370.08,0-370.08,0C.29,1.26-.36,401.28.29,400.55c25.21-28.31,21.04-16.81,25.21-41.82,1.8-10.81,8.1,2.7,18.01-22.51,9.19-23.4-12.45-34.46-12.45-57.14Z"/></g></svg>