<?xml version="1.0" encoding="UTF-8"?>
<svg xmlns:xlink="http://www.w3.org/1999/xlink" id="q" xmlns="http://www.w3.org/2000/svg" viewBox="0 0 623.54 659.26">
    <defs>
        <symbol id="branch-l" viewBox="0 0 76.93 112.78">
            <path d="M76.39,112.78c.37-4.23.77-8.53.38-13.16-2.89-34.48-14.77-36.05-34.17-59.04-4.23-5.02-6.13-11.85-10.7-17.54C22.78,11.71,7.99,12.08.12,0c-1.6,11.5,13.74,34.16,23.52,38.63,8.08,3.7,20.3.14,21.35,14.88-13.45-5.74-18.62,13.03-7.3,13.88,8.96.67,19.08-11.36,25.19,4.12l-9.76,5.05c.83,9.2,13.41,7.57,15.8,12.38,1.56,3.14,1.98,13.12,1.65,23.81,1.94.01,3.88.02,5.82.04Z"/>
        </symbol>
        <symbol id="branch-r" viewBox="0 0 122.95 166.15">
            <path d="M92.31,137.53l-4.67,28.46c-1.49-.05-3.06-.01-4.61.16,5.71-19.64,4.97-42.75-5.22-57.57-5.01-7.29-12.92-6.65-15.45-14.28,8.19-1.53,13.51,2.56,17.68,8.94,6.7-1.15-19.41-48.62-21.91-52.71l-2.42-1.9c-24.81,20.48-36-18.57-1.39-2.09-4.42-15.82-20.66-16.43-33.43-21.57L0,0c24.57,4.2,39.21,13.51,53.85,33.28,3.51-6.37,4.38-11.01,13.12-10.41,5.2,9.02-4.67,19.37-3.54,25.7,1.54,8.66,16.84,25.76,17.8,36.79,2.7-3.12,14.45-27.92,20.33-14.62,3.52,7.98-7.28,7.77-10.94,11.13-8.08,7.42-.92,27.9-.79,37.87,7.6-9.77,19.37-26.99,33.13-18.41-8.36,17.01-9.73,30.1-30.64,36.2Z"/>
        </symbol>
        <symbol id="bud" viewBox="0 0 64.84 137.79">
            <path d="M10.02,33.66L42.17,0c4.57,11.85,2.5,23,7.09,35.15,6.95,18.39,21.84,31.84,12.7,54.63-1.14,2.84-14.11,23.98-15.51,15.09,14.26-25.9-1.35-52.66-6.17-78.42-1.27-1.09-2.37,1.26-2.49,2.35-2.11,18.97,18.16,41.65,8.21,67.28-5.06,13.03-16.49,18.28-7.16,34.59l2.1-.62c.56,2.43.71,5.04-.52,7.03-.33.53-.5.78-1.31.7-1.78-.18-3.45-1.28-4.84-2.35l.35-.35c-3.85-8.35-1.97-18.72-3.9-26.38-1.6-6.3-6.64-12.08-8.88-18.45-7.94-22.53-5.57-44.41,7.66-64.66-4.92-4.69-6.6,2.57-8.7,6.62-13.67,26.23-6.4,52.05,5.84,76.87C.81,92.36-9.2,60.2,10.02,33.66Z"/>
        </symbol>
        <symbol id="flower" viewBox="0 0 132.96 126.07">
            <path class="bud" d="M92.8,54.29c-.49,1.65-2.34,2.49-3.4,3.73-10.33-11.76-34.27-13.22-34.75,6.64-.32,13.43,12.37,16.68,23.4,14.46,3.39-.68,13.33-7.32,12.66-1.46-3.49,30.2-41.56,24.31-49.39,47.97-3.2,2.7-9.16-7.77-10.39-10.38-6.29-13.39.4-25.67,11-34.49l-19.56-1.16C17.12,77.29.76,63.48.03,58.74c-.96-6.23,20.8-15.74,27.15-15.71l17.03,1.1C28.62,30.05,32.6,11.21,49.23,0c2.78,2.24,1.1,5.29,3,8.28,7.89,12.42,25.23,15.31,33.48,24.87,2.08,2.41,7.61,19.37,7.09,21.13Z"/>
            <path class="vine" d="M116.08,76.1c-5.81-4.99-36.34-18.14-43.74-19.08-15.76-2.02-14.14,14.68,4.67,14.03,5.01-.17,8.8-2.76,13.97-2.14,20.7,2.47,34.93,21.43,37.13,41.26.3,2.7.38,5.42.24,8.13-.09,1.77-1.4,6.5,1.84,6.31,3.3-.19,2.73-9.47,2.72-11.77-.03-4.56-.64-9.12-1.88-13.51-2.56-9.05-7.83-17.11-14.96-23.22Z"/>
        </symbol>
        <symbol id="leaf" viewBox="0 0 64.36 56.58">
            <path d="M0,.78c32.68,3.07,30.56,38.5,45.91,53.01,9.15,8.65,21.19-4.63,17.89-15.4C55.58,11.58,26.91-3.73,0,.78Z"/>
        </symbol>
        <symbol id="double-leafs" viewBox="0 0 118.43 100.72">
            <path d="M78.76,42.3c-7.59,8.21-5.04,13.11-8.7,22.14-.28.7-1.05,2.06-2.06,3.61-.24,1.84-1.25,3.01-2.54,3.59-1.77,2.29-3.66,4.28-4.96,4.64.04-1.63.08-3.26.12-4.89-.42-.23-.82-.51-1.16-.85-1.35-.45-2.52-1.41-2.99-2.8-.23-.68-.46-1.35-.69-2.03-.68-1.67-1.59-3.2-2.65-4.7-11.44-6.36-7.49-21.09-11.16-31.99C37.04,14.42,19.88,2.34,5.06.18c-12.72-1.86,2.43,11.04,3.5,13.01,4.15,7.65,3.08,18.23,10.4,27.14,6.69,8.15,18.51,10.84,24.18,16.87,9.7,10.32,11.83,26.25,12.49,41.54.58.7,1.27,1.28,2,1.69.32.11.63.21.96.29.79-1.02,1.62-2,2.5-2.92-.05-4.19.19-7.77.85-10.24,6.93-26.25,25.4-17.98,38.97-29.29,8.97-7.48,10.4-20.37,17.53-29.04-13.91-1.45-30.06,2.67-39.68,13.07Z"/>
        </symbol>
        <symbol id="lotus" viewBox="0 0 194.56 213.68">
            <g class="petals">
            <g class="petals-2">
                <path d="M66.05,78.49c.62-10.57,7.47-18.8.85-29.27-9.8-15.5-31.37-19.72-46.93-11.74-.28.15-.57.29-.85.43,8.82,1.94,17.01,12.5,20.03,20.17,9.69,24.61,7.84,59.18,42.02,64.76-10.1-11.76-16.02-28.83-15.11-44.35Z"/>
                <path d="M171.89,41.55c-17.83,4.65-18.74,32.04-25.05,47.74-5.95,14.81-15.16,29.4-31.64,33.55-.17-5.03,5-6.53,7.11-10.82,5.57-11.33,7.39-26.76,6.12-39.27-.55-5.42-3.91-10.36-3.88-15.14.07-11.12,15.42-22.51,25.56-23.64,6.34-.7,21.42-.65,21.78,7.58Z"/>
            </g>
            <g class="petals-3">
                <path d="M194.56,96.4c-18.51-8.11-28.63,13.49-39.66,23.65-12.91,11.89-26.12,18.88-43.5,12.25-3.9-3.87,12.68-7.18,15.2-8.4,19.84-9.62,24.92-30.47,30.43-49.91,16.24-2.64,37.65,2.93,37.52,22.41Z"/>
                <path d="M83.05,128.56c5.59,5.71-15.52,5.76-17.79,5.47-23.48-2.94-28.54-26.58-41.98-33.62-5.45-2.85-24.17-2.78-23.24-8.55.11-.68,6.54-10.72,7.36-11.59,6.57-7,20.1-7.3,29.11-6.31,2.63.89,7.83,22.38,10.31,27.49,7.34,15.12,19.35,24.51,36.24,27.1Z"/>
            </g>
            <g class="petals-4">
                <path d="M5.18,53.51c-.62,3.05-1.57,6.02-3.1,8.74,3.18.6,6.85-.5,9.86.42,2.67.82,2.55,5.63,6.7,6.47,4.6.93,11.82-2.51,17.16-1.11-4.26-21.28-15.61-32.49-30.62-14.52Z"/>
                <path d="M130.29,9.45l8.89,21.79-17.37,15.97c-13.2-15.14-10.74-30.48,8.48-37.76Z"/>
                <path d="M75.47,47.25l-18.63-14.57,7.34-23.22c19.2,4.03,17.6,23.08,11.28,37.79Z"/>
                <path d="M192.69,58.57c-8-.04-11.61,6.1-16.44,11.08l-17.57-1.62c.48-20.8,25.1-29.8,34.02-9.46Z"/>
            </g>
            <g class="petals-5">
                <path d="M50.68,29.96c-13.49,3.25-10.43-13.63-4.46-20.51,10.25,3.79,9.21,12.42,4.46,20.51Z"/>
                <path d="M143.64,30.14c-1.48-8.6-5.78-16.63,4.64-20.65,6.05,7.27,8.93,23.46-4.64,20.65Z"/>
                <path d="M111.38,20.78c-3.91,3.63-6.59-9.54-6.63-11.15-.09-3.73,2.65-6.08,2.9-9.63,6.88,1.72,6.68,18.04,3.73,20.78Z"/>
                <path d="M88.72,1.88c1.27,1.88-.53,24.45-5.64,18.92-1.52-7.1-4.15-21.04,5.64-18.92Z"/>
            </g>
            <path class="bud"
                  d="M96.31,5.67c2.9-2.26,6.03,13.36,6.67,15.04,10.87,28.28,34.36,60.91,13.03,90.69-18.33,25.6-41.27,4.55-44.1-19.93-3.82-33.1,17.58-55.51,24.39-85.8Z"/>
            </g>
            <path class="vine stem"
                  d="M94.41,213.59c-2.21-11.44,7.06-22.6,7.64-33.14.62-11.29-6.58-21.6-7.65-32.05-.26-2.56-.86-22.51,4.7-19.85,5.66,4.71.44,10.64,1.33,17.42,1.08,8.2,7.79,20.04,8.94,29.03,1.41,11.05,1.57,40.58-14.96,38.59Z"/>
        </symbol>
        <symbol id="wiggle" viewBox="0 0 76.69 63.61">
            <path d="M50.58,6.55C15.38-17.19-16.98,30.2,10,43.78c14.56,7.33,26.8-20.08,1.76-21.32,11.13-13.04,28.59-13.17,39.29-.08-1.03-1.26-6.39.8-7.59,1.15-3.48,1.03-6,3.34-8.18,6.31-1.24,1.69-2.06,3.79-1.84,5.87.12,1.15.56,2.26,1.1,3.28,1.97,3.68,6.39,8.4,11,7.52,4.18-.8,5.81-5.81,10.08-6.51,3.17-.52,5.89,1.62,7.85,3.86,4.48,5.1,7.73,12.97,8.3,19.74,2.87-.77,3.58-2.66,4.91-4.91-.97-20.18-8.72-40.44-26.11-52.16Z"/>
        </symbol>
        <symbol id="swiggle" viewBox="0 0 48.05 30.07">
            <path d="M46.13,16.51c.29.39.61.69.95.96.31,1.27.63,2.62.97,3.97-2.51,1.25-4.78,2.77-6.88,4.49C33.97,10.54,17.38.92,5.96,18.71l2.52,6.91,9.62-5.69c3.43,11.74-13.37,13.24-17.09,4.73C-3.83,13.54,9.73,3.87,18.04.16c11.72-1.42,21.17,7.02,28.09,16.35Z"/>
        </symbol>
        <symbol id="mango-blossom" viewBox="0 0 206.88 160.11">
            <path d="M75.97,0l14.69,29.39c13.16-1.05,5.8-17.24,2.43-24.48,5.2-5.27,15.12,20.85,14.73,24.46l2.44-19.58c9.23,4.87,11.96,17.15,12.25,26.94l7.29-17.12c11.44,12.83-1.14,32.23.49,39.82,1.4,6.53,13.95,19.86,17.93,26.31,1.21-24.46,18.48-61.79,47.61-40.26,28.82,21.3-6.1,58.92-21.61,31.42-1.63-2.89-6.09-14.63-.31-15.63,7.37,37.7,41.23,4.51,16.5-10.34-24.97-14.99-36.39,18.12-35.82,38.24.37,13.19,16.7,60.92,7.07,70.07-1.4,1.33-5.22,1.75-4.33-3.08,5.38-29.16-.93-47.16-14.82-72.06-1.89-3.39-14.32-24.06-15.59-24.8-10.55-6.19-24.16,10.81-21.61,21.55-13.43-4.26,7.02-26.89,4.9-29.4-12.58,5.22-20.3,15.43-19.6,29.39-7.21-4.78.96-18.24-1.18-24.47-8.87,6.17-13.34,21.86-18.42,31.82-7.98-4.2,4.78-16.5,1.27-22.02-9.37,3.73-9.81,15.93-13.52,24.48l-6.06-14.67-17.2,24.47,3.67-22.03-24.46,17.14c-3.88-10.17,18.29-17.77,17.11-23.24-8.87-8.93-24.17,2.31-31.83-9.85,10.07-2.21,22.12,3.29,29.34-7.34-7.09-5.5-18.31-6.54-17.08-18.37,24.2,13.84,37.95,12.31,9.78-9.78l24.47,7.33-3.66-14.69c4.81,5.3,10.56,10.66,18.38,9.77l-2.41-17.12,19.56,14.68-2.41-26.92ZM104.35,46.62c3.73-.22,8.36,4.2,10.78,1.15-14.65-15.9-49.85-14.43-66.96-3.29-7.49,4.88-19.27,17.64-10.82,25.96,14.97,14.72,47.53-22.66,67.01-23.82Z"/>
        </symbol>
    </defs>
    <use width="76.93" height="112.78" transform="translate(47.46 57)" xlink:href="#branch-l"/>
    <use width="122.95" height="166.15" transform="translate(199)" xlink:href="#branch-r"/>
    <use width="206.88" height="160.11" transform="translate(286.81 141.08) rotate(-35.99)" xlink:href="#mango-blossom"/>
    <use width="64.36" height="56.58" transform="translate(414.96 312.11)" xlink:href="#wiggle"/>
    <use width="64.84" height="137.79" transform="translate(558.71 163.1)" xlink:href="#bud"/>
    <use width="48.05" height="30.07" transform="translate(5 227.32)" xlink:href="#swiggle"/>
    <use width="118.43" height="100.72" transform="translate(0 378.71)" xlink:href="#double-leafs"/>
    <use width="76.69" height="63.61" transform="translate(308.76 312.24)" xlink:href="#leaf"/>
    <use width="132.96" height="126.07" transform="translate(87.39 257.98)" xlink:href="#flower"/>
    <use width="194.56" height="213.68" transform="translate(335.68 445.58)" xlink:href="#lotus"/>
</svg>