<?xml version="1.0" encoding="iso-8859-1"?>
<!-- Generator: Adobe Illustrator 29.8.2, SVG Export Plug-In . SVG Version: 9.03 Build 0)  -->
<svg version="1.1" id="a" xmlns="http://www.w3.org/2000/svg" xmlns:xlink="http://www.w3.org/1999/xlink" x="0px" y="0px"
	 viewBox="0 0 944.445 1009.284" style="enable-background:new 0 0 944.445 1009.284;" xml:space="preserve">
<g>
	<path style="fill:#B2360B;" d="M636.343,676.587c1.55-0.07,2.83-0.38,3.9-0.87C638.943,676.047,637.643,676.337,636.343,676.587z"
		/>
	<path style="fill:#B2360B;" d="M899.263,509.176c-83.99-166.81-221.79-256.55-333.49-395.15c-20.94-25.98-48.21-82.2-70.06-101.28
		c-1.2-1.05-17.4-11.48-18.45-11.8c-14.18-4.29-27.31,6.84-36.92,16.6c-13.6,13.8-20.71,31.47-31.8,45.96
		c-62.24,81.31-127.19,151.76-198.44,224.92c-17.67,18.14-41.19,36.17-57.79,54.53c-8.37,9.27-12.04,22.01-21.29,30.74l-11.6,19.78
		c-102.9,124.7-159.22,303.53-86.61,457.99c7.49,15.94,30.68,57.8,41.27,69.62c16.34,18.23,88.95,66.21,112.15,73.6
		c70.29,22.37,137.69,17.93,205.91-5.83c15.45-7.36,65.07-52.11,77.07-52.83c15.25-0.92,15.53,12.29,27.18,19.22
		c19.37,11.52,78.63,36.65,100.29,40.83c42.26,8.16,149.69,6.24,185.85-17.15c34.52-22.33,70.94-48.31,95.46-83.1
		c83.49-118.48,85.69-258.73,21.28-386.65L899.263,509.176z M891.423,638.006c7.57,9.32-8.28,28.94-8.7,40.79
		c-12.73,11.59-30.34,10.26-46.3,12.71c2.62-11.61,44.84-22.02,43.05-32.76c-1.06-6.34-11.94-8.82-17.94-7.01
		c-6.69,2.02-36.34,33.45-33.85,9.66c1.55-14.8,54.45-34.81,63.74-23.38V638.006z M840.793,726.147
		c-3.99,9.35,2.02,24.44-15.87,22.98c3.26-19.44-0.39-39.01,25.89-37.41C852.143,719.237,842.933,721.127,840.793,726.147
		L840.793,726.147z M876.753,550.426l-11.84,61.6c-2.28,7.11-31.14,18.88-34.23,16.14l31.44-41.33
		c-23.86-31.7-22.92,15.08-41.5,18.35c-5.14,0.51-4.43,0.12-4.46-4.42c-0.16-22.26,36.98-55.15,60.59-50.35V550.426z
		 M834.523,490.196c12.32,3.52,7.77,41.23,2.58,50.83c-1.06,1.97-20.27,20.91-24.18,24.78c-2.5,2.47-7.56,8.39-11.05,4.76
		c-8.05-8.37,32.44-43.97,14.37-53.38c-13.32-6.93-15.91,18.48-24.47,24.54c-5.19-3.75-4.93-5.92-3.08-11.63
		c2.55-7.87,36.93-42.43,45.82-39.89L834.523,490.196z M565.733,799.506c-1.21-6.67,2.97-3.83,7.19-4.22
		c21.44-1.98,45.46-11,58.08-29.06l29.4,12.05l0.21,8.14c-30.43,12.21-63.65,41.84-94.89,13.1L565.733,799.506z M607.003,875.567
		c-4.49,1.26-22.37-5.45-23.73-10.23c-0.98-6.56,11.41-30.88,16-32.39C620.673,825.907,618.093,872.447,607.003,875.567
		L607.003,875.567z M479.303,731.857v-47.52c0-61.03,102.76-143.52,158.2-100.6c40.41,31.29-9.54,80.29-35.59,55.76
		c-19.02-17.91-12.28-56.34-47.53-32.72c-20.38,13.66-51.14,53.44-54.77,77.76C496.822,703.206,513.822,732.516,479.303,731.857
		L479.303,731.857z M401.413,802.486c3.02-18.36,30.35,4.96,31.57,9.02c1.86,6.2-9.33,26.46-17,21.14
		C417.163,817.166,399.223,815.806,401.413,802.486z M339.303,835.676c6.74,1.14,12.39,23.36,13.4,30.1
		c-7.07,19.27-38.92,11.2-14.54-1.48v-4.24C322.273,851.877,323.592,842.597,339.303,835.676L339.303,835.676z M342.843,818.117
		c-6.33-2.83-71.31-24.26-62.26-34.38l26.77-11.24c10.61,13.98,18.5,12.73,31.54,17.7c4.24,1.62,6.39,6.23,9.95,7.33
		c7.05,2.18,16.42-0.2,23.88,0.6c3.62,3.18-22.64,25.81-29.89,20L342.843,818.117z M159.633,567.686
		c3.34-3.61,44.85,17.74,31.63,33.11c-16.48,19.16-27.26-0.44-46.05,1.45C144.622,587.297,164.532,585.406,159.633,567.686
		L159.633,567.686z M223.023,464.016c10.39-2.67,9.94,6.91,16.12,11.21c4.44,3.08,11.96,2.29,15.54,7.58
		c-14.7,29.54-28.24,44.12-49.08,8.58c0-8.28,20.14-15.87,17.42-27.36L223.023,464.016L223.023,464.016z M298.163,372.186
		c7.19-5.17,35.2,16.12,39.22,24.13c-0.45,2.36-1.38,4.57-2.98,6.38c-1.77,2-18.95,15.38-20.71,15.37
		c-8.28-7.84-31.83-11.28-30.45-24.55C283.963,386.546,298.903,382.886,298.163,372.186L298.163,372.186z M297.463,437.047
		c1.54,8.04-21.41,26.48-27.35,32.53c-32.85-18.7-34.07-29.84-4.79-54.21c4.87-1.27,26.85,16.64,32.14,21.67V437.047z
		 M200.963,558.627l-23.69-15.79l11.18-26.98C213.993,523.286,228.483,539.067,200.963,558.627z M173.843,644.327
		c-0.19,26.83-22.43,13.78-40.15,15.55c0.75-6.01-2.82-30.34,4.41-31.71l35.74,16.17V644.327z M133.693,685.766l31.88-1.66
		l1.45,30.66c-34.77,10.09-39.18,6.32-33.33-29.01V685.766z M179.333,755.926c-24.06,29.3-37.04,32.25-42.77-9.65
		C154.873,747.117,172.893,728.387,179.333,755.926z M178.573,795.456c3.27-2.36,4.57-10.31,8.78-11.58
		c9.1-2.75,21.88,19.07,23.75,26.81l-27,25.05c-1.89,0-20.35-19.29-21.75-21.63C151.023,795.087,171.183,800.786,178.573,795.456
		L178.573,795.456z M244.213,872.746l-38.39-14.3C219.023,810.206,274.653,824.736,244.213,872.746z M360.433,677.786
		c8.79-1.8,35.82-1.9,44.14,0.64c6.51,1.99,23.39,19.66,12.75,21.76c-15.75-3.09-26.91-14.65-44.04-9.66
		c-38.18,11.14-66.7,75.29-120.75,86.73c-6.8,1.44-40.83,6.28-41.02-3.64c8.17-7.58,20.6-3.32,31.79-5.59
		c49.35-10.03,73.92-81.4,117.12-90.24H360.433z M343.953,661.317c5.39-5.18,16.67-10.8,20.28-17.16c3.7-6.52,2.42-23.15,9.97-21.83
		c8.09,1.42,41.78,34.14,35.96,40.4c-1.17,1.25-26.25-8.49-33.24-8.23c-9.23,0.34-22.02,13.23-32.96,6.82L343.953,661.317
		L343.953,661.317z M411.393,737.286c-19.78-5.97-38.52,3.84-58.86-3.93l-2.71-9.97c9.62-0.2,17.77-12.04,25.09-13.93
		C388.943,705.837,430.592,717.807,411.393,737.286L411.393,737.286z M231.683,799.536c27.28-17.45,46.91,14.2,71.92,21.64
		c0.74,4.93-6.85,3.07-10,2.81C270.812,822.146,248.742,815.006,231.683,799.536z M368.233,780.986
		c-16.19-3.92-12.25-3.63-25.14-9.4c-3.75-1.68-21.12-7.29-21.79-8.4c-4.78-7.83,8.15-19.68,14.95-19.28
		c4.23,0.25,16.14,8.83,24.2,10.32c8.74,1.61,21.38,1.93,31.06,2.86c4.23,0.41,10.19-5.05,12.59,2.54
		c4.51,14.26-11.37,27.53-24.25,26.74C376.143,786.137,372.773,782.087,368.233,780.986L368.233,780.986z M424.923,777.607
		c0.47-18.75,7.31-33.41,26.55-19.36c13.62,9.95,6.6,20.27-2.77,31.05l-23.78-11.7V777.607z M456.423,733.506
		c-32.03,0.56-14.35-20.49-14.48-37.51c-0.32-43.17-41-95.31-86.18-93.42c-6.01,26.17-10.84,52.01-44.8,45.61
		c-13.64-2.57-26.76-21.09-23.41-34.41c3.86-15.32,14.3-31.85,30.38-36.1c47.63-12.6,118.74,33.17,136.01,77.3
		c10.52,26.88,9.27,50.71,2.48,78.52V733.506z M506.153,398.127l10.46,18.42c-1.92,2.94-3.71,3.7-7.09,4.26
		c-28.07,4.7-56.41-2.3-84.95,0c-0.1-10.61,0.75-18.93,12.8-20.31c22.45-2.57,46.29,2.9,68.77-2.37L506.153,398.127z
		 M467.733,327.047c4.93-3.28,7.31,1.47,9.97,4.67c4.02,4.82,20.57,34.07,23.14,40.23c1.2,2.87,2.13,5.35,1.49,8.52
		c-10.96,6.08-20.85,0.49-30.24,0.6c-6.4,0.08-30.59,7.22-33.1-2.09c-0.89-3.3,24.88-44.97,28.74-51.94V327.047z M531.163,435.246
		c17.85-1.64,34.33-6.06,51.77,1.46c3.53,1.97,3.55,4.57,2.54,8.14c-0.59,2.07-23.34,29.72-26.93,33.62
		c-8.9,9.69-20.84,22.88-33.19,27.29c-5.42,1.94-28.28,8.19-25.88-2.81c16.82-17.89,35.24-41.99,31.68-67.71L531.163,435.246z
		 M434.553,498.696c1.77,3.87,1.97,7.26,1.55,11.39c-42.18,2.75-54.91-39.27-82.21-60.4c-10.07-18.39,40.38-16.79,49.38-11.88
		c5.35,4.37,3.29,13.77,6.2,19.72c5.63,11.51,19.82,29.66,25.07,41.17L434.553,498.696L434.553,498.696z M431.783,455.377
		c-5.42,0-5.42-14.4,0-14.4c20.19,0,53.92-3,72,0c8.02,1.33,8.12,7.26,7.2,14.4H431.783z M446.183,472.607
		c17.26,1.19,32.07,5.53,50.39,0.07c1.82,1.67-3.79,11.41-5.62,13.07c-7.81,7.01-49.17,10.09-49.14-8.73
		c-0.48-4.81-0.21-4.71,4.37-4.4L446.183,472.607L446.183,472.607z M457.753,510.166c8.06-6.64,20.61-2.61,27.52,4.04
		c9.93,14.06-4.63,50.14-11.78,64.99c-18.71-5.33-14.79-22.82-17.89-35.33c-3.5-14.15-13.85-20.52,2.15-33.71L457.753,510.166
		L457.753,510.166z M503.543,564.577c2.86-7.59,5.44-29.85,8.84-34.36c2.39-3.18,17.54-5.04,23.67-8.01
		c24.85-12.04,35.97-39.67,55.51-56.81c7.2-6.31,21.51-8.61,20.38-19.95c-0.9-8.93-26.79-28.36-35.51-31.01
		c-14.31-4.35-29.7-1.16-43.95-4.94c-3.15-5.08-0.07-14.64-1.91-21.2c-1.18-4.2-27.03-47.39-31.64-54.76
		c-4.18-6.67-19.12-30.41-23.73-33.86c-16.76-12.58-19.32,12.12-23.56,20.03c-16.5,30.82-39.53,60.84-47.59,94.98
		c-13.41,2.37-30.73-2.19-43.55,1.08c-2.81,0.72-31.3,23.47-32.37,25.22c-9.8,15.99,8.32,16.44,15.72,21.71
		c27.3,19.43,29.08,45.82,69.46,65.9c5.52,2.74,12.17,0.33,17.25,5.79c7.94,8.54,3.76,25.84,6.85,36.35
		c4.39,14.89,26.56,29.03,21.73,48.8l-36.45-34.08c-9.87-2.37-17.06-11.6-24.83-15.49c-6.14-3.07-48.86-11.35-38.21-25.43
		c3.54-4.68,16.61-0.46,18.74-7.34c-10.11-39.12-40.05-19.85-38.67,13.33c-8.29,10.79-19.23-21.01-18.44-24.28
		c1.04-4.26,10.36-5.83,12.65-10.33c7.3-14.37-11.02-37.03-22.93-20.01c-2.24,3.2-10.54,23.54-10.48,27.24
		c0.12,8.59,17.73,28.51,11.38,38.44c-2.43,3.8-15.61,4.48-20.04-0.81c-10.78-12.87,11.78-10.58,8.57-22.72
		c-1.34-5.07-17.95-20.76-25.08-15.84c-18.32,22.82-8.83,36.4,7.93,55.21c-14.56,9.09-10.52,26.07-17.41,37.5
		c-3.95,6.54-17.98,15.79-23.97,24.99c-8.98,13.81-19.26,35.64,5.11,36.97l28.88-28.32c6.25,4.18,17.6,17.45,24.03,19.33
		c13.11,3.84,25.53-4.18,38.26-0.82c-32.89,19.29-47.59,57.59-81.48,76.92c-16.86,9.62-55.08,21.15-59.46-7.96
		c-1.77-11.75-3.27-36.63-3.22-48.89c0.67-148.53,154.98-266.84,242.09-371.42c5.49-6.59,24.19-39.59,30.51-41.58l8.3,2.78
		l46.04,57.63c69.81,78.08,208.79,203.42,222.97,309.84c2.32,17.45,3.29,66.74-0.26,82.56c-7.38,32.88-52.72,19.9-71.2,6.18
		c-34.58-25.68-51.74-65.77-99.73-75.95c-14.96-3.17-30.24-1.89-44.44,2.68c-1.09-4.79,1.54-5.83,4.36-8.57
		c4.01-3.88,29.59-28.35,31.67-28.84c3.54-0.84,18.88,26.17,25.89,31.65c6.64,5.19,12.02,6.26,17.25,7.29
		c0.46-0.09,0.98-0.11,1.54-0.05c13.16,1.52,26.15,0.47,38.59-3.68c0.09-0.2,0.18-0.41,0.28-0.6c1.41-2.51,14.99-11.96,17.5-17.25
		l34.84,31.25c21.68-2.8,11.49-25.44,2.37-37.18c-7.53-9.69-21.73-15.04-25.83-20.25c-6.42-8.15-10.76-30.66-21.34-39.43
		c-2.37-9.73,17.47-17.31,19.22-28.69c3.18-20.71-13.55-36.06-34.13-27.94c-1.4-17.32-31.77-43.46-36.86-16.86
		c-2.87,14.98,13.71,12.12,13.89,22.27l-11.57,27.4l-8.55,0.04c8.79-20.82-28.15-53.52-38.98-28.7
		c-8.1,18.56,24.5,17.39,18.62,34.26c-11.14,3.81-28.97,9.01-38.71,14.57c-9.19,5.25-34.78,25.34-41.8,33.08
		c-2.85,3.13-10.85,23.52-17.2,18.76c-10.12-7.59,20.1-46.88,24.21-57.83L503.543,564.577z M385.723,339.226l-30.45-26.44
		l30.51-35.97l32.84,27.77c0.76,4.46-26.24,35.05-32.9,34.65V339.226z M501.903,215.317c1.34,6.85-22.92,33.86-30.31,34.98
		c-6.92,0.93-32.74-29.34-32.73-32.52l26.08-44.62c7.19-4.91,28.86,37.91,36.95,42.16H501.903z M495.163,158.756l1.41,11.49h-5.73
		C490.143,164.936,490.732,161.857,495.163,158.756z M512.993,236.817c6.25-3.38,24.09,21.71,24.09,24.2l-27.54,27.41l-21.71-24.56
		l25.16-27.04V236.817z M759.622,607.286c-2.61,0.36-7.1-0.98-8.91-2.85c-4.12-4.28-8.99-26-5.2-31.17
		c2.32-3.17,9.52-2.18,12.96-4.31c5.9-3.64,8.85-13.37,17.48-8.6l17.14,34.42l-33.48,12.51L759.622,607.286z M809.233,651.186
		c-5.62,11.22-31.51,9.86-42.11,7.42l-5.38-31.48l2.58-3.38c8.08,0.39,16.07-5.19,22.39-6.43
		C811.693,612.417,803.592,633.317,809.233,651.186L809.233,651.186z M764.423,538.867l-33.05,17.33
		c-26.43-32.24-14.38-29.23,11.46-51.81c4.43,5.32,25.02,29.61,21.6,34.47L764.423,538.867z M729.943,488.397
		c-0.86,8.31-19.8,20.37-27.13,24.47l-21.6-29.71l24.43-24.72C712.983,456.137,730.743,480.717,729.943,488.397z M636.323,561.186
		c-18.6-4.06-7.45-29.63,4.23-36.69C641.363,543.136,659.893,545.926,636.323,561.186z M589.383,680.817
		c18.81,7.82,42.67,41.52,59.8,55.4c20.58,16.67,50.41,33.81,77.78,30.22c1.22,13.39-29.7,6.4-37.6,4.48
		c-53.91-13.05-65.01-50.01-104.39-74.17c-23.6-14.48-40.57-6.61-65.34-2.34C518.522,667.986,573.633,674.266,589.383,680.817
		L589.383,680.817z M567.833,708.156c6.21,2.06,22.95,11.56,20.73,19.1c-0.61,1.99-8.69,7.48-9.9,7.48c-11.15,0-44.27,2.28-51.84,0
		c-17.21-5.19,11.89-36.22,41-26.58L567.833,708.156L567.833,708.156z M589.463,748.426c4.77-1.64,7.34-8.05,12.23-8.05
		c3.08,0,19.66,12.15,18.73,15.94c-27,21.1-78.8,44.19-89.26-4.27c21.6,1.38,37.31,3.61,58.31-3.61L589.463,748.426z
		 M677.303,790.176c13.95-3.58,44.74,0.71,19.81,11.17c-16.38,6.87-32.37,17.42-50.75,16.9c-4.52-3.96,27.81-25.29,30.95-28.06
		L677.303,790.176z M715.383,819.666c1.71,0.79,22.65,21.67,23,23.27c1.73,7.72-37.51,23.25-45.95,21.43l-8.42-32.69
		c6.74-6.54,22.32-16.2,31.36-12L715.383,819.666z M727.143,807.817l19.12-29.52c46.84,13.44,40.58,23.89,7.68,51.28
		L727.143,807.817z M754.203,757.797c-3.23-6.07,8.89-21.32,11.85-28.48l37.43,8.11c5.89,8.24-2.91,28.72-10.28,33.38
		C787.453,774.436,757.433,763.877,754.203,757.797z M764.823,708.416l0.85-28.58l41.97-4.23l2.86,38.96
		C794.463,715.156,779.543,715.526,764.823,708.416L764.823,708.416z M783.683,429.797c14.46-3.83,16.75,45.62,15.13,55.66
		c-1.79,11.11-30.61,47.75-28.46,17.83c1.3-18.1,29.72-51.01-0.25-49.5l-15.75,33.21c-19.24,0.44,23.6-55.04,29.34-57.21
		L783.683,429.797z M742.883,363.246c4.43-1,6.42,3.4,7.1,7.22c2.64,14.93,4.64,42.8,2.93,57.56c-0.75,6.47-11.28,34.75-18.68,33.1
		c-12.8-2.85,3.18-24.74,4.12-30.36c1.27-7.59,3.28-30.17-9.47-26.84c-12.46,3.25-4.06,26.84-12.01,28.4
		c-6.92,1.36-7.53-8.31-7.34-12.89c0.26-6.65,27.66-54.91,33.37-56.19L742.883,363.246L742.883,363.246z M696.473,320.206
		c2.33,0.63,18.79,40.12,18.69,44.52c-0.16,6.99-15.2,34.7-22.71,38.82c-4.63-17.7,23.52-38.35-1.48-49.05
		c-12.59,3.6-13.95,17.51-12.96,28.88c-5.17,0.87-8.2-2.29-8.73-7.21c-0.9-8.28,13.19-56.58,27.2-55.95L696.473,320.206z
		 M697.973,439.946c1.22,7.31-24.14,21.83-30.04,26.01c-8.65,0.55-22.43-25-27.51-32.2c-0.02-2.47,23.6-20.84,25.21-21.27
		C673.713,410.357,689.872,434.886,697.973,439.946z M641.963,265.236c3.11-2.43,2.48-4.18,5.85,0.04
		c4.19,15.9,16.99,34.55,17.89,50.88c0.19,3.51-10.03,40.84-12.2,41.29c-15.57,3.23,2.98-47.46-7.42-54.42l-12.87,2.43l-1.28,28.95
		c-25.86-0.28,3.99-64.45,10.04-69.17L641.963,265.236L641.963,265.236z M628.223,369.416c3.34-0.95,6.51-1.17,9.5,0.95l20.04,22.88
		c-22.97,22.21-35.18,39.64-51.77,0.16c-0.02-3.89,18.47-22.93,22.23-24L628.223,369.416L628.223,369.416z M617.193,357.147
		c-25.81,14.17-30.73,30.48-51.49-3.91l30.24-24.67C603.703,331.317,622.822,349.267,617.193,357.147L617.193,357.147z
		 M595.983,216.347c13.06,1.92,8.24,15.26,11.35,23.17c3.74,9.52,10.04,10.6,10.47,24.32c0.23,7.6-10.46,49.11-20.4,38.89
		c-2.46-10.37,4.93-17.86,5.88-27.3c3.11-30.9-25.1-27.17-20.31,1.38C562.173,278.826,592.593,217.176,595.983,216.347
		L595.983,216.347z M579.863,307.317c9.29,11.24-18.79,24.22-27.14,31.91c-7.59,0.45-27.8-27.58-32.4-35.09l32.03-27.12
		c11.37,7.27,16.09,17.6,22.92,27.74c0.91,1.35,3.81,1.61,4.6,2.55L579.863,307.317z M528.593,214.847
		c0.56-9.06,23.79-64.73,33.49-39.52c1.5,3.89,11.6,37.03,11.54,39.07c-0.05,1.79-11.24,32.12-12.29,33.57
		c-2.97,4.09-5.62,3.08-10.01,2.92c-4.12-16.33,13.34-27.31,7.26-43.22c-20.57-16.06-16.57,13.87-23.16,17.28
		C530.063,226.767,528.433,217.437,528.593,214.847z M516.883,125.486c13.78,25.72,16.74,40.64-5.87,62.06
		c-0.48-10.27,13.19-36.2-2.04-40.04c-6.72-1.7-8.14,5.88-12.41,4.02C500.062,141.807,505.802,104.807,516.883,125.486z
		 M461.423,55.906c1.61-2.88,3.16-7.44,7.59-6.47c9.59,2.1,22.16,41.53,30.49,50.32l-18.76,30.13
		c-10.22,0.47,9.06-45.68-18.01-30.89l-5.01,28.05c-22.72-19.07-8.05-50.17,3.71-71.14L461.423,55.906z M420.223,106.916
		c11.45,9.9,32.6,54.15,25.99,66.27c-2.13,3.9-3.36,2.9-5.78-0.05c-7.24-8.86-8.9-53.82-24.54-25.93c-4.19,0.72-2.58-1.08-2.85-4.25
		c-0.56-6.58-3.01-38.23,7.17-36.04C420.213,106.916,420.223,106.916,420.223,106.916z M415.913,152.976l11.54,48.95
		c-8.8,1.61-4.39-2.74-6-6.8c-4.75-11.97-11.32-24.58-11.36-37.79C410.072,151.616,410.413,152.726,415.913,152.976L415.913,152.976
		z M426.023,233.666l27.19,24.8c0.83,2.73-14.99,26.25-17.94,28.99c-1.75,1.63-5.56,3.75-7.92,2.51l-28.64-28.99L426.023,233.666
		L426.023,233.666z M378.473,162.966c2.96-2.34,5.7-1.67,8.75-0.04c10.5,5.63,15.82,49.92,18.8,62l-8.85,2.99
		c-1.1-14.67-3.69-24.21-15.88-33.31l-14.28,4.45c-1.6-13.76,2.93-25.56,11.46-36.1L378.473,162.966L378.473,162.966z
		 M368.423,204.877c8,0.19,25.07,48.93,7.23,51.78C377.213,239.707,355.693,220.027,368.423,204.877z M323.803,210.597
		c14.04-14.12,35.58,62.82,34.53,71.97c-15.1-2.55-6.53-38.72-28.92-33.24c-13.74,9.95,27.55,56.88-2.73,62.04
		c3.85-15.59-8.15-33.78-8.15-47.51c0-15.97,13.74-34.07,5.27-53.27L323.803,210.597z M339.973,328.817
		c3.87-1.15,38.3,20.87,30.06,33.09c-19.69,29.21-30.99,8.58-51.99-5.96l21.92-27.13H339.973z M274.703,309.827
		c0.15-6.42,3.81-48.86,5.91-50.27c27.43,4.37,25.55,32.96,28.89,53.14c1.15,6.92,14.47,19.25-2.98,21.72
		c0.44-9.68-8.91-40-23.19-30.36c-7.83,5.29,3.86,17.49,5.25,23.8c0.78,3.54,3.75,25.75,3.53,28.1
		c-0.74,7.87-11.11,14.76-13.93,5.34c-3.58-11.96-3.79-38.35-3.48-51.48L274.703,309.827L274.703,309.827z M257.563,389.127v-11.49
		C269.033,377.707,268.883,389.137,257.563,389.127z M234.523,314.276c6.61-0.49,11.69,4.39,15.17,9.28
		c5.52,7.77,21.64,45.38,2.13,45.42c-2.34-13.35-8.38-19.83-20.45-24.86l3.14-29.84L234.523,314.276z M222.973,356.026l5.72-1.43
		c8.86,11.83,6.69,22.8,9.97,34.7c1.98,7.18,15.11,15.67,3,25.74c-8.2,1.67-6.79-12.82-8.57-17.29
		c-6.66-16.76-12.75-20.38-10.12-41.73L222.973,356.026z M192.823,371.877c18.79,2.22,22.19,29.21,27.9,44
		c3.2,8.27,13.4,10.33,4.93,24.96l-8.39,0.15c-1.97-1.6-4.84-44.07-21.54-40.29c-12.9,3.89,9.65,54.79,7.09,66.19
		c-5.98,7.01-19.22-25.64-19.88-30.47c-1.26-9.3,3.08-62.67,9.9-64.54L192.823,371.877z M142.363,417.956
		c4.66-1.08,5.87,1.62,8.71,4.23c3.78,3.46,33.93,54.5,34.44,57.83c0.85,5.49,0.56,9.34-4.28,12.75
		c-13.91-7.86-7.97-34.7-23.7-36.94c-25.38-3.6,10.44,49.2,10.8,55.96c0.33,6.17-2.84,8.96-7.26,12.66l-24.47-36.2L142.363,417.956z
		 M129.523,513.097c2.34,5.46-2.04,9.72-0.24,14.23c1.62,4.06,12.77,10.92,16.03,15.81c1.15,1.72,9.35,20.86,8.53,21.68
		c-13.51-5.68-18.5-0.76-29.81,5.49l-23.54-22.85c1.75-16.08-3.32-32.28-4.08-47.85C95.293,476.716,126.653,506.416,129.523,513.097
		L129.523,513.097z M119.293,616.647c-3.56,4.14-30.86-37.59-34.69-12.85c-2.42,15.6,20.64,21.26,23.18,35.89
		c-45.04-5.62-34.81-50.43-43.17-83.49c18.26-4.63,65.31,48.1,54.69,60.45L119.293,616.647z M49.393,643.067
		c9.13-2.62,48.62,16.11,55.43,24.08c2.94,3.44,4.86,5.85,1.69,10.16l-16,5.63l8.63,17.22c-24.62-0.6-36.44-14.15-48.41-33.64
		c-4.65-7.57-15.15-19.48-1.35-23.44L49.393,643.067z M104.843,727.536l-24.46-1.68c-9.54-0.81-12.44,7.3-9.63,15.62
		c1.91,5.66,12.64,5.2,11.1,13.4c-11.03,7.45-36.28-25.77-37.17-30.65c-2.81-15.48,53.08-13.03,60.16,3.3V727.536z M53.093,790.827
		c-3.03-14.03,71.99-23.3,60.43-7.16c-3.27,4.57-43.05-1.69-33.25,17.32c4.14,8.04,16.82,5.62,24.6,5.76
		c1.55,11.54-20.46,10.5-25.87,7.14c-2.36-1.47-3.48-6.38-6.07-8.32c-4.12-3.09-19.11-11.28-19.85-14.74L53.093,790.827
		L53.093,790.827z M89.613,855.166c-4.26-2.01-18.3-4.32-19.26-5.26c-8.45-8.34,10.7-2.98,12.28-3.35
		c3.33-0.79,6.62-5.33,10.75-6.71c7.32-2.45,48.52-15.75,51.83-12.92c10.01,8.57-50.29,15.02-34.81,33.35
		c12.28,14.55,26.79-8.71,40.57-4.55c5.39,4.53-19.2,16.27-22.32,16.79C117.613,874.387,100.693,860.396,89.613,855.166
		L89.613,855.166z M127.963,908.946c-1.2-4.12,12.87-19.32,15.76-21.63c2.41-1.92,14.75-9.16,18.03-10.77
		c4.66-2.29,29.41-12.82,29.49-5.01l-28.38,20.58c-3.07,11.27,12.21,11.61,19.75,8.16c4.08-1.87,23.54-27.08,28.83-21.52
		c5.37,5.64-30.09,35.78-33.7,36.84c-7.14,2.09-47.73,0.44-49.79-6.64L127.963,908.946z M210.743,951.466
		c-5.25,2.32-16.67,15.24-23.89,5.16c-3.42-4.78,0.06-6.8,1.43-10.34c2.38-6.13,7.59-18.81,10.5-24.06
		c7.16-12.9,19.75-18.26,27.06-30.52c5.92-2.83,13.07-3.02,17.23,2.88c-46.08,22.26-11.36,57.36,8.75,10.1l5.73,1.44
		c-2.67,26.93-25.53,35.92-46.83,45.34L210.743,951.466z M292.093,946.377c-5.73,3.37-26.28,26.23-31.64,21.64
		c-11.31-12.11,17.77-68.21,27.29-66.23c12.22,2.55-4.68,15.18-5.65,17.31C273.203,938.467,293.483,940.057,292.093,946.377
		L292.093,946.377z M267.403,875.986c-2.74-3.9,7.05-32.66,12.25-34.33c20.43-6.56,27.63,14.54,29.21,30.67
		C310.443,888.416,276.562,881.926,267.403,875.986L267.403,875.986z M364.033,926.206l-33.01,33.17
		c-13.04-12.56-10.7-30-5.51-45.89c2.07-6.35,5.47-10.65,12.66-8.8c1.02,0.86-7.51,19.43-0.19,24.66l11.88-0.05l9.93-24.57
		c6.74,5.21,4.35,14.18,4.25,21.48L364.033,926.206z M366.833,837.127c0.37-4.42,9.83-14.45,13.71-15.55
		c8.17-2.31,17.26,8.63,21.13,15.27c9.49,16.33-10.37,20.55-21.56,27.47l-13.28-27.2V837.127z M436.243,868.807
		c-0.79,10.54-21.51,53.3-28.38,63.77c-6.49,9.88-18.96,14-23.12,1.86c-2.69-7.86-5.15-61.23,13.91-55.67l-2.63,26.91
		c26.65,21.08,14.36-32.2,18.35-41.22c0.82-1.86,14.8-17.92,17.37-17.37c6.09,4.7,5.03,14.7,4.5,21.73V868.807z M474.493,889.966
		c-23.14,7.27-19.79-24.35-21.32-35.48c-1.51-10.99-12.58-31.25,5.96-36.21c-4.81,47.33,28.04,50.94,20.19,2.87l8.88,1.68
		c8.89,11.28-3.43,63.91-13.7,67.14H474.493z M498.743,746.797c11.92-3.09,20.07,14.95,17.64,23.35
		c-0.74,2.54-14.48,13.77-17.01,14.92c-18.75,8.5-25.73-31.75-0.62-38.27L498.743,746.797L498.743,746.797z M526.823,786.627
		l15.46,18.13c-16.86,23.65-26.96,44.83-39.63,4.02L526.823,786.627z M544.033,936.307c-6.08,1.36-12.51-20.83-16.29-26.8
		c-13.06-20.65-25.56-26.46-19.62-56.67c29.48,2.56,13.96,28.64,17.76,41.16c2.41,7.94,16.87,14.75,21.24,4.81
		c2.88-4.65-1.13-9.14-1.39-13.27c-0.76-11.79,11.26-13.01,13.75-4.88c4.94,16.12,1.34,46.31-15.44,55.66L544.033,936.307z
		 M561.433,861.147l-27.4-15.57c-1.22-5.08,8.14-7.47,11.18-11.82c3.69-5.27,2.89-15.14,10.8-18c27.4,6.25,15.98,28.67,5.42,45.38
		L561.433,861.147L561.433,861.147z M614.622,956.496c-9.17,0.81-9.37-10.61-14.3-15.89c-5.93-6.35-20.26-11.9-23.94-19.44
		c-4.08-8.36,2.99-18.92,0.86-28.01c16.34,0.55,1.83,29.96,18.75,31.83c20.68,2.29,3.68-24.32,4.27-27.46
		c1.34-7.15,9.07-4.03,12.77,1.58c10.07,15.29,9.59,41.39,1.61,57.38L614.622,956.496z M631.933,838.406
		c6.05-0.38,12.63,0.88,18.6-0.13c5.77-0.97,13.82-8.88,17.5-2.83c2.47,4.05,5.14,36.63,0.1,40.73c-1.73,1.41-22.82,2.36-25.48,1.97
		c-17.41-2.54-8.9-26.87-10.73-39.75L631.933,838.406z M678.093,958.006c-6.41,4.94-11.29-10.84-17.53-14.29
		c-10-5.52-24.06-2.15-22.84-21.77l20.13,5.75l-2.85-31.67c11.5-1.95,16.98,12.04,20.77,20.96c4.1,9.64,12.02,33.55,2.33,41.01
		L678.093,958.006z M761.553,946.357c-2.2,10.82-18.12-2.18-22.23-3.63c-10.87-3.84-29.11-5.5-36.5-9.58
		c-10.66-5.89-14.11-28.89-19.01-40c14.3,4.32,20.54,36.35,35.62,31.45c18.74-6.09-14.36-32.06-15.54-38.62
		c-1.5-8.37,8.8-3.34,12.62-1.08C726.793,890.986,763.363,937.486,761.553,946.357L761.553,946.357z M766.183,909.726l-36.32-36.71
		c14.91-0.61,30.61,28.62,46.18,18.79c14.92-9.42-26.39-25.64-28.87-31.82c-1.46-6.78,5.83-4.75,9.45-3.68
		c6.92,2.03,35.2,19.12,42.09,24.15c37.38,27.29-11.43,20.15-32.53,29.28V909.726z M812.113,864.246
		c-4.39-0.3-48.52-20.01-41.92-25.81l46.17,13.13c12.03-22.94-19.71-15.76-28.84-28.98c-0.04-10.09,42.23,1.45,48.04,3.74
		c6.66,2.63,18.92,9.38,21.2,16.4C856.813,848.636,818.533,864.686,812.113,864.246L812.113,864.246z M887.543,782.317
		c-0.15,2.01-28.04,24.56-31.09,25.8c-7.38,2.99-34.04-3.77-34.37-8.57c-0.45-6.5,23.09,0.12,30.93-3.59
		c10.2-4.81,10.11-16.48-3.49-18.15c-10.28-1.26-42.27,9.62-33.3-7.1c5.45-1.26,11.18-2.76,16.71-3.45
		C844.212,765.847,888.882,764.627,887.543,782.317L887.543,782.317z M853.713,737.637c12.42,1.68,21.02-1.31,16.75-15.27
		c-1.62-5.28-9.39-6.85-8.11-13.53c12.37-0.05,26.24-9.16,34.4,4.65C897.282,716.797,856.522,765.266,853.713,737.637
		L853.713,737.637z"/>
	<path style="fill:#B2360B;" d="M616.703,596.956c16.71-5.01,32.44,14.9,16.38,25.16
		C609.972,636.876,597.342,602.756,616.703,596.956z"/>
	<path style="fill:#B2360B;" d="M322.743,590.946c17.94,7.69,24.41,26.19,5.52,37.38c-8.84,5.23-17.05,1.19-21.89-7.21
		c-8.22-14.23,7.54-20.69,16.38-30.17H322.743z"/>
</g>
</svg>
