<?xml version="1.0" encoding="UTF-8"?>
<svg xmlns:xlink="http://www.w3.org/1999/xlink" id="l" xmlns="http://www.w3.org/2000/svg" viewBox="0 0 100 100">

    <defs>
        <style>
            @keyframes kaboom {
                90% {
                    transform: scale(0.9);
                }
                100% {
                    transform: scale(1);
                }
            }

            @keyframes hideshow {
                0% { opacity: 0.0; }
                10% { opacity: 0.0; }
                15% { opacity: 0.9; }
                100% { opacity: 1.0; }
            }

            #petal {
                fill: pink;
                transition: 5 0.5s ease;
            }

            #lotus .stem {
                fill: green;
                animation: kaboom 5s ease forwards;
                animation-delay: 0;
            }


            #lotus .petals path {
                fill: white;
                animation: hideshow 6s ease forwards;
                animation-delay: 1s;
            }

            #lotus .petals path.petal-2 {
                animation-delay: 3s;
            }

            #lotus .petals path.petal-3 {
                animation-delay: 6s;
            }

            #lotus .petals path.petal-3 {
                animation-delay: 9s;
            }
        </style>
        <symbol id="lotus" viewBox="0 0 333.55 366.34">
            <path class="stem" d="M161.85,366.17c-3.79-19.61,12.1-38.74,13.1-56.82,1.07-19.36-11.29-37.03-13.12-54.95-.45-4.38-1.47-38.59,8.05-34.03,9.71,8.07.75,18.23,2.28,29.87,1.85,14.06,13.36,34.36,15.33,49.76,2.41,18.94,2.69,69.56-25.64,66.16Z"/>
            <g class="petals">
                <path class="bud" d="M165.11,9.72c4.96-3.87,10.33,22.91,11.44,25.78,18.64,48.49,58.9,104.42,22.34,155.47-31.42,43.88-70.75,7.8-75.6-34.16-6.55-56.74,30.14-95.16,41.82-147.09Z"/>
                <path class="petal-2 left" d="M113.24,134.56c1.07-18.13,12.81-32.23,1.45-50.18-13.2-20.87-42.63-33.08-66.25-22.83v-4c-4.95,1.71-9.64,4.35-14.2,6.69-.49.25-.97.49-1.46.74,15.11,3.33,29.16,21.43,34.34,34.57,16.61,42.19,13.43,101.46,72.03,111.02-17.31-20.17-27.47-49.42-25.91-76.03Z"/>
                <path class="petal-2 right" d="M294.69,71.24c-30.57,7.98-32.12,54.92-42.95,81.85-10.21,25.39-26,50.4-54.25,57.52-.3-8.62,8.58-11.2,12.2-18.56,9.55-19.42,12.66-45.88,10.49-67.33-.94-9.3-6.71-17.75-6.65-25.95.13-19.06,26.43-38.59,43.82-40.52,10.87-1.21,36.72-1.12,37.33,12.99Z"/>
                <path class="petal-2 right" d="M333.55,165.26c-31.73-13.9-49.08,23.13-67.99,40.54-22.13,20.38-44.77,32.37-74.57,21-6.68-6.63,21.73-12.31,26.06-14.41,34.02-16.49,42.73-52.24,52.17-85.56,27.84-4.52,64.55,5.03,64.32,38.43Z"/>
                <path class="petal-2 left" d="M142.38,220.39c9.58,9.79-26.6,9.87-30.5,9.38-40.26-5.04-48.93-45.56-71.98-57.63-9.34-4.89-41.43-4.76-39.85-14.66.19-1.16,11.22-18.38,12.62-19.87,11.27-12,34.46-12.51,49.91-10.82,4.5,1.53,13.42,38.37,17.67,47.13,12.58,25.93,33.18,42.03,62.13,46.47Z"/>
                <path class="petal-3 left" d="M8.87,91.74c-1.06,5.23-2.69,10.31-5.32,14.98,5.45,1.03,11.74-.86,16.91.73,4.58,1.41,4.37,9.65,11.49,11.09,7.88,1.6,20.26-4.31,29.42-1.9-7.3-36.49-26.76-55.69-52.5-24.89Z"/>
                <path class="petal-3 right top" d="M223.36,16.2l15.24,37.35-29.77,27.39c-22.63-25.96-18.4-52.25,14.54-64.74Z"/>
                <path class="petal-3 left top" d="M129.38,81l-31.93-24.99,12.59-39.81c32.91,6.91,30.17,39.56,19.34,64.79Z"/>
                <path class="petal-3 right" d="M330.34,100.42c-13.72-.07-19.91,10.45-28.19,18.99l-30.13-2.77c.82-35.66,43.03-51.09,58.32-16.22Z"/>
                <path class="petal-4 left" d="M86.89,51.37c-23.13,5.58-17.88-23.37-7.65-35.16,17.57,6.5,15.79,21.29,7.65,35.16Z"/>
                <path class="petal-4 right" d="M246.26,51.67c-2.54-14.75-9.92-28.51,7.95-35.4,10.38,12.47,15.32,40.21-7.95,35.4Z"/>
                <path class="petal-4 right top" d="M190.95,35.63c-6.71,6.23-11.3-16.35-11.36-19.11-.15-6.39,4.55-10.42,4.97-16.52,11.79,2.94,11.45,30.93,6.39,35.63Z"/>
                <path class="petal-4 left top" d="M152.1,3.21c2.18,3.22-.9,41.92-9.67,32.43-2.61-12.17-7.12-36.07,9.67-32.43Z"/>
            </g>
        </symbol>

        <symbol id="flower-bloom" viewBox="0 0 100 100">
            <path d="M50 100 Q50 80 50 70" stroke="green" fill="none" />

            <g class="bud-layer">
                <path id="petal" d="M50 70 C60 60 60 40 50 30 C40 40 40 60 50 70" fill="currentColor" />
            </g>

            <g class="partial-layer" style="--rotation: 45deg">
                <use href="#petal" transform="rotate(45 50 70)" />
                <use href="#petal" transform="rotate(-45 50 70)" />
            </g>

            <g class="full-layer">
                <use href="#petal" transform="rotate(90 50 70)" />
                <use href="#petal" transform="rotate(-90 50 70)" />
            </g>
        </symbol>
    </defs>
    <g id="test">
        <use xlink:href="#lotus"/>
    </g>
</svg>