<?xml version="1.0" encoding="UTF-8"?>
<svg xmlns:xlink="http://www.w3.org/1999/xlink" id="c" xmlns="http://www.w3.org/2000/svg" viewBox="0 0 944.44 1009.28">
    <defs>
        <style></style>
        <symbol id="heart" viewBox="0 0 944.44 1009.28">
            <path d="M636.34,676.58c1.55-.07,2.83-.38,3.9-.87-1.3.33-2.6.62-3.9.87Z"/>
            <path d="M899.26,509.17c-83.99-166.81-221.79-256.55-333.49-395.15-20.94-25.98-48.21-82.2-70.06-101.28-1.2-1.05-17.4-11.48-18.45-11.8-14.18-4.29-27.31,6.84-36.92,16.6-13.6,13.8-20.71,31.47-31.8,45.96-62.24,81.31-127.19,151.76-198.44,224.92-17.67,18.14-41.19,36.17-57.79,54.53-8.37,9.27-12.04,22.01-21.29,30.74l-11.6,19.78c-102.9,124.7-159.22,303.53-86.61,457.99,7.49,15.94,30.68,57.8,41.27,69.62,16.34,18.23,88.95,66.21,112.15,73.6,70.29,22.37,137.69,17.93,205.91-5.83,15.45-7.36,65.07-52.11,77.07-52.83,15.25-.92,15.53,12.29,27.18,19.22,19.37,11.52,78.63,36.65,100.29,40.83,42.26,8.16,149.69,6.24,185.85-17.15,34.52-22.33,70.94-48.31,95.46-83.1,83.49-118.48,85.69-258.73,21.28-386.65ZM891.42,638c7.57,9.32-8.28,28.94-8.7,40.79-12.73,11.59-30.34,10.26-46.3,12.71,2.62-11.61,44.84-22.02,43.05-32.76-1.06-6.34-11.94-8.82-17.94-7.01-6.69,2.02-36.34,33.45-33.85,9.66,1.55-14.8,54.45-34.81,63.74-23.38ZM840.79,726.15c-3.99,9.35,2.02,24.44-15.87,22.98,3.26-19.44-.39-39.01,25.89-37.41,1.33,7.52-7.88,9.41-10.02,14.43ZM876.75,550.42l-11.84,61.6c-2.28,7.11-31.14,18.88-34.23,16.14l31.44-41.33c-23.86-31.7-22.92,15.08-41.5,18.35-5.14.51-4.43.12-4.46-4.42-.16-22.26,36.98-55.15,60.59-50.35ZM834.52,490.2c12.32,3.52,7.77,41.23,2.58,50.83-1.06,1.97-20.27,20.91-24.18,24.78-2.5,2.47-7.56,8.39-11.05,4.76-8.05-8.37,32.44-43.97,14.37-53.38-13.32-6.93-15.91,18.48-24.47,24.54-5.19-3.75-4.93-5.92-3.08-11.63,2.55-7.87,36.93-42.43,45.82-39.89ZM565.72,799.5c-1.21-6.67,2.97-3.83,7.19-4.22,21.44-1.98,45.46-11,58.08-29.06l29.4,12.05.21,8.14c-30.43,12.21-63.65,41.84-94.89,13.1ZM607,875.56c-4.49,1.26-22.37-5.45-23.73-10.23-.98-6.56,11.41-30.88,16-32.39,21.4-7.04,18.82,39.5,7.73,42.62ZM479.3,731.86v-47.52c0-61.03,102.76-143.52,158.2-100.6,40.41,31.29-9.54,80.29-35.59,55.76-19.02-17.91-12.28-56.34-47.53-32.72-20.38,13.66-51.14,53.44-54.77,77.76-2.79,18.67,14.21,47.98-20.31,47.32ZM401.41,802.49c3.02-18.36,30.35,4.96,31.57,9.02,1.86,6.2-9.33,26.46-17,21.14,1.18-15.48-16.76-16.84-14.57-30.16ZM339.3,835.67c6.74,1.14,12.39,23.36,13.4,30.1-7.07,19.27-38.92,11.2-14.54-1.48v-4.24c-15.89-8.18-14.57-17.46,1.14-24.38ZM342.84,818.11c-6.33-2.83-71.31-24.26-62.26-34.38l26.77-11.24c10.61,13.98,18.5,12.73,31.54,17.7,4.24,1.62,6.39,6.23,9.95,7.33,7.05,2.18,16.42-.2,23.88.6,3.62,3.18-22.64,25.81-29.89,20ZM159.63,567.68c3.34-3.61,44.85,17.74,31.63,33.11-16.48,19.16-27.26-.44-46.05,1.45-.59-14.95,19.32-16.84,14.42-34.56ZM223.01,464.02c10.39-2.67,9.94,6.91,16.12,11.21,4.44,3.08,11.96,2.29,15.54,7.58-14.7,29.54-28.24,44.12-49.08,8.58,0-8.28,20.14-15.87,17.42-27.36ZM298.16,372.18c7.19-5.17,35.2,16.12,39.22,24.13-.45,2.36-1.38,4.57-2.98,6.38-1.77,2-18.95,15.38-20.71,15.37-8.28-7.84-31.83-11.28-30.45-24.55.72-6.97,15.66-10.63,14.92-21.33ZM297.46,437.05c1.54,8.04-21.41,26.48-27.35,32.53-32.85-18.7-34.07-29.84-4.79-54.21,4.87-1.27,26.85,16.64,32.14,21.67ZM200.95,558.62l-23.69-15.79,11.18-26.98c25.54,7.43,40.03,23.21,12.51,42.77ZM173.84,644.33c-.19,26.83-22.43,13.78-40.15,15.55.75-6.01-2.82-30.34,4.41-31.71l35.74,16.17ZM133.68,685.76l31.88-1.66,1.45,30.66c-34.77,10.09-39.18,6.32-33.33-29.01ZM179.33,755.92c-24.06,29.3-37.04,32.25-42.77-9.65,18.31.84,36.33-17.89,42.77,9.65ZM178.57,795.45c3.27-2.36,4.57-10.31,8.78-11.58,9.1-2.75,21.88,19.07,23.75,26.81l-27,25.05c-1.89,0-20.35-19.29-21.75-21.63-11.33-19.02,8.83-13.32,16.22-18.65ZM244.21,872.74l-38.39-14.3c13.2-48.24,68.83-33.71,38.39,14.3ZM360.43,677.79c8.79-1.8,35.82-1.9,44.14.64,6.51,1.99,23.39,19.66,12.75,21.76-15.75-3.09-26.91-14.65-44.04-9.66-38.18,11.14-66.7,75.29-120.75,86.73-6.8,1.44-40.83,6.28-41.02-3.64,8.17-7.58,20.6-3.32,31.79-5.59,49.35-10.03,73.92-81.4,117.12-90.24ZM343.95,661.31c5.39-5.18,16.67-10.8,20.28-17.16,3.7-6.52,2.42-23.15,9.97-21.83,8.09,1.42,41.78,34.14,35.96,40.4-1.17,1.25-26.25-8.49-33.24-8.23-9.23.34-22.02,13.23-32.96,6.82ZM411.39,737.28c-19.78-5.97-38.52,3.84-58.86-3.93l-2.71-9.97c9.62-.2,17.77-12.04,25.09-13.93,14.03-3.62,55.68,8.35,36.48,27.83ZM231.68,799.54c27.28-17.45,46.91,14.2,71.92,21.64.74,4.93-6.85,3.07-10,2.81-22.79-1.84-44.86-8.98-61.92-24.45ZM368.23,780.99c-16.19-3.92-12.25-3.63-25.14-9.4-3.75-1.68-21.12-7.29-21.79-8.4-4.78-7.83,8.15-19.68,14.95-19.28,4.23.25,16.14,8.83,24.2,10.32,8.74,1.61,21.38,1.93,31.06,2.86,4.23.41,10.19-5.05,12.59,2.54,4.51,14.26-11.37,27.53-24.25,26.74-3.71-.23-7.08-4.28-11.62-5.38ZM424.92,777.6c.47-18.75,7.31-33.41,26.55-19.36,13.62,9.95,6.6,20.27-2.77,31.05l-23.78-11.7ZM456.41,733.5c-32.03.56-14.35-20.49-14.48-37.51-.32-43.17-41-95.31-86.18-93.42-6.01,26.17-10.84,52.01-44.8,45.61-13.64-2.57-26.76-21.09-23.41-34.41,3.86-15.32,14.3-31.85,30.38-36.1,47.63-12.6,118.74,33.17,136.01,77.3,10.52,26.88,9.27,50.71,2.48,78.52ZM506.15,398.12l10.46,18.42c-1.92,2.94-3.71,3.7-7.09,4.26-28.07,4.7-56.41-2.3-84.95,0-.1-10.61.75-18.93,12.8-20.31,22.45-2.57,46.29,2.9,68.77-2.37ZM467.73,327.04c4.93-3.28,7.31,1.47,9.97,4.67,4.02,4.82,20.57,34.07,23.14,40.23,1.2,2.87,2.13,5.35,1.49,8.52-10.96,6.08-20.85.49-30.24.6-6.4.08-30.59,7.22-33.1-2.09-.89-3.3,24.88-44.97,28.74-51.94ZM531.16,435.24c17.85-1.64,34.33-6.06,51.77,1.46,3.53,1.97,3.55,4.57,2.54,8.14-.59,2.07-23.34,29.72-26.93,33.62-8.9,9.69-20.84,22.88-33.19,27.29-5.42,1.94-28.28,8.19-25.88-2.81,16.82-17.89,35.24-41.99,31.68-67.71ZM434.55,498.69c1.77,3.87,1.97,7.26,1.55,11.39-42.18,2.75-54.91-39.27-82.21-60.4-10.07-18.39,40.38-16.79,49.38-11.88,5.35,4.37,3.29,13.77,6.2,19.72,5.63,11.51,19.82,29.66,25.07,41.17ZM431.78,455.38c-5.42,0-5.42-14.4,0-14.4,20.19,0,53.92-3,72,0,8.02,1.33,8.12,7.26,7.2,14.4h-79.2ZM446.18,472.61c17.26,1.19,32.07,5.53,50.39.07,1.82,1.67-3.79,11.41-5.62,13.07-7.81,7.01-49.17,10.09-49.14-8.73-.48-4.81-.21-4.71,4.37-4.4ZM457.75,510.16c8.06-6.64,20.61-2.61,27.52,4.04,9.93,14.06-4.63,50.14-11.78,64.99-18.71-5.33-14.79-22.82-17.89-35.33-3.5-14.15-13.85-20.52,2.15-33.71ZM503.53,564.57c2.86-7.59,5.44-29.85,8.84-34.36,2.39-3.18,17.54-5.04,23.67-8.01,24.85-12.04,35.97-39.67,55.51-56.81,7.2-6.31,21.51-8.61,20.38-19.95-.9-8.93-26.79-28.36-35.51-31.01-14.31-4.35-29.7-1.16-43.95-4.94-3.15-5.08-.07-14.64-1.91-21.2-1.18-4.2-27.03-47.39-31.64-54.76-4.18-6.67-19.12-30.41-23.73-33.86-16.76-12.58-19.32,12.12-23.56,20.03-16.5,30.82-39.53,60.84-47.59,94.98-13.41,2.37-30.73-2.19-43.55,1.08-2.81.72-31.3,23.47-32.37,25.22-9.8,15.99,8.32,16.44,15.72,21.71,27.3,19.43,29.08,45.82,69.46,65.9,5.52,2.74,12.17.33,17.25,5.79,7.94,8.54,3.76,25.84,6.85,36.35,4.39,14.89,26.56,29.03,21.73,48.8l-36.45-34.08c-9.87-2.37-17.06-11.6-24.83-15.49-6.14-3.07-48.86-11.35-38.21-25.43,3.54-4.68,16.61-.46,18.74-7.34-10.11-39.12-40.05-19.85-38.67,13.33-8.29,10.79-19.23-21.01-18.44-24.28,1.04-4.26,10.36-5.83,12.65-10.33,7.3-14.37-11.02-37.03-22.93-20.01-2.24,3.2-10.54,23.54-10.48,27.24.12,8.59,17.73,28.51,11.38,38.44-2.43,3.8-15.61,4.48-20.04-.81-10.78-12.87,11.78-10.58,8.57-22.72-1.34-5.07-17.95-20.76-25.08-15.84-18.32,22.82-8.83,36.4,7.93,55.21-14.56,9.09-10.52,26.07-17.41,37.5-3.95,6.54-17.98,15.79-23.97,24.99-8.98,13.81-19.26,35.64,5.11,36.97l28.88-28.32c6.25,4.18,17.6,17.45,24.03,19.33,13.11,3.84,25.53-4.18,38.26-.82-32.89,19.29-47.59,57.59-81.48,76.92-16.86,9.62-55.08,21.15-59.46-7.96-1.77-11.75-3.27-36.63-3.22-48.89.67-148.53,154.98-266.84,242.09-371.42,5.49-6.59,24.19-39.59,30.51-41.58l8.3,2.78,46.04,57.63c69.81,78.08,208.79,203.42,222.97,309.84,2.32,17.45,3.29,66.74-.26,82.56-7.38,32.88-52.72,19.9-71.2,6.18-34.58-25.68-51.74-65.77-99.73-75.95-14.96-3.17-30.24-1.89-44.44,2.68-1.09-4.79,1.54-5.83,4.36-8.57,4.01-3.88,29.59-28.35,31.67-28.84,3.54-.84,18.88,26.17,25.89,31.65,6.64,5.19,12.02,6.26,17.25,7.29.46-.09.98-.11,1.54-.05,13.16,1.52,26.15.47,38.59-3.68.09-.2.18-.41.28-.6,1.41-2.51,14.99-11.96,17.5-17.25l34.84,31.25c21.68-2.8,11.49-25.44,2.37-37.18-7.53-9.69-21.73-15.04-25.83-20.25-6.42-8.15-10.76-30.66-21.34-39.43-2.37-9.73,17.47-17.31,19.22-28.69,3.18-20.71-13.55-36.06-34.13-27.94-1.4-17.32-31.77-43.46-36.86-16.86-2.87,14.98,13.71,12.12,13.89,22.27l-11.57,27.4-8.55.04c8.79-20.82-28.15-53.52-38.98-28.7-8.1,18.56,24.5,17.39,18.62,34.26-11.14,3.81-28.97,9.01-38.71,14.57-9.19,5.25-34.78,25.34-41.8,33.08-2.85,3.13-10.85,23.52-17.2,18.76-10.12-7.59,20.1-46.88,24.21-57.83ZM385.72,339.22l-30.45-26.44,30.51-35.97,32.84,27.77c.76,4.46-26.24,35.05-32.9,34.65ZM501.9,215.31c1.34,6.85-22.92,33.86-30.31,34.98-6.92.93-32.74-29.34-32.73-32.52l26.08-44.62c7.19-4.91,28.86,37.91,36.95,42.16ZM495.15,158.75l1.41,11.49h-5.73c-.7-5.31-.11-8.39,4.32-11.49ZM512.99,236.82c6.25-3.38,24.09,21.71,24.09,24.2l-27.54,27.41-21.71-24.56,25.16-27.04ZM759.62,607.28c-2.61.36-7.1-.98-8.91-2.85-4.12-4.28-8.99-26-5.2-31.17,2.32-3.17,9.52-2.18,12.96-4.31,5.9-3.64,8.85-13.37,17.48-8.6l17.14,34.42-33.48,12.51ZM809.22,651.19c-5.62,11.22-31.51,9.86-42.11,7.42l-5.38-31.48,2.58-3.38c8.08.39,16.07-5.19,22.39-6.43,24.98-4.9,16.88,16,22.52,33.87ZM764.41,538.86l-33.05,17.33c-26.43-32.24-14.38-29.23,11.46-51.81,4.43,5.32,25.02,29.61,21.6,34.47ZM729.94,488.39c-.86,8.31-19.8,20.37-27.13,24.47l-21.6-29.71,24.43-24.72c7.34-2.3,25.1,22.28,24.3,29.96ZM636.32,561.18c-18.6-4.06-7.45-29.63,4.23-36.69.81,18.64,19.34,21.43-4.23,36.69ZM589.38,680.82c18.81,7.82,42.67,41.52,59.8,55.4,20.58,16.67,50.41,33.81,77.78,30.22,1.22,13.39-29.7,6.4-37.6,4.48-53.91-13.05-65.01-50.01-104.39-74.17-23.6-14.48-40.57-6.61-65.34-2.34-1.11-26.42,54-20.14,69.75-13.59ZM567.82,708.16c6.21,2.06,22.95,11.56,20.73,19.1-.61,1.99-8.69,7.48-9.9,7.48-11.15,0-44.27,2.28-51.84,0-17.21-5.19,11.89-36.22,41-26.58ZM589.46,748.42c4.77-1.64,7.34-8.05,12.23-8.05,3.08,0,19.66,12.15,18.73,15.94-27,21.1-78.8,44.19-89.26-4.27,21.6,1.38,37.31,3.61,58.31-3.61ZM677.3,790.18c13.95-3.58,44.74.71,19.81,11.17-16.38,6.87-32.37,17.42-50.75,16.9-4.52-3.96,27.81-25.29,30.95-28.06ZM715.38,819.66c1.71.79,22.65,21.67,23,23.27,1.73,7.72-37.51,23.25-45.95,21.43l-8.42-32.69c6.74-6.54,22.32-16.2,31.36-12ZM727.14,807.81l19.12-29.52c46.84,13.44,40.58,23.89,7.68,51.28l-26.8-21.76ZM754.2,757.79c-3.23-6.07,8.89-21.32,11.85-28.48l37.43,8.11c5.89,8.24-2.91,28.72-10.28,33.38-5.75,3.63-35.77-6.93-39-13.01ZM764.82,708.41l.85-28.58,41.97-4.23,2.86,38.96c-16.04.59-30.96.96-45.68-6.15ZM783.68,429.79c14.46-3.83,16.75,45.62,15.13,55.66-1.79,11.11-30.61,47.75-28.46,17.83,1.3-18.1,29.72-51.01-.25-49.5l-15.75,33.21c-19.24.44,23.6-55.04,29.34-57.21ZM742.88,363.24c4.43-1,6.42,3.4,7.1,7.22,2.64,14.93,4.64,42.8,2.93,57.56-.75,6.47-11.28,34.75-18.68,33.1-12.8-2.85,3.18-24.74,4.12-30.36,1.27-7.59,3.28-30.17-9.47-26.84-12.46,3.25-4.06,26.84-12.01,28.4-6.92,1.36-7.53-8.31-7.34-12.89.26-6.65,27.66-54.91,33.37-56.19ZM696.47,320.21c2.33.63,18.79,40.12,18.69,44.52-.16,6.99-15.2,34.7-22.71,38.82-4.63-17.7,23.52-38.35-1.48-49.05-12.59,3.6-13.95,17.51-12.96,28.88-5.17.87-8.2-2.29-8.73-7.21-.9-8.28,13.19-56.58,27.2-55.95ZM697.97,439.94c1.22,7.31-24.14,21.83-30.04,26.01-8.65.55-22.43-25-27.51-32.2-.02-2.47,23.6-20.84,25.21-21.27,8.08-2.13,24.24,22.4,32.34,27.46ZM641.96,265.23c3.11-2.43,2.48-4.18,5.85.04,4.19,15.9,16.99,34.55,17.89,50.88.19,3.51-10.03,40.84-12.2,41.29-15.57,3.23,2.98-47.46-7.42-54.42l-12.87,2.43-1.28,28.95c-25.86-.28,3.99-64.45,10.04-69.17ZM628.22,369.41c3.34-.95,6.51-1.17,9.5.95l20.04,22.88c-22.97,22.21-35.18,39.64-51.77.16-.02-3.89,18.47-22.93,22.23-24ZM617.18,357.14c-25.81,14.17-30.73,30.48-51.49-3.91l30.24-24.67c7.76,2.75,26.88,20.7,21.25,28.58ZM595.97,216.34c13.06,1.92,8.24,15.26,11.35,23.17,3.74,9.52,10.04,10.6,10.47,24.32.23,7.6-10.46,49.11-20.4,38.89-2.46-10.37,4.93-17.86,5.88-27.3,3.11-30.9-25.1-27.17-20.31,1.38-20.8,2.02,9.62-59.63,13.01-60.46ZM579.86,307.31c9.29,11.24-18.79,24.22-27.14,31.91-7.59.45-27.8-27.58-32.4-35.09l32.03-27.12c11.37,7.27,16.09,17.6,22.92,27.74.91,1.35,3.81,1.61,4.6,2.55ZM528.58,214.85c.56-9.06,23.79-64.73,33.49-39.52,1.5,3.89,11.6,37.03,11.54,39.07-.05,1.79-11.24,32.12-12.29,33.57-2.97,4.09-5.62,3.08-10.01,2.92-4.12-16.33,13.34-27.31,7.26-43.22-20.57-16.06-16.57,13.87-23.16,17.28-5.36,1.82-6.99-7.51-6.83-10.1ZM516.88,125.48c13.78,25.72,16.74,40.64-5.87,62.06-.48-10.27,13.19-36.2-2.04-40.04-6.72-1.7-8.14,5.88-12.41,4.02,3.5-9.72,9.24-46.72,20.32-26.04ZM461.42,55.9c1.61-2.88,3.16-7.44,7.59-6.47,9.59,2.1,22.16,41.53,30.49,50.32l-18.76,30.13c-10.22.47,9.06-45.68-18.01-30.89l-5.01,28.05c-22.72-19.07-8.05-50.17,3.71-71.14ZM420.22,106.91c11.45,9.9,32.6,54.15,25.99,66.27-2.13,3.9-3.36,2.9-5.78-.05-7.24-8.86-8.9-53.82-24.54-25.93-4.19.72-2.58-1.08-2.85-4.25-.56-6.58-3.01-38.23,7.17-36.04ZM415.91,152.97l11.54,48.95c-8.8,1.61-4.39-2.74-6-6.8-4.75-11.97-11.32-24.58-11.36-37.79-.02-5.72.32-4.61,5.82-4.36ZM426.02,233.67l27.19,24.8c.83,2.73-14.99,26.25-17.94,28.99-1.75,1.63-5.56,3.75-7.92,2.51l-28.64-28.99,27.31-27.31ZM378.47,162.96c2.96-2.34,5.7-1.67,8.75-.04,10.5,5.63,15.82,49.92,18.8,62l-8.85,2.99c-1.1-14.67-3.69-24.21-15.88-33.31l-14.28,4.45c-1.6-13.76,2.93-25.56,11.46-36.1ZM368.42,204.88c8,.19,25.07,48.93,7.23,51.78,1.56-16.95-19.96-36.63-7.23-51.78ZM323.79,210.59c14.04-14.12,35.58,62.82,34.53,71.97-15.1-2.55-6.53-38.72-28.92-33.24-13.74,9.95,27.55,56.88-2.73,62.04,3.85-15.59-8.15-33.78-8.15-47.51,0-15.97,13.74-34.07,5.27-53.27ZM339.97,328.82c3.87-1.15,38.3,20.87,30.06,33.09-19.69,29.21-30.99,8.58-51.99-5.96l21.92-27.13ZM274.7,309.82c.15-6.42,3.81-48.86,5.91-50.27,27.43,4.37,25.55,32.96,28.89,53.14,1.15,6.92,14.47,19.25-2.98,21.72.44-9.68-8.91-40-23.19-30.36-7.83,5.29,3.86,17.49,5.25,23.8.78,3.54,3.75,25.75,3.53,28.1-.74,7.87-11.11,14.76-13.93,5.34-3.58-11.96-3.79-38.35-3.48-51.48ZM257.55,389.12v-11.49c11.47.07,11.32,11.5,0,11.49ZM234.51,314.27c6.61-.49,11.69,4.39,15.17,9.28,5.52,7.77,21.64,45.38,2.13,45.42-2.34-13.35-8.38-19.83-20.45-24.86l3.14-29.84ZM222.97,356.03l5.72-1.43c8.86,11.83,6.69,22.8,9.97,34.7,1.98,7.18,15.11,15.67,3,25.74-8.2,1.67-6.79-12.82-8.57-17.29-6.66-16.76-12.75-20.38-10.12-41.73ZM192.82,371.87c18.79,2.22,22.19,29.21,27.9,44,3.2,8.27,13.4,10.33,4.93,24.96l-8.39.15c-1.97-1.6-4.84-44.07-21.54-40.29-12.9,3.89,9.65,54.79,7.09,66.19-5.98,7.01-19.22-25.64-19.88-30.47-1.26-9.3,3.08-62.67,9.9-64.54ZM142.35,417.95c4.66-1.08,5.87,1.62,8.71,4.23,3.78,3.46,33.93,54.5,34.44,57.83.85,5.49.56,9.34-4.28,12.75-13.91-7.86-7.97-34.7-23.7-36.94-25.38-3.6,10.44,49.2,10.8,55.96.33,6.17-2.84,8.96-7.26,12.66l-24.47-36.2,5.76-70.29ZM129.52,513.09c2.34,5.46-2.04,9.72-.24,14.23,1.62,4.06,12.77,10.92,16.03,15.81,1.15,1.72,9.35,20.86,8.53,21.68-13.51-5.68-18.5-.76-29.81,5.49l-23.54-22.85c1.75-16.08-3.32-32.28-4.08-47.85-1.12-22.89,30.24,6.81,33.11,13.49ZM119.28,616.64c-3.56,4.14-30.86-37.59-34.69-12.85-2.42,15.6,20.64,21.26,23.18,35.89-45.04-5.62-34.81-50.43-43.17-83.49,18.26-4.63,65.31,48.1,54.69,60.45ZM49.38,643.06c9.13-2.62,48.62,16.11,55.43,24.08,2.94,3.44,4.86,5.85,1.69,10.16l-16,5.63,8.63,17.22c-24.62-.6-36.44-14.15-48.41-33.64-4.65-7.57-15.15-19.48-1.35-23.44ZM104.84,727.54l-24.46-1.68c-9.54-.81-12.44,7.3-9.63,15.62,1.91,5.66,12.64,5.2,11.1,13.4-11.03,7.45-36.28-25.77-37.17-30.65-2.81-15.48,53.08-13.03,60.16,3.3ZM53.09,790.83c-3.03-14.03,71.99-23.3,60.43-7.16-3.27,4.57-43.05-1.69-33.25,17.32,4.14,8.04,16.82,5.62,24.6,5.76,1.55,11.54-20.46,10.5-25.87,7.14-2.36-1.47-3.48-6.38-6.07-8.32-4.12-3.09-19.11-11.28-19.85-14.74ZM89.61,855.16c-4.26-2.01-18.3-4.32-19.26-5.26-8.45-8.34,10.7-2.98,12.28-3.35,3.33-.79,6.62-5.33,10.75-6.71,7.32-2.45,48.52-15.75,51.83-12.92,10.01,8.57-50.29,15.02-34.81,33.35,12.28,14.55,26.79-8.71,40.57-4.55,5.39,4.53-19.2,16.27-22.32,16.79-11.04,1.87-27.96-12.12-39.04-17.35ZM127.96,908.95c-1.2-4.12,12.87-19.32,15.76-21.63,2.41-1.92,14.75-9.16,18.03-10.77,4.66-2.29,29.41-12.82,29.49-5.01l-28.38,20.58c-3.07,11.27,12.21,11.61,19.75,8.16,4.08-1.87,23.54-27.08,28.83-21.52,5.37,5.64-30.09,35.78-33.7,36.84-7.14,2.09-47.73.44-49.79-6.64ZM210.74,951.46c-5.25,2.32-16.67,15.24-23.89,5.16-3.42-4.78.06-6.8,1.43-10.34,2.38-6.13,7.59-18.81,10.5-24.06,7.16-12.9,19.75-18.26,27.06-30.52,5.92-2.83,13.07-3.02,17.23,2.88-46.08,22.26-11.36,57.36,8.75,10.1l5.73,1.44c-2.67,26.93-25.53,35.92-46.83,45.34ZM292.09,946.38c-5.73,3.37-26.28,26.23-31.64,21.64-11.31-12.11,17.77-68.21,27.29-66.23,12.22,2.55-4.68,15.18-5.65,17.31-8.89,19.37,11.39,20.96,10,27.28ZM267.4,875.99c-2.74-3.9,7.05-32.66,12.25-34.33,20.43-6.56,27.63,14.54,29.21,30.67,1.58,16.09-32.3,9.6-41.46,3.66ZM364.02,926.2l-33.01,33.17c-13.04-12.56-10.7-30-5.51-45.89,2.07-6.35,5.47-10.65,12.66-8.8,1.02.86-7.51,19.43-.19,24.66l11.88-.05,9.93-24.57c6.74,5.21,4.35,14.18,4.25,21.48ZM366.83,837.13c.37-4.42,9.83-14.45,13.71-15.55,8.17-2.31,17.26,8.63,21.13,15.27,9.49,16.33-10.37,20.55-21.56,27.47l-13.28-27.2ZM436.24,868.8c-.79,10.54-21.51,53.3-28.38,63.77-6.49,9.88-18.96,14-23.12,1.86-2.69-7.86-5.15-61.23,13.91-55.67l-2.63,26.91c26.65,21.08,14.36-32.2,18.35-41.22.82-1.86,14.8-17.92,17.37-17.37,6.09,4.7,5.03,14.7,4.5,21.73ZM474.49,889.96c-23.14,7.27-19.79-24.35-21.32-35.48-1.51-10.99-12.58-31.25,5.96-36.21-4.81,47.33,28.04,50.94,20.19,2.87l8.88,1.68c8.89,11.28-3.43,63.91-13.7,67.14ZM498.74,746.8c11.92-3.09,20.07,14.95,17.64,23.35-.74,2.54-14.48,13.77-17.01,14.92-18.75,8.5-25.73-31.75-.62-38.27ZM526.82,786.62l15.46,18.13c-16.86,23.65-26.96,44.83-39.63,4.02l24.17-22.15ZM544.03,936.3c-6.08,1.36-12.51-20.83-16.29-26.8-13.06-20.65-25.56-26.46-19.62-56.67,29.48,2.56,13.96,28.64,17.76,41.16,2.41,7.94,16.87,14.75,21.24,4.81,2.88-4.65-1.13-9.14-1.39-13.27-.76-11.79,11.26-13.01,13.75-4.88,4.94,16.12,1.34,46.31-15.44,55.66ZM561.43,861.15l-27.4-15.57c-1.22-5.08,8.14-7.47,11.18-11.82,3.69-5.27,2.89-15.14,10.8-18,27.4,6.25,15.98,28.67,5.42,45.38ZM614.62,956.49c-9.17.81-9.37-10.61-14.3-15.89-5.93-6.35-20.26-11.9-23.94-19.44-4.08-8.36,2.99-18.92.86-28.01,16.34.55,1.83,29.96,18.75,31.83,20.68,2.29,3.68-24.32,4.27-27.46,1.34-7.15,9.07-4.03,12.77,1.58,10.07,15.29,9.59,41.39,1.61,57.38ZM631.93,838.4c6.05-.38,12.63.88,18.6-.13,5.77-.97,13.82-8.88,17.5-2.83,2.47,4.05,5.14,36.63.1,40.73-1.73,1.41-22.82,2.36-25.48,1.97-17.41-2.54-8.9-26.87-10.73-39.75ZM678.09,958.01c-6.41,4.94-11.29-10.84-17.53-14.29-10-5.52-24.06-2.15-22.84-21.77l20.13,5.75-2.85-31.67c11.5-1.95,16.98,12.04,20.77,20.96,4.1,9.64,12.02,33.55,2.33,41.01ZM761.55,946.36c-2.2,10.82-18.12-2.18-22.23-3.63-10.87-3.84-29.11-5.5-36.5-9.58-10.66-5.89-14.11-28.89-19.01-40,14.3,4.32,20.54,36.35,35.62,31.45,18.74-6.09-14.36-32.06-15.54-38.62-1.5-8.37,8.8-3.34,12.62-1.08,10.28,6.09,46.85,52.59,45.04,61.46ZM766.18,909.72l-36.32-36.71c14.91-.61,30.61,28.62,46.18,18.79,14.92-9.42-26.39-25.64-28.87-31.82-1.46-6.78,5.83-4.75,9.45-3.68,6.92,2.03,35.2,19.12,42.09,24.15,37.38,27.29-11.43,20.15-32.53,29.28ZM812.11,864.25c-4.39-.3-48.52-20.01-41.92-25.81l46.17,13.13c12.03-22.94-19.71-15.76-28.84-28.98-.04-10.09,42.23,1.45,48.04,3.74,6.66,2.63,18.92,9.38,21.2,16.4.05,5.91-38.23,21.96-44.65,21.52ZM887.54,782.31c-.15,2.01-28.04,24.56-31.09,25.8-7.38,2.99-34.04-3.77-34.37-8.57-.45-6.5,23.09.12,30.93-3.59,10.2-4.81,10.11-16.48-3.49-18.15-10.28-1.26-42.27,9.62-33.3-7.1,5.45-1.26,11.18-2.76,16.71-3.45,11.28-1.41,55.95-2.63,54.61,15.06ZM853.71,737.63c12.42,1.68,21.02-1.31,16.75-15.27-1.62-5.28-9.39-6.85-8.11-13.53,12.37-.05,26.24-9.16,34.4,4.65.53,3.31-40.23,51.78-43.04,24.15Z"/>
            <path d="M616.7,596.95c16.71-5.01,32.44,14.9,16.38,25.16-23.11,14.76-35.74-19.36-16.38-25.16Z"/>
            <path d="M322.74,590.95c17.94,7.69,24.41,26.19,5.52,37.38-8.84,5.23-17.05,1.19-21.89-7.21-8.22-14.23,7.54-20.69,16.38-30.17Z"/>
        </symbol>
    </defs>
    <g id="d">
        <g id="e">
            <use width="944.44" height="1009.28" xlink:href="#heart"/>
        </g>
    </g>
</svg>