<?xml version="1.0" encoding="UTF-8"?>
<svg id="b" xmlns="http://www.w3.org/2000/svg" viewBox="0 0 586.55 586.02">
    <g id="mandala">
        <path d="M442.19,51.74c-1.34,1.58-4.59,2.37-6.64,2.34l-.07,17.95c40.42-.5,74.61,31.07,74.01,71.99,5.04-1.6,19.34,5.75,22.37,5.09,1.04-.23.87-2.78,2.34-4.14,11.84-10.96,22.81,14.41,3.88,13.25l-6.66,21.3c.21,2.18,10.14,8.23,12.59,10.49,18.03,16.6,25.82,42.2,21.22,66.27-1.61,8.46-5.91,16.09-8.62,24.15l14.44,8.64c1.35.22,2.57-3.16,5.19-3.79,11.09-2.65,13.8,12.57,5.29,15.3-7.4,2.37-7.86-4.25-11.31-3.41l-13.66,8.51c-.54,1.86,4.01,9.14,4.94,11.82,11.35,32.66,2.81,62.73-24.09,83.96-1.98,1.56-5.67,1.93-5.97,5.1-.33,3.53,6.64,16.06,5.04,21.46,13.29-3.86,16.43,14.76,4.13,15.48-5.85.34-7.97-6.42-8.78-6.55-3.3-.52-17.13,6.64-22.34,5.09.69,41.04-33.54,72.51-74.01,71.99l.06,17.96c16.31,1.21,5.85,23.29-4.57,14.07-4.09-3.62-1.32-8.33-2.96-11.04l-13.89-7.85c-1.79.35-5.96,8.35-7.65,10.35-23.28,27.4-59.4,35.03-91.33,17.62l-16.21,15.9c11.32,20-22.19,19.99-10.86,0l-15.55-15.53c-32.77,16.23-67.63,10.38-91.53-17.45-1.77-2.06-6.44-10.56-8.12-10.89l-13.9,7.85c-1.73,2.82,2.47,7.54-3.5,11.47-12.13,7.99-19.03-13.55-4.01-14.5l.05-17.96c-40.27.86-75.11-30.96-74-72l-22.36-5.07c-5.82,15.7-24.03.51-13.73-7.5,3.12-2.42,7.32-.56,8.62-2.38l5.53-21.39c-35.07-21.25-44.52-64.32-25.2-100.05l-14.39-8.32c-3.88,4.12-10.23,5.92-14.04.78-7.06-9.54,6.93-18.32,14.04-9.3l14.44-8.36c-16.3-30.6-13.08-67.83,13.55-91.43,2.27-2.01,11.45-7.58,11.51-9.41l-5.47-20.63c-.53-.88-12.48,1.24-11.5-9.34.89-9.67,14.24-9.67,16.6-.51l21.43-5.54c1.23-5.73,1.46-11.43,2.83-17.17,8.01-33.57,38.22-54.46,72.13-54.37l-.17-16.34c-.81-2.37-5.12-2.52-6.57-3.93-6.25-6.1,1.73-18.13,10.69-12.18,5.98,3.97,1.77,8.6,3.5,11.47l13.9,7.86c1.68-.33,6.35-8.83,8.12-10.88,24.11-28.08,58.43-33.45,91.53-17.45l15.55-15.53c-11.6-20.54,22.76-19.36,10.51-.5l16.41,16.22c8.12-4.27,16.96-7.47,26.14-8.6,31.17-3.84,56.26,11.4,73.01,36.75l13.92-7.87c-2.6-22.29,23.99-10.89,14.14.71ZM235.49,139.02v-17.5c0-13.79,23.07-30.75,30.17-43.83,9.43-17.37,9.16-40.03,28.19-51.6,18.2,12.49,18.1,34.37,27.47,51.6,7.63,14.03,22.04,22.01,27.36,35.64.46,1.18,2.81,7.76,2.81,8.19v17.5c3.78-.81,3.77-4.08,4.04-7.47,2.77-34.59-17.34-33.95-30.22-58.85-8.94-17.28-7.84-33.46-23.8-48.2-7.87-7.27-8.81-6.82-16.54.48-16.04,15.17-15.63,35.63-26.67,53.33-9.62,15.44-25.07,20.81-26.84,41.16-.44,5.08-1.71,18.37,4.04,19.54ZM269.49,35.04c-32.77-17.43-73.39-6.34-91.01,26.46,9.12,7.43,12.75-3.57,18.99-8.99,18.77-16.3,46.55-20.24,69-9.49l3.02-7.99ZM317.49,35.04c2.48,10.76,5.75,5.78,12.8,4.28,21.86-4.63,41.95-1.8,59.21,13.19,6.2,5.38,9.95,16.48,18.97,8.96-17.43-32.75-58.36-43.85-90.98-26.43ZM331.84,98.67c-7.63-8.86-13.58-16.37-18.11-27.39-5.56-13.52-7.06-30.45-20.6-39.19-15.93,13.16-15.48,34.32-25.83,51.23-8.93,14.6-25.81,22.5-27.81,41.19-.34,3.17-.44,15.73.93,17.84l11.08,5.66c-.61-3.06,1.81-6,1.98-8.61s-1.37-4.76-.81-7.65c.65-3.33,4.69-5.07,5.29-6.69.64-1.71-1.41-6.55.31-10.79,1.59-3.94,6.99-4.85,7.78-6.2.49-.84-1.6-8.78,3.45-14.29,1.91-2.09,5.34-2.4,6.49-3.8,1.58-1.93,2.88-9.54,6.11-11.89l11.91-12.08c2.94,5.31,9.75,9.49,12.82,14.25,2.01,3.13,2.94,7.98,4.24,9.71,1.38,1.84,5.74,2.63,7.92,6.08,2.9,4.61,1.7,11.48,2,12.02.75,1.31,6.19,2.26,7.78,6.2,1.8,4.46-.25,7.43.17,10.29.21,1.49,4.3,3.74,5.15,6.4,1.23,3.85-.75,6.04-.38,9.29.13,1.16,1.34,4.76,1.81,6.31.28.93-.57,2.01,1.47,1.42,12.09-3.5,11.63-11.31,10.54-22.45-1.48-15.15-7.29-17.17-15.64-26.86ZM239.49,41.03l-7.81,1.18c-1.13,10.29-8.06,16.56-13.18,24.33-.65.99-1.64.76,0,1.99l5.52,2.21c7.81-7.76,14.19-18.64,15.48-29.7ZM347.5,41.03c-1.51,5.47,11.59,29.41,15.48,29.7,1.93-1.47,7.25-1.24,5.51-4.19-2.57-4.34-6.66-7.8-9.17-12.84-1.81-3.64-2.87-7.92-4.36-11.71l-7.46-.96ZM243.5,42.03c-.61,11.64-7.89,21.81-14.91,30.66-.18,1.3,5.55,6.78,8.38,4.31,5.35-4.68,15.01-25.72,15.35-32.7l-1.48-2.13-7.34-.15ZM343.48,42.03l-7.34.15-1.48,2.13c2.66,13.25,8.64,24.5,17.33,34.7l6.45-6.4c-7.11-8.68-14.33-19.06-14.96-30.58ZM227.49,43.03l-9.78,2.21c-2.53,8.39-7.32,15.43-13.22,21.77,12.62,2.41,18.74-14.65,23-23.98ZM369.25,45.27c-.98-.91-9.05-2.78-9.76-2.24,4.26,9.54,10.06,26.28,23,23.98-3.16-3.73-6.36-7.4-8.81-11.68-1.35-2.36-3.35-9.06-4.43-10.06ZM264.47,46.07l-7.97-2.05c-1.5,8.78-4.7,17.66-9.2,25.31-3.84,6.52-12.97,12.32-5.27,18.69,12.37-10.08,19.65-26.38,22.44-41.95ZM330.48,44.02c-9.49,2.18-8.12,2.64-6.01,10.52,2.82,10.51,8.55,21.99,16.05,29.95,2.9,3.09,5.83,5.7,7.57-.45,1.08-3.82-5.72-10.24-8.02-14.1-4.69-7.87-7.88-16.95-9.59-25.92ZM211.49,49.03c-1.63-1.63-19.77,13.14-19.99,16.98,9.26,3.32,17-9.64,19.99-16.98ZM395.49,66.01c1.47-1.47-16.26-17.7-19.99-16.98-1.46,1.42,11.04,17.68,14.51,18,1.7.16,3.66-1.17,5.48-1.02ZM228.06,80.45c-10.97-9.35-16.56-6.15-29.06-7.44-15.35-1.59-28.46-7.3-41.02-15.96-2.35.13-.35,12.79-.46,15.52-.36,8.92-3.29,19-6.86,27.13-4.75,10.8-10.7,15.15-8.91,28.57.59,4.4,3.65,16.71,9.21,15.8,4.95-.81-.21-7.96-1.18-11.84-3.94-15.63,4.89-21.98,9.17-35.25,3.15-9.76,3.5-20.71,3.55-30.96,6.95,3.54,14.27,8.41,21.76,10.73,17.62,5.45,39.32-1.24,48.25,20.26,1.2.83,4.95-2.69,4.82-4.31-.22-2.62-6.99-10.32-9.27-12.26ZM424.49,66.02v14.5c0,14.53,9.56,25.02,12.7,37.3,2.75,10.73-1.13,16.25-3.71,26.2,6.62,1.3,7.78-2.43,9.72-7.77,7.83-21.52-6.5-30.14-11.23-49.21-1.02-4.13-2.32-10.3-2.53-14.47-.14-2.77,1.95-15.07-.49-15.55-.97-.19-13.84,8.46-17.12,9.86s-7.09,2.86-10.35,3.65c-15.9,3.88-31.32-1.13-44.04,10.96-4.04,3.84-12.55,13.64-2.99,15.53,8.59-20.44,28.88-15.02,45.78-19.74,8.32-2.32,16.74-7.08,24.24-11.26ZM229.48,105.02c2.53-5.12-3.6-11.79-7.51-14.97-9.62-7.83-19.31-5.29-30.71-7.29-8.87-1.56-16.97-5.42-24.76-9.73-.11,7.13-.74,15.06-2.5,22.01-3.72,14.65-15.25,22.41-9.29,39.27,1.4,3.97,3.72,9.8,8.78,8.71-11.41-16.3-.4-26.77,3.94-41.55,2.02-6.86,3.04-14.32,3.07-21.44,7.63,4.35,15.96,7.24,24.59,8.89s18.52-.06,25.4,6.6l8.98,9.5ZM294.48,116.03c-1.43-7.24,12.29-22.24,12-26.43-.37-5.3-8.78-13.77-13.35-16.5-3.73,3.28-12.96,12.32-12.63,17.36.18,2.8,6.2,9.85,7.87,13.19s2.55,7.69,4.03,10.97c.53,1.18-.47,1.8,2.09,1.4ZM428.33,142.86c.83-3.42,3.7-6.66,4.68-9.82,4.54-14.65-5.76-23.67-9.46-36.58-2.16-7.57-2.82-15.56-3.07-23.44-8.14,4.36-16.33,8.41-25.59,9.89-9.84,1.58-19.6-.41-28.33,5.67-4.54,3.16-12.16,11.81-8.57,17.43,11.56-23.64,39.81-11.92,58.49-26-.08,5.2.39,10.97,1.47,16.04,2.89,13.64,13.5,23.5,9.25,38.16-.92,3.18-2.87,5.72-3.7,8.79l4.83-.16ZM90.44,143.97c3.33-26.72,20.29-47.65,46.29-55.2,2.61-.76,11.18-1.79,11.81-2.19.93-.6,3.32-8.3,2-9.07-32.07-.5-60.65,21.52-66.79,53.28-1.44,7.46-4.07,15.43,6.7,13.19ZM484.07,95.47c-7.94-7.23-19.93-13.69-30.38-16.15-2.8-.66-14.62-2.74-16.58-2.21-2.6.7.32,9.22,2.02,9.77,30.19,2.14,54.06,27.41,57.46,57.04,6.92.62,8.31.73,7.89-6.37-.82-13.91-10.13-32.72-20.41-42.08ZM225.48,125.02c.42-9.59,2.73-14.61-3.56-22.93-7.53-9.96-16.25-7.45-26.66-9.34-7.5-1.36-12.23-3.4-19.12-5.91-1.03-.37-.97-1.42-2.18.15.89,19.22-20.13,35.93-6.91,53.96,3.42,4.66,9.14,6.39,14.43,8.06-12.42-16.07-4.15-35.02-1.99-52.99,14.17,5.46,30.93,8.18,40.99,20.5l4.99,8.49ZM413.49,86.03c-4.11,1.26-7.8,3.36-11.99,4.5-12.3,3.37-28.2.66-36.44,11.56-6.29,8.32-3.98,13.33-3.56,22.93l4.99-8.49c10.21-12.2,26.75-15.12,40.99-20.5,2.33,18.41,10.65,38.05-2.99,53.99l12.69-5.31c18.94-19.2-5.7-37.5-3.69-58.68ZM147.49,91.03c-1.12-1.03-22.76,4.86-24,8.98,7.62.72,23.43,1.33,24-8.98ZM464.49,99.04c-7.92-3.59-16.03-7.84-24.99-8.01,0,5.82,1.75,6.31,6.8,7.7,1.47.4,20.66,3.93,18.2.31ZM291.49,129.01c-2.01-12.9-6.22-24.73-14.48-34.93-5.39,2.15-8.24,8.77-6.35,14.27.51,1.49,7.59,5.28,9.48,7.02l11.35,13.64ZM316.28,108.82c2.68-4.61-2.26-16.78-7.63-13.62-.97.57-8.12,14.38-8.93,16.56-2.17,5.9-3.21,12.09-4.23,18.26,3.65-3.54,5.52-8.78,9-12.49,1.98-2.11,11.42-8.08,11.78-8.71ZM214.13,115.38c-6.62-6.62-22.66-10.5-31.64-13.36-1.72,16.66-9.29,33.91,5.5,47l3.55-31.96c1.97-1.37,26.41,10.86,29.94,12.97,1.26-1.59-5.63-12.93-7.35-14.64ZM404.49,102.02c-15.59,4.62-35.87,9.08-38.99,28,9.88-4.5,19.14-10.76,29.96-12.97l3.53,31.97c14.94-12.62,7.25-30.66,5.5-47ZM141.49,103.03c-.46-.44-10.24,2.02-12.49,2.06-7.67.14-14.81-4.58-18.5,5.93,9.26.82,29.09,4.42,30.99-7.99ZM476.49,111.02c-3.68-10.34-10.14-5.85-17.49-5.91-2.34-.02-12.85-2.71-13.5-2.08-2.41,11.28,29.33,9.84,30.99,7.99ZM297.48,145.02c2.94-8.06,9.79-13.5,17.14-17.36,5.12-2.69,11.41-1.66,10.96-9.14-.2-3.26-4.1-6.71-7.2-6-9,2.07-20.18,20.4-21.64,29.27-.17,1.06-1.06,3.47.74,3.23ZM290.48,145.02c-.49-8.95-5.38-18.56-11.59-24.89-3.6-3.67-15.73-12.72-17.41-2.55-1.33,8.02,5.12,7,10.22,9.74,4.57,2.45,9.85,5.79,13.23,9.74,1.97,2.3,3.13,6.17,5.55,7.96ZM484.49,121.01c-3.43-9.83-6.24-5.26-13.46-4.95-6.89.3-13.73-.19-20.53-1.03.36,3.9-.33,6.61,3.74,7.71,9.65,2.59,20.9,1.01,30.26-1.72ZM136.49,115.03c-10.12,1.61-20.18,1.1-30.29-.03l-3.71,6.01c10.77,2.99,21.91,4.22,32.77.78l1.23-6.76ZM135.48,126.02c-11.81,3.55-23.7,1.94-35.42-1.06l-2.57,8.06c13.2,3.39,26.62,5.96,40.01,1.99l-2.02-8.99ZM201.49,240.02h-16.5c-8.71,0-34.78,22.7-44.58,28.42-13.63,7.96-28.86,13.2-40.92,24.09-.36,1.41,10.73,9.05,12.69,10.3,8.79,5.6,18.66,9.17,27.62,14.38,9.44,5.5,37.03,28.81,45.19,28.81h16.5c-16.03,18.5-7.23,36.77-6.01,57.51,1.09,18.67-2.62,37.02,0,56.02.2,1.49-.56,1.6,1.53,1.5,3.15-.16,17.58-7.81,21.16-9.86,9.21-5.28,17.43-12.14,26.97-17.03,13.55-6.95,31.73-10.24,41.36-22.64.94-1.21,7.23-13.29,7.99-12.5,4.85,22.13,28.63,25.97,45.89,34.62,10.38,5.21,18.65,11.93,28.45,17.55,2.89,1.66,21.2,11.26,22.67,9.83.62-10.53,1.13-20.97,1.05-31.55-.06-8.11-1.57-16.36-1.09-24.99,1.16-20.86,10.37-39.95-5.96-58.46h16.5c8.71,0,32.39-20.91,41.58-26.42,14.61-8.77,31.01-14.32,43.92-26.09.36-1.42-10.68-8.99-12.69-10.3-9.93-6.44-21.11-10.64-31.23-16.77-9.3-5.63-32.71-26.42-41.58-26.42h-16.5c16.11-18.87,6.97-38.19,5.96-59.46-.88-18.47,3.3-37.19-.47-55.56-17.79,4.61-31.42,17.36-47.3,25.7-18.73,9.85-42.77,12.98-49.7,36.32l-7.51-12.48c-10.71-13.06-28.28-15.88-42.65-23.35-16.18-8.41-30.03-21.93-48.32-26.17-.67,10.85-1.13,21.64-1.05,32.54.06,7.78,1.53,15.68,1.09,23.99-.77,14.5-6.38,28.63-2.09,43.01,1.67,5.6,4.96,10.58,8.05,15.45ZM487.43,125.08c-12.09,2.05-23.85,5-35.93.94l-1.9,8.43c.66,2.67,16.51,2.8,19.42,2.61,7.01-.44,13.57-3.17,20.47-4.04l-2.06-7.94ZM290.48,160.02c-1.99-11-7.46-21.45-17.32-27.17-5.09-2.95-15.17-8.48-16.2,1.05-.52,4.83,9.18,5.41,13.06,7.09,9.43,4.09,14.61,11.02,20.46,19.03ZM329.3,137.84c2.44-2.15-.38-8.93-3.51-9.66-2.43-.57-10.82,3.89-13.21,5.43-7.96,5.12-14.17,14.94-15.07,24.42,6.08-8.6,12.5-14.25,22.45-18.04,1.93-.74,8.99-1.83,9.35-2.14ZM141.49,147.02l-3.43-7.66c-6.87,1.54-14.03,2.19-21.11,1.71-6.65-.46-14.26-3.82-19.97-4.05-2.65-.11-1.37,5.57-2.53,7.45,15.05,5.57,31.45,5.93,47.04,2.56ZM491.49,137.02c-14.13,2.87-28.07,6.46-42.41,2.18l-3.59,7.82c9.39,1.5,18.96,2.81,28.54,2.04,2.76-.22,17.96-3.03,18.35-4.61l-.89-7.43ZM288.49,167.01c-4.45-11.51-15.85-23.66-28.78-24.82-4.33-.39-5.32,6.29-2.98,8.59,1.67,1.64,16.62,6.36,20.78,8.72l10.98,7.51ZM330.22,150.77c2.12-2.22,1.4-7.12-1.39-8.64-14.18,1.58-25.24,12.02-30.34,24.88.72.7,9.25-6.56,10.97-7.52,4.16-2.35,18.94-6.81,20.77-8.72ZM189.49,165.02c.56-2.58-.44-2.53-1.65-3.84-21.15-22.77-46.91-4.6-71.89-6.11-20.35-1.23-29.38-9.89-51.67-2.76-2.26.72-8.55,2.52-8.72,5.12s2.62,12.39,3.65,15.38c6.03,17.39,23.22,27.54,31.46,44.54,9.48,19.54,4.93,34.85,28.14,46.86,2.04,1.06,11.23,5.94,11.19,1.82-4.33-2.61-9.05-4.79-12.99-8.02-15.62-12.77-13.4-28.79-22-45-8.54-16.09-23.82-24.82-30.28-42.72-1.33-3.7-1.76-7.62-3.25-11.25,23.25-9.79,44.1,3.71,67.55,2.03,12.09-.87,22.7-7.18,34.95-6.03,9.28.87,17.31,6.23,25.5,9.98ZM531.4,155.11c-4.07-.77-7.69-2.8-11.7-3.79-23.15-5.72-39.36,5.82-62.58,3.58-11.23-1.08-21.56-7.13-33.13-5.88-5.59.6-25.53,8.93-26.51,14.49-.24,1.37.07,1.94,1.5,1.5,2.3-.71,6.91-4.68,9.99-6.01,21.39-9.25,28.79.54,47.99,2.06,20.36,1.61,36.85-7.99,56.76-4.76,3.63.59,7.22,1.57,10.65,2.85-1.91,26.84-26.97,37.74-36.35,61.9-3.36,8.67-3.94,18.17-8.73,26.27-4.94,8.35-13.97,14.15-22.32,18.69.84,4.57,10.94-1.49,13.82-3.19,21.86-12.91,16.8-29.42,27.31-48.69,7.63-13.99,21.95-23.17,28.25-37.75,2.82-6.52,4.81-14.14,5.05-21.27ZM189.49,184.02c-.56-3.74,1.27-10.69-1.01-13.48-5.63-6.87-24.49-12.53-33.25-11.27-16.37,2.35-24.08,7.55-43.11,5.64-14.37-1.44-29.7-9.74-44.7-2.25,3.52,21.26,23.29,31.61,32.6,50.35,8.72,17.56,4.81,32.01,23.57,44.43,3.88,2.57,8.17,4.37,12.4,6.22l9.88-5.55.62-2.06c-3.31.07-3.71-3.78-5.44-5.07-2.1-1.57-5.45-1.13-7.97-4.03-2.17-2.5-2.4-7.5-2.7-7.8-.58-.59-6.97-.26-9.75-5.75-1.75-3.45-.52-8-1.28-9.22-.15-.24-3.13-1.08-4.35-2.14-7.1-6.18-4.44-8.08-6.77-15.23-.88-2.72-3.89-4.96-5.24-7.76-2.81-5.84-3.47-13.93-6.49-20.01,6.76-.05,13.99-3.65,20.53-4,3.46-.18,7.27,1.24,9.72.83,4.87-.81,6.08-4.3,14.02-2.61,2.27.48,5.36,3.4,6.24,3.45,3.16.18,4.28-6.48,14.2-1.88,1.55.72,2.82,2.77,4,3.05,2.05.49,5.65-1.62,9.55-.59,2.98.79,4.66,4.51,5.49,4.74,2.87.8,6.38.24,9.26,2ZM519.37,162.14c-15.49-6.56-30.71,1.35-45.5,2.76-5.04.48-12.88.56-17.91.16-10.59-.84-21.54-6.83-31.95-6.03-5.63.44-22.38,6.99-25.58,11.42-2.13,2.95-.38,9.84-.92,13.57,2.73-1.38,6.54-1.1,9.23-2.02,1.1-.38,2.48-3.96,6.51-4.75,3.55-.69,6.76,1.04,8.56.62s4.63-4.57,9.28-4.78c3.91-.18,7.53,3.7,8.91,3.62.85-.05,3.98-2.97,6.24-3.45,7.94-1.69,9.16,1.8,14.02,2.61,2.52.42,6.22-1.08,9.73-.84,6.11.42,13.17,3.9,19.52,4,.73.74-4.5,17.81-5.51,19.99-1.34,2.9-5.5,6.78-5.94,7.95-.7,1.85.66,6.2-1.69,10.41-1.93,3.48-8.28,6.16-8.66,6.83-1.32,2.31,1.41,6.7-3.21,11.3-2.36,2.35-7.53,3.36-7.81,3.69-.69.8-.23,5.26-2.61,7.89s-5.4,1.98-7.51,3.49c-1.07.77-1.9,2.81-3.01,4.02-1.23,1.35-4.45,1.09-2.57,3.43,1.05,1.31,8.92,5.71,10.63,5.53,1.96-.22,9.72-4.74,11.79-6.14,18.99-12.84,15.27-28.29,24.75-46.25,9.39-17.81,29.08-28.27,31.23-49.04ZM151.49,207.02c.44-.47-3.44-8.74-3.94-10.55-1.05-3.81-1.75-14.09-2.98-16.02-2.7-4.23-11.19-4.33-15-1.32-1.56,2.23,11.47,19.79,14.03,22.29.76.74,7.21,6.33,7.89,5.6ZM166.48,216.02c-2.41-6.33-5.62-12.57-5.99-19.53s5.46-16.5-3.22-18.84c-11.07-2.99-7.32,13.45-5.26,19.35,2.59,7.44,8.26,14.3,14.47,19.02ZM419.5,217.02c9.36-3.6,22.05-29.28,16.88-37.4-2.93-4.6-10.83-1.89-11.73,2.1-.53,2.35,1.98,10.75,1.85,14.76-.06,2.01-.96,6.49-1.52,8.54-1.16,4.25-4.04,7.9-5.49,12ZM457.42,179.13c-3.98-2.92-12.31-3.3-15,1.33-1.3,2.24-1.7,10.59-2.65,14.35-1.26,4.99-3.29,10.03-6.28,14.21.81.75,4.28-2.32,5.2-3.05,8.53-6.72,15.06-16.63,18.73-26.84ZM140.49,205.01c-2.11-3.95-5.59-6.73-8.02-10.47-2.03-3.13-5.84-12.53-8.03-13.97-5.37-3.52-15.74.77-21.53,2.39-.99,1.25,4.87,17.72,7.59,19.54,10.05,1.37,20.22-.81,29.99,2.5ZM446.49,205.01c9.67-2.76,19.46-1.68,29.34-2.06,5.15-5.32,7.14-12.85,8.25-19.97-4.71-1.93-18.34-5.95-22.33-2.7-.62.5-4.97,10.79-6.44,13.06-2.66,4.12-6.66,7.22-8.82,11.67ZM175.24,182.27c-4.51-4.46-9.2.95-9.75,6.25-1.43,13.85,2.54,26.18,13.99,34.5-4.24-8.84-6.89-16.32-5.87-26.38.39-3.83,4.2-11.84,1.63-14.37ZM407.5,223.02c4.62-3.48,8.78-7.99,11.18-13.31,2.96-6.56,7.1-32.18-5.22-28.28-5.77,1.83-.58,10.31-.1,15.21.95,9.62-1.88,17.85-5.87,26.38ZM55.84,197.37c1.27-1.39,6.22-4.11,6.54-5.99l-4.39-6.26c-23.39,15.44-36.58,40.74-31.23,69.13.64,3.39,6.49,22.64,9.22,22.65l6.17-5.35c-11.44-27.27-5.92-52.82,13.69-74.17ZM552.4,276.93c12.48-24.31,12.95-52.77-4.49-74.83-2.51-3.18-16.64-17.64-19.84-17.15l-4.56,6.57c25.4,18.26,34.16,51.18,21.14,79.85,1.34,1.5,5.85,6.83,7.75,5.56ZM187.48,225.02c-1.29-6.1-1.39-13.23-1.03-19.54.25-4.44,3.78-14.71.6-17.52s-6.02-2.39-7.53,1.59c-4.3,11.33-1.09,27.3,7.96,35.47ZM406.43,186.07c-12.66-.18-6.33,12.62-5.89,20.41.35,6.13.25,12.6-1.03,18.54,10.51-9.73,12.26-25.97,6.93-38.96ZM90.49,236.02c-1.95-12.13-9.27-24.92-17.49-34.01-5.76-6.37-7.14-9.79-13.5-1.49,5.03,5.03,10.25,9.81,14.21,15.77,2.39,3.6,8.22,17.82,9.26,18.74,2.02,1.77,5.01.84,7.51.98ZM504.39,235.92c3.3-14.13,12.65-25.74,23.08-35.4l-5.62-5.43c-4.78-.84-28.19,33.34-25.37,40.93l7.91-.1ZM78.49,237.01c-2.97-10.49-11.43-25.83-20.47-32.05-.88-.61-1.36-1.42-2.52-.5l-3.85,5.92c4.57,4.87,8.81,8.9,12.27,14.72,2.42,4.07,4.31,11.32,6.09,13.91,1.38,2.02,6.01-2.91,8.49-2ZM517.39,238.93c1.92-8.09,6.04-14.93,11.12-21.39,4.33-5.5,11.51-6.98,2.34-13.45-10.67,7.69-19.3,20.16-22.33,32.88l8.87,1.95ZM150.48,213.04c-10.33-3.99-21.3-7.02-32.5-6.01-9.63.87-3.2,12.37,3.1,13,4.14.41,9.66-4.33,14.2-4.7l15.19-2.29ZM474.46,208.08c-9.4-2.29-20.46-1.03-29.75,1.66-2.68.78-6.87,1.69-8.22,4.27,5.3-.32,10.05.13,15.2,1.31,3.32.76,12.2,5.32,13.3,5.33,4.6.01,10.32-7.83,9.47-12.57ZM48.99,214.04l-3.34,6.34c7,7.45,11.44,16.28,15.34,25.62l5.03-3.93c-2.33-10.87-8.83-20.68-17.03-28.03ZM541.28,221.82l-3.28-7.77c-3.82-.4-16.87,22.14-17.07,26.91-.07,1.76,4.1,7.05,6.34,3.35,4.12-6.81,5.82-17.53,14-22.49ZM164.49,221.03c-7.74-2-14.05-3.68-22.21-2.73-6.49.75-27.52,6.72-15.76,15.19,6.67,4.8,13.6-7.89,20.99-8.95l16.98-3.51ZM462.2,224.31c-1.78-2.13-14.06-5.96-17.2-6.29-7.87-.84-15.01,1.21-22.5,3.02l16.98,3.51c4.52.17,14.1,10.25,16.55,10.51,4.97.53,9.99-6.16,6.17-10.75ZM54.47,256.02c5.84-7.68-.95-14.82-4.16-22.31l-6.81-8.67c-4.91,10.17-.02,10.95,4.15,18.33,2.11,3.73,2.97,7.76,4.74,11.25.53,1.05-.51,1.88,2.07,1.41ZM534.48,256.02c.59-11.4,16.76-19.99,8.51-30.98-2.26.09-12.59,20.38-13.09,23.96-.33,2.35,2.66,8.47,4.58,7.02ZM175.49,230.01c-5.42-4.82-16.45-4.46-23.23-2.72-5.51,1.42-24.73,11.22-15.15,17.61,4.77,3.18,7.4-3.09,10.91-5.86,8.11-6.38,16.89-9.79,27.47-9.04ZM410.5,230.01c9.83-.88,20.1,2.68,27.91,8.6,3.28,2.49,6.79,9.06,11.09,6.94,5.95-2.94,1.94-8.59-1.53-11.5-9.24-7.76-21.85-9.67-33.26-6.31-1.16.34-4.22.82-4.21,2.27ZM181.49,234.03c-10.77-.84-21.25.77-29.91,7.58-6.28,4.93-10.24,10.91.89,11.95,4.87-3.94,10.43-9.13,15.71-12.36,4.23-2.59,9.68-3.86,13.32-7.17ZM405.49,236.02c8.86-2.1,25.13,17.02,29.67,17.75,2.42.39,6.36-2.28,6.94-4.7.62-2.58-11.42-10.93-14.08-12.07-5.98-2.58-14.61-3.79-21.04-2.98-1.37.17-3.12.73-1.49,2ZM92.38,241.14c-11.67-.38-22.42,3.23-29.86,12.4-3.05,3.76-4.84,8.64-7.59,12.41-8.56,11.71-20.07,20.51-33.43,26.08l.62,2.05c10.21,4.82,19.85,10.91,27.4,19.41,10.44,11.75,12.09,25.18,29.18,29.82,2.26.62,12.71,2.81,13.91,1.12l.85-5.37c-4.35-1.02-8.89-.95-13.18-2.32-12.28-3.91-16.15-16.52-23.81-25.19-6.74-7.62-16.07-13.26-24.97-18.03,8.44-6.5,17.85-10.86,24.97-19.03s11.79-21.16,23.03-24.97c4.46-1.51,9.49-1.09,13.97-2.55l-1.09-5.84ZM522.14,250.38c-6.57-6.42-18.45-10.02-27.5-9.21l-1.15,6.86c23.83-3,28.39,19.46,42.48,32.02,5.18,4.62,11.77,7.77,17.27,11.71.5.36,2,.17,1.25,1.75-.51,1.07-16.09,10.26-19.52,13.49-13.75,12.9-17.65,33.03-41.48,32.03l1.67,6.03c5.03.23,10.82-.58,15.56-2.31,14.74-5.37,16.76-17.41,25.8-28.2,7.55-9,18.38-15.7,28.96-20.55l-.62-2.06c-10.02-5.02-19.87-10.93-27.4-19.39-5.85-6.57-9.8-16.77-15.33-22.17ZM44.5,267.02c10.52-2.54,1.03-20.53-4-25-.66,8.57,2.15,16.78,4,25ZM540.51,268.02c2.42,1.68,7.7-23.55,5.98-26-6.21,6-12.24,18.52-5.98,26ZM547.49,294.01c-5.8-5.83-13.37-9.36-19.02-15.46-8.73-9.43-11.15-21.82-25.33-25.67-5.12-1.39-13.23-3.07-15.65,2.66,2.96.98,6.14.23,9.23.76,14.27,2.41,20.81,19.75,31.24,28.76,1.71,1.48,10.37,6.86,10.52,7.49.39,1.55-7.66,5.97-9.47,7.52-13.41,11.44-19.49,32.77-40.52,29.98-.13,6.34,7.83,4.6,12.22,3.71,16.76-3.37,17.89-15.53,27.74-26.26,4.66-5.08,12.62-10.88,19.03-13.47ZM97.33,252.18c-25.01-4.67-29.04,18.21-43.94,31.24-3.54,3.1-8.57,6.67-12.89,8.62-.31,1.43.13,1.62,1.03,2.44,2.41,2.19,7.95,4.7,10.88,7.12,12.35,10.2,17.89,30.3,34.69,32.3,3.77.45,11.12,1.39,11.39-3.88-25.85,3.24-28.98-28.54-50.37-35.94l-.62-2.05c21.78-6.8,25.34-39.47,50.99-36.02l-1.15-3.84ZM113.49,267.04c-7.32-2.54-8.47-7.64-17.33-7.62-15.63.03-17.68,10.01-26.16,19.62-4.36,4.95-9.53,9.24-14.47,13.58,4.08,5.09,9.98,9.3,14.47,14.39,8.47,9.6,10.52,19.59,26.16,19.62,7.48.01,12.84-4.95,18.33-9.6-8.37,2.49-15.58.63-23.02-3.49-5.67-3.14-18.44-13.32-23-17.99-.77-.79-2.12-1.58-1.9-2.89,13.17-10.84,27.96-29,46.91-23.64v-1.98ZM532.49,294.01c-4.86-5.27-10.78-9.55-15.51-14.97-8.04-9.21-10.2-19.14-25.15-19.93-8.39-.44-12.91,5.19-19.34,9.43,3.58.2,6.58-.7,10.37-.38,14.42,1.23,27.68,16.85,38.62,25.38-15.32,9.71-27.91,29.34-48.99,23.5,6.18,5.35,11.58,10.67,20.48,10.02,18.31-1.33,23.07-27.05,39.52-33.05ZM115.49,273.03c-18.12-4.92-29.29,9.67-42.36,18.91l-.63,2.06c13.58,8.62,24.44,24.36,43,19.01.57-2.32-.47-1.65-1.27-2.28-7.6-6.01-17.19-9.82-23.66-17.35-.58-3.48,20.18-15.32,23.66-18.07.8-.64,1.84.03,1.27-2.28ZM471.49,313.02c12.44,3.3,21.01-1.93,30.48-9.01l12.52-11.47c-12.86-9.98-24.69-24.52-42.99-19.51-.41,1.82.56,1.96,1.67,2.82,3.2,2.49,23.94,14.45,23.28,17.56-6.72,7.24-16.1,11.32-23.69,17.32-.8.64-1.84-.03-1.27,2.28ZM34.5,309.03c-1.29,5.13-4.22,9.72-5.73,14.78-9.27,31.09,2.78,59.69,29.22,77.13l4.39-6.27c-24.17-19.88-33.28-50.83-20.05-80l-7.83-5.64ZM552.4,309.11c-1.9-1.28-6.41,4.06-7.75,5.56,12.86,28.65,4.29,59.95-19.71,79.38l2.57,6.97c33.39-17.51,42.97-59.41,24.89-91.91ZM189.49,421.03c-8.32,3.65-16.13,9.1-25.5,9.98-12.18,1.14-23.01-5.12-34.96-6.02-20.13-1.53-36.95,8.45-56.78,4.78-1.63-.3-8.79-1.93-9.32-2.68-.47-23.43,22.18-35.39,32.09-54.05,8.38-15.78,6.44-31.34,21.01-43.99,4.2-3.65,9.17-6.3,13.99-9.02.01-3.99-7.17-.15-9.19.82-25.66,12.24-20.08,27.79-30.5,48.5s-28.4,28-33.37,51.63c-.69,3.28-.69,6.77-1.45,10.05,8.22,1.78,16.96,5.89,25.5,6.07,11.01.24,23.43-5.42,34.96-6.12,26.41-1.59,41.87,14.98,66.87-2.13,1.39-.95,8.45-5.93,6.67-7.82ZM531.4,430.94c.46-29.57-28.11-43.42-37.67-68.65-2.07-5.47-2.73-11.15-4.52-16.48-4.66-13.86-16.96-24.43-31.2-27.79l-1.04,2.01c4.68,2.94,9.75,5.42,13.99,9.02,14.86,12.64,12.67,30,22.01,45.99,8.48,14.51,23.23,23.91,29,40,.64,1.78,3.11,10.94,2.43,11.88-1.91.55-3.75,1.35-5.69,1.83-22.5,5.57-39.29-5.48-61.76-3.77-18.56,1.41-24.82,10.56-45.74,2.81-4.03-1.49-9.47-5.91-12.24-6.76-1.44-.44-1.73.13-1.5,1.5.89,5.23,21.01,13.9,26.51,14.49,11.57,1.25,21.89-4.8,33.13-5.88,21.12-2.04,38.82,8.46,58.63,4.63,5.18-1,10.48-3.71,15.66-4.83ZM40.5,344.02c5.19-4.98,13.18-19.8,5.49-24.98-2.89.03-6.5,21.43-5.49,24.98ZM542.48,319.02c-2.37-.89-4.31,1.66-4.74,3.77-1.11,5.43,3.94,17.77,8.74,21.23.87-8.66-1.99-16.77-4-25ZM146.49,330.01c1.36-1.87-8.89-7.41-11.07-7.51-7.5,3.47-15.46,7.64-20.89,14.06-8.61,10.17-8.51,24.47-14.48,36.52-9.32,18.78-29.9,29.36-32.47,50.87,15.32,6.57,30.12-1.35,44.54-2.79,5.23-.53,13.66-.57,18.91-.16,14.43,1.14,22.87,8.62,38.49,4.56,3.66-.95,17.1-7.25,19.05-9.95,2.13-2.96.38-9.83.93-13.56-2.88,1.76-6.39,1.21-9.26,2-.83.23-2.51,3.95-5.49,4.74-3.91,1.04-7.48-1.07-9.55-.59s-4.46,4.71-9.22,4.91c-4.08.17-6.42-3-8.98-3-2.73,0-7.09,4.13-11.77,3.71-3-.27-6.12-3.23-8.48-3.62s-6.26,1.02-9.72.83c-6.69-.36-13.66-4.16-20.53-4,3.15-6.2,3.63-13.76,6.5-19.99,1.3-2.81,5.59-6.95,5.96-7.95.65-1.78-1-5.24,1.34-9.75s8.73-6.94,9.04-7.45c.76-1.22-.47-5.77,1.28-9.22,2.8-5.51,9.07-5.08,9.75-5.75.55-.54-.12-5.99,3.59-8.91,2.4-1.89,4.64-1.44,6.49-2.51,2.24-1.3,2.58-5.5,6.03-5.48ZM397.5,402.03c.54,3.73-1.21,10.61.92,13.57,2.99,4.14,19.39,10.8,24.67,11.32,11.06,1.09,21.82-5.05,32.86-5.93,20.15-1.6,36.7,7.01,55.91,4.91,10.89-1.19,8.25-4.21,4.8-12.55-6.13-14.82-21.82-24.51-29.35-39.65-8.79-17.66-5.08-32.47-23.92-45.08-2.01-1.34-8.53-5.27-10.5-5.57-3.6-.56-14.08,4.65-12.4,6.96,3.46-.02,3.79,4.17,6.03,5.48,1.87,1.08,4.21.55,6.49,2.51,3.13,2.67,2.91,7.98,3.65,8.85.24.28,4.95,1.32,6.78,2.73,5.91,4.57,2.77,9.69,4.24,12.26.53.92,7.16,3.33,9.03,7.46,1.54,3.41.66,7.43,1.41,9.75.78,2.45,4.25,4.8,5.57,7.27,3.11,5.82,3.5,14.64,6.79,20.7-6.83-.44-14.09,3.58-20.52,4.01-3.51.24-7.21-1.26-9.73-.84-4.87.81-6.08,4.3-14.02,2.61-2.26-.48-5.39-3.41-6.24-3.45-1.37-.07-4.99,3.8-8.91,3.62-4.65-.21-7.39-4.34-9.28-4.78s-5.01,1.31-8.56.62c-4.02-.79-5.41-4.37-6.51-4.75-2.69-.93-6.49-.64-9.23-2.02ZM543.48,361.02c5.97-10.33-2.29-14.14-6.17-22.32-1.46-3.09-2.01-6.56-3.31-9.68-1.48,1.38-3.15,3.4-3.78,5.31-1.89,5.76,11.94,27.68,13.26,26.68ZM54.47,330.03c-1.74-1.52-1.66.46-2.08,1.39-1.68,3.76-2.53,7.35-4.73,11.27-3.82,6.79-9.83,9.22-3.66,18.33,4.03-5.27,13.61-19.03,13.08-25.53-.03-.34-2.38-5.26-2.6-5.46ZM405.49,352.01c11.31.91,21.44-.92,30.48-8.01,3.7-2.91,8.92-6.77,3.46-10.43s-12.49,5.99-17,8.89l-16.93,9.56ZM181.49,352.01c-2.86-2.86-7.18-3.48-10.92-5.57-4.29-2.4-21.98-20.12-24.98-10.76-1.54,4.83,10.24,11.88,14.22,13.51,7.31,3.01,13.84,3.21,21.68,2.81ZM60.99,340.04c-2.36,3.93-3.45,8.23-5.7,12.28-1.45,2.61-9.48,12.53-9.63,13.34-.23,1.16,2.66,6.33,3.33,6.33,8.73-7.23,13.93-16.8,17.26-27.52l-5.26-4.44ZM175.49,356.03c-9.33,1.05-18.89-2.69-26.32-8.18-3.44-2.54-7.45-9.46-11.68-7.35-7.42,6.11,2.03,12.49,7.68,15.35,9.19,4.65,18.13,5,28.02,2.31,1.72-.47,2.78.71,2.31-2.13ZM410.5,357.01c13.04,4.92,27.95,3.59,38.47-6.01,3.27-2.99,5.67-7.96.53-10.5-4.3-2.12-7.81,4.45-11.09,6.94-4.92,3.73-12.6,7.29-18.67,8.33l-9.23,1.25ZM539.94,363.61c-2.77-4-6.23-7.48-8.63-11.9-1.68-3.1-2.73-8.33-4.34-10.67-1.45-2.11-5.04,1.97-6.01,3.01-1.59,3.79,11.57,26.02,17.05,27.93l3.52-6.55c.45-1.5-1.27-1.36-1.59-1.82ZM78.49,349.03l-8.91-1.92c-2.72,11.61-9.59,20.48-17.94,28.55.58,2.72,3.26,7.56,6.38,5.42,8.78-6.04,17.7-21.87,20.47-32.05ZM517.4,347.12l-8.91,1.92c3.49,12.87,11.38,25.13,22.36,32.91l4.49-6.28c-8.11-8.03-15.27-17.23-17.94-28.55ZM90.5,351.03c-2.5.07-5.45-2.24-7.53-.04-4.54,13.77-12.74,24.94-23.46,34.53,6.35,8.3,7.73,4.88,13.5-1.49,8.25-9.12,14.73-20.97,17.49-33.01ZM527.49,387.01c.4-1.46-.4-1.66-.97-2.5-2.95-4.3-9.46-9.18-12.86-14.14-2.64-3.86-8.18-17.88-9.63-19.37-1.32-1.35-5.06-1.5-6.58-.52-2.54,1.65,2.94,13.37,4.19,15.9,4.55,9.19,12.07,17.67,19.49,24.57l6.36-3.95ZM164.49,364.03c-8.53.55-17.08-1.69-24.32-6.19-4.77-2.96-7.91-9.43-13.65-5.29-11.32,8.15,8.53,14.36,14.74,15.21,6.66.91,14.07-.03,20.45-2.04,1.05-.33,3.02-.26,2.78-1.69ZM422.5,365.01c7.76,2.41,15.01,3.88,23.23,2.75,2.79-.38,13.82-3.73,15.74-5.26,5.28-4.19-.09-12.08-5.45-11.52-2.44.26-12.04,10.34-16.55,10.52l-16.98,3.5ZM180.54,400c12.73-.2,6.37-11.34,5.91-19.43-.38-6.79-.14-13.88,1.03-20.54l-7.18,11.31c-3.8,9.98-3.1,18.7.23,28.66ZM399.5,361.02c1.28,5.94,1.38,12.41,1.03,18.54-.41,7.27-6.27,19.59,4.33,20.27,8.84-10.05,4.24-30.5-5.37-38.81ZM175.24,403.77c2.57-2.54-1.25-10.53-1.63-14.37-.95-9.61,1.89-17.86,5.87-26.38-11.36,8.66-15.45,20.35-13.99,34.5.55,5.31,5.24,10.72,9.75,6.25ZM407.5,363.02c4.15,8.61,6.82,16.6,5.87,26.38-.31,3.19-3.37,11.01-2.77,12.95,1.23,3.95,9.66,4.24,10.84-2.88,2.27-13.79-2.26-28.33-13.93-36.44ZM473.49,379.02c1.64-4.78-.37-9.26-4.64-11.85-5.94-3.6-9.97,1.72-16.34,3.37-5.35,1.38-10.5,1.77-16.02,1.49,1.67,2.22,6.43,3.66,9.04,4.45,2.06.62,8.9,2.54,10.46,2.54h17.5ZM150.49,372.03c-3.41-.05-6.81.21-10.22-.29-5.26-.77-16.28-6.01-19.19-5.72-6.31.63-12.72,12.13-3.1,13,9.05.81,20.91-1.13,29.28-4.73,1.23-.53,2.95-.53,3.23-2.26ZM166.48,370.02c-8.8,5.56-18.83,23.18-16.99,33.45,1.22,6.82,11.64,6.15,12.83.85.5-2.23-2.02-10.48-1.83-14.77.32-7.27,3.44-13,5.99-19.53ZM420.5,370.02c2.47,6.69,5.92,13.2,6.03,20.55.09,5.8-4.74,14,1.61,17.31,3.62,1.89,6.56.38,9.19-2.52,2.87-8.21-7.88-31.8-16.83-35.34ZM457.42,406.92c-3.99-12.41-12.97-22.03-22.92-29.9,1.43,5.14,4.2,9.73,5.5,14.99.91,3.68,1.07,11.24,2.42,13.58,2.69,4.63,11.02,4.25,15,1.33ZM152.49,378.03c-.72-.73-8.1,5.79-8.9,6.59-3.76,3.78-12.46,15.49-13.7,20.38-1.44,5.62,12.61,5.25,15.11.03.95-1.99,1-10.26,1.97-14.03,1.15-4.48,3.62-8.8,5.52-12.97ZM140.49,381.03c-9.77,3.31-19.95,1.12-29.99,2.5-2.73,1.82-8.58,18.29-7.59,19.54,4.79,1.6,18.32,5.96,22.32,2.69.61-.5,4.97-10.79,6.44-13.06,2.66-4.12,6.66-7.22,8.82-11.67ZM484.5,404.02c-1.24-7.43-3.34-15.31-8.66-20.93-9.88-.38-19.67.7-29.34-2.06,2.98,4.82,6.78,8.83,9.81,13.68,1.32,2.12,4.6,10.34,5.45,11.05,4.83,3.99,17-2.06,22.74-1.75ZM256.73,435.26c-2.08,2.04-1.36,7.26,1.42,8.66,13.41-1.58,26.32-11.54,29.33-24.89-3.25,2.78-6.17,5.4-9.97,7.52-4,2.23-19.09,7.06-20.78,8.72ZM300.47,419.04l-1.97.47c3.05,5.48,5.71,11.24,10.51,15.49,3.12,2.76,17.87,11.3,20.98,8.06,1.65-2.03,2.11-5.82.23-7.78-1.76-1.84-17.19-6.69-21.42-9.06-2.41-1.35-7.63-4.78-8.33-7.17ZM329.3,448.21c-.36-.32-7.41-1.41-9.35-2.14-11.14-4.24-16.74-10.53-23.45-20.04,1.94,10.36,7.14,20.52,16.05,26.44,2.3,1.53,10.89,5.96,13.23,5.41,3.13-.74,5.95-7.51,3.51-9.66ZM290.49,427.03l-10.65,11.84c-3.62,5.33-19.23,7.74-21.85,10.15-3.32,3.05.57,9.72,6.29,8.34,14.01-3.38,23.35-16.87,26.21-30.33ZM413.49,500.02c-1.89-20.94,23.55-41.4,2.52-59.01l-11.51-4.98c13.87,15.92,5.23,35.6,2.99,53.99-14.16-5.54-30.88-8.23-40.99-20.5l-4.99-8.49c-.42,9.59-2.73,14.6,3.56,22.93,8.15,10.78,22.25,8.15,34.07,10.93,5.04,1.19,9.53,3.45,14.36,5.13ZM141.5,439.03c-15.53-3.09-32.13-3.35-47.07,2.61,1.19,1.55-.12,7.51,2.57,7.41,4.78-.18,12.36-3.52,18.01-4.01,7.55-.65,15.69.04,23.05,1.65l3.44-7.66ZM181.49,437.03c-7.06,2.45-11.2,2.76-15.2,9.3-9.42,15.42,1.43,25.15,5.48,39.91.69,2.53,1.84,13.68,3.21,13.76,17.37-11.59,46.09-.07,51.58-26.49l-2.06-12.48c-5.82,19.51-28.57,22.57-45,28.99-2.26-17.91-10.51-36.96,1.99-52.99ZM191.54,468.99l-3.55-31.96c-14.83,12.76-7.18,30.52-5.5,47,15.62-4.77,36.12-8.91,38.99-28-3.88,1.81-27.71,14.52-29.94,12.96ZM404.49,484.03c1.92-16.29,9.29-34.5-5.5-47l-3.5,32-29.99-12c1.39,6.15,5.91,12.83,11.06,16.43,2.89,2.02,26.7,11.81,27.93,10.57ZM492.4,441.12c-15.04-5.24-31.48-5.36-46.92-2.09l3.59,7.82c6.79-1.79,13.91-2.35,20.95-1.87,6.63.46,14.3,3.84,19.99,4.05,2.43.09,2.21-6.09,2.39-7.92ZM251.49,438.02c-.4-.41-9.71,4.48-10.29,4.94-2.44,1.94-2.04,14.04-1.7,17.55,1.92,19.66,15.98,24.9,25.8,39.2,11.93,17.38,11.15,41.11,28.55,54.24,15.35-12.28,15.52-33.39,24.61-49.45,9.36-16.55,26.99-23.17,29.02-43.98,1.2-12.29,1.37-19.33-11.99-22.49.61,3.06-1.81,6-1.98,8.61-.28,4.25,2.59,6.77-.99,11.65-.89,1.21-3.01,1.59-3.53,2.67-.47.98,1.35,6.83-.26,10.82s-7,4.86-7.78,6.2c-.31.54,1.26,6.96-2.01,12.01-2.38,3.68-6.59,4.49-7.93,6.07-1.58,1.88-2.03,8.68-5.11,10.89l-12.9,13.09c-2.93-5.19-8.54-8.42-11.94-13.07-2.2-3.01-3.93-9.52-5.09-10.91-1.31-1.57-5.55-2.39-7.93-6.07-3.27-5.05-1.7-11.47-2.01-12.01-.78-1.34-6.18-2.26-7.78-6.2-1.8-4.46.25-7.43-.17-10.29-.22-1.5-4.46-3.65-5.21-7.42-.62-3.13.78-4.81.6-7.43s-2.59-5.55-1.98-8.61ZM289.5,441.03c-3.17,8.44-9.48,13.28-17.14,17.37-5.43,2.89-12.41,2.02-10.66,9.91,3.09,13.95,19.44-4.34,22.82-9.75,2.46-3.94,5.12-9.53,5.89-14.11.17-1,.8-3.68-.91-3.4ZM296.5,441.03c-.98,9.43,12.1,29.47,20.74,31.76,3.46.92,7.6-.38,8.26-4.32,1.4-8.33-4.91-6.89-9.69-9.27-3.75-1.87-7.35-4.8-10.79-7.21l-8.52-10.97ZM430.49,529.02c-1.86-12.32-.69-24.47,3.25-36.25,5.44-16.31,15.81-21.07,10.26-40.74-1.49-5.3-3.91-12.68-10.51-9.99,1.12,6.81,5.32,12.88,4.93,20.33-.43,8.24-5.56,14.5-8.41,21.68-4.55,11.47-5.95,23.67-5.53,35.98-9.53-5.55-19.54-11.09-30.59-12.9-9.24-1.51-17.79.07-26.61-4.39-5.4-2.74-10.38-8.2-12.81-13.7l-4.82,3.64c-.36,1.88,4.79,8.71,6.33,10.37,13.03,14.11,28.7,8.06,45.52,12.48,11.03,2.9,18.89,8.89,28.98,13.51ZM90.44,442.08c-11.02-2.1-8.14,5.66-6.65,13.15,6.49,32.6,34.12,52.64,66.7,53.8l-1.95-9.54c-30.71-2.49-54.83-26.99-58.09-57.4ZM153.49,442.03c-6.89-1.99-9.27,5.23-10.7,10.79-5.13,19.89,7.62,27.73,12.21,45.2,3.02,11.49,1.52,16.7,1.45,27.55-.01,1.63.15,2.45,1.54,3.43,12.18-8.54,26.07-14.56,41.02-15.96,13.45-1.26,19.79,1.86,30.98-9.02,1.87-1.82,8.54-9.65,7.01-12-.15-.23-3.69-3.67-4.48-2.99-8.87,21.37-30.75,14.85-48.25,20.26-7.49,2.32-14.81,7.19-21.76,10.73.29-12.46-.98-24.39-5.53-35.98-2.83-7.23-7.99-13.51-8.41-21.68-.37-7.2,3.56-13.52,4.92-20.34ZM504.5,442.02l-7.9.11c-3.85,30.44-27.11,54.68-58.14,57.36l-1.97,9.53c37.2-.43,68.33-29.12,68-67ZM163.49,443.03c-5.32-1.32-8.45,6.69-9.56,10.93-3.76,14.43,5.8,22.81,9.5,35.62,2.17,7.54,3.03,15.57,3.07,23.44,7.76-4.4,15.88-8.17,24.76-9.73,13.38-2.36,24.49,1.1,34.2-10.79,2.62-3.21,6.76-8.66,3.53-12.47-9.05,18.81-26.16,14.68-42.72,19.28-5.63,1.56-10.68,3.97-15.77,6.72-.06-7.11-1.02-14.6-3.07-21.44-4.37-14.66-15.17-25.56-3.94-41.55ZM428.33,443.19l-4.83-.16c.97,3.32,3.04,6.08,3.93,9.56,3.67,14.25-7.05,24.72-9.7,38.17-.9,4.6-1.06,10.52-1.25,15.26-18.7-13.82-47.03-2.53-58.49-26-2.66,4.02-.44,7.48,2.07,10.93,10.05,13.76,22.19,9.76,36.49,12.51,8.61,1.65,15.72,6.23,23.94,8.56.58-7.58.98-15.12,3.07-22.44,3.73-13.1,13.96-21.48,9.47-36.59-.29-.98-4.23-9.52-4.69-9.8ZM235.49,464.52c-.77-5.27.56-12.04,0-17.5-4.11.8-3.82,5.04-4.05,8.46-2.27,33.67,18.44,34.25,30.87,59.22,5.51,11.08,6.93,23.85,13.36,34.64,2.3,3.87,14.32,18.11,18.27,17.73.99-.1,8.42-6.3,9.6-7.51,14.37-14.72,14.16-32.96,24.14-49.86,12.87-21.8,33.37-26.18,27.57-57.95-.36-1.97-1.15-5.13-3.76-4.74v16.5c0,14.87-22.87,31.38-30.17,44.83-9.4,17.31-9.3,39.07-27.47,51.6-18.75-11.14-18.88-34.46-28.19-51.6-8.49-15.63-27.52-25.65-30.17-43.83ZM137.5,451.03c-11.75-3.14-27.16-2.46-38.6,1.89-1.07.41-1.7-.58-1.4,1.57.12.83,2.22,6.55,2.57,6.6,4.99-.46,9.97-2.64,14.94-3.06,4.01-.34,19.81,1.9,21.05.05l1.45-7.05ZM489.49,453.03c-6.74-1.48-13.49-3.64-20.46-4.05-3.09-.18-18.69-.28-19.42,2.61l2.46,8.31c11.82-3.49,23.15-1.58,34.85,1.19l2.58-8.06ZM305.84,469.67c-3.67-3.54-5.9-7.77-8.49-12.01-.58-.95-2.11-3.08-1.79-.22,2.28,12.54,5.93,24.68,14.42,34.52,5.83-2.89,7.76-6.93,6.52-13.45-.38-1.97-8.34-6.61-10.65-8.84ZM291.49,457.03c-2.67-.56-1.73.68-2.49,1.97-2.2,3.73-5.39,8.47-8.62,11.42-5.06,4.63-12.48,5.42-10.1,14.23.94,3.45,4.06,7.35,8.03,6.18,7.03-10.25,11.52-21.38,13.18-33.8ZM135.26,464.26c-10.79-3.03-22.37-3.03-32.76,1.26,3.58,8.96,8.12,4.63,15.45,4.46,6.28-.15,12.35.24,18.54,1.04l-1.23-6.76ZM484.49,465.04c-9.42-2.42-20.69-4.55-30.27-1.73-4.25,1.25-3.67,3.58-3.73,7.72,9.89-1.08,19.8-1.86,29.56.6l4.44-6.59ZM294.48,470.02c-2.56-.4-1.55.23-2.09,1.41-1.19,2.62-1.68,6.02-3.05,8.95-1.75,3.76-8.66,12.82-8.83,15.19-.45,6.25,8.56,13.43,12.61,17.38,4.57-2.73,12.98-11.21,13.35-16.5.17-2.39-7.39-12.79-9.17-16.75-1.33-2.96-2.46-6.45-2.83-9.68ZM141.49,483.02c-1.9-12.41-21.73-8.81-30.99-7.99,4.38,10.96,9.5,5.83,17.51,5.92,4.54.05,8.98,1.71,13.48,2.07ZM477.49,475.03c-9.28-.53-30.19-4.79-31.99,7.99.66.63,11.16-2.06,13.5-2.08,8.43-.07,12.55,4.17,18.49-5.91ZM147.49,495.02c-.76-10.19-17.36-9.91-24.99-8.98l10.73,5.75,14.26,3.23ZM464.48,486.03c-7.6-1.08-24.43-1.37-24.99,8.98l16.52-3.97,8.47-5.02ZM264.49,540.02c-2.93-15.75-10.14-31.69-22.49-41.99l-4.31,5.49c9.57,11.23,16.4,23.79,18.81,38.51l7.99-2.01ZM330.47,542.01c2.61-14.3,9.22-27.7,18.95-38.49l-4.44-5.5c-2.59-.65-14.77,18.28-16.37,21.62-1.28,2.69-7.27,18.97-6.06,20.32l7.92,2.05ZM235.9,508.56c-.58-.59-.18-1.84-.9-1.54l-6.46,6.41c7.27,8.5,14.25,19.18,14.96,30.58l7.34-.15,1.48-2.13c-2.72-11.89-7.8-24.44-16.42-33.18ZM343.48,544.02c.54-11.78,8.06-21.63,14.91-30.66l-6.4-6.32c-8.59,10.19-14.71,21.51-17.33,34.7l1.48,2.13,7.34.15ZM239.49,545.02c-1.16-11.37-7.41-21.84-15.48-29.7-9.85,3.76-5.81,2.43-2.08,7.78,4.21,6.04,8.42,13.59,9.7,20.81l7.87,1.12ZM347.49,545.02c9.87,2.05,8.17-5.33,11.46-12.04,2.42-4.93,6.66-9.1,9.54-13.47.65-.99,1.64-.76,0-1.99l-6.02-2.04c-4.3,2.61-17.86,26.66-14.98,29.54ZM211.49,537.02c-3.17-7.38-10.68-20.52-19.99-16.98.67,3.76,18.01,18.91,19.99,16.98ZM227.49,543.01c-4.4-9.58-9.94-26.3-23-23.98,5.76,6.35,10.68,13.48,13.22,21.77l9.78,2.21ZM382.49,519.03c-12.86-2.38-18.65,14.53-23,23.98,11.68.33,9.73-4.74,14.2-12.29,2.52-4.26,5.58-7.98,8.8-11.69ZM395.49,520.03c-1.54-.15-2.95-1.09-4.53-1.08-4.39,0-17.49,16.46-15.45,19.07,4.16-2.52,8.33-5.27,12-8.49,1.36-1.19,8.9-8.21,7.98-9.5ZM269.49,551.01l-3.62-6.92c-29.41,11.04-60.8,2.97-79.35-22.55l-8.04,3.01c17.88,32.94,57.96,43.75,91.01,26.46ZM317.49,551.01c32.58,17.36,73.58,6.3,91.01-26.46l-8.86-3.43c-16.1,26.21-51.6,34.79-79.13,21.9l-3.02,7.99Z"/>
        <path d="M214.49,248.02c-2.69-6.18-6.12-11.92-8.03-18.47-6.89-23.65,1.13-46.07.08-70.08-.31-6.98-1.54-14.62-3.04-21.45,6.43,3.87,11.94,9.21,18.3,13.19,18.02,11.29,44.48,18.12,59.09,32.91,2.72,2.75,11.11,16.65,12.12,16.89,1.37.33,8.13-10.85,9.98-13.01,14.47-16.95,36.46-22.2,55.18-32.82l24.32-16.17c-1.24,12.18-2.59,24.23-2.04,36.54.58,12.98,4.03,25.85,3.03,38.94-.95,12.43-5.79,22.53-10.97,33.51,39.88-3.97,63.27,34.57,99,44.51.42,2.03-.78,1.41-2,1.95-7.85,3.49-15.78,6.41-23.31,10.74-23.79,13.68-42.95,36.57-73.7,32.8,2.77,6.41,6.4,12.39,8.27,19.22,6.41,23.38-1.52,47.12-.27,71.27.14,2.7,2.68,17.69,1.98,18.5l-24.32-16.17c-18.99-10.74-40.43-15.53-55.18-32.82-1.84-2.16-8.61-13.34-9.98-13.01-.77.19-7.16,10.85-9,13.01-14.97,17.55-37.78,22.8-57.18,33.82l-22.32,15.17c-.71-.83,1.86-15.8,1.98-18.5,1.12-24.48-6.83-48.32,0-72.01,1.89-6.57,5.32-12.3,8.02-18.48h-14.5c-17.47,0-45.91-25.34-61.83-34.17-7.26-4.03-14.94-7.37-22.68-10.34-.43-2.09.85-1.38,2.01-1.93,9.45-4.5,17.67-7.56,26.91-13.14,14.32-8.65,38.83-30.42,55.58-30.42h14.5ZM291.49,209.02c-12.53-36.45-55.15-39.63-81.98-60.99,5.42,28.08-7.96,57.14,2.23,84.26,2.23,5.95,6.12,11.03,8.78,16.73,1.63,1.36,4.91-5.08,4.91-6.48.01-1.79-5.28-10.59-6.42-13.53-8.25-21.25-3.61-40.64,1.52-61.96,25.18,6.17,51.4,16.2,62.12,41.82l8.84.16ZM377.49,149.03c-1.16-1.17-17.25,10.03-19.97,11.52-23.79,13-52.35,18.69-62.02,48.47,2.78-.19,6.24.78,8.57-.91,1.45-1.05,8.78-13.39,11.87-16.66,12.85-13.63,32.92-19.44,50.51-24.39,4.89,21.42,9.9,40.64,1.52,61.96-2.66,6.76-9.85,12.95-3.56,19.37l2.06.64c4.72-8.69,9.91-16.79,11.76-26.75,3.03-16.31-1.1-30.67-1.78-46.7-.37-8.81-.14-17.84,1.04-26.54ZM278.49,211.02c-8.41-23.24-33.03-32.49-54.98-38.99-5.39,23.04-9,46.28,5.49,66.98,1.13-1.28,3.45-2.57,3.48-4.45.04-2-5.66-14.94-6.54-19.47-2.23-11.49-1.41-23.62,2.51-34.64,16.05,2.59,27.78,10.99,38.55,22.57,3.79,4.08,4.33,9.68,11.48,8.01ZM308.5,211.02c7.14,1.68,8.02-4.3,11.97-8.52,10.32-11.03,22.8-19.6,38.07-22.06,3.89,11.28,4.76,22.92,2.51,34.64-.89,4.61-6.62,17.36-6.51,19.49s2.3,3.1,3.45,4.43c14.5-20.59,10.99-44.02,5.49-66.98-15.38,4.98-31.86,9.69-43.64,21.35-2.01,1.99-13.31,15.77-11.34,17.65ZM235.49,209.52c-.55-4.87.4-10.53,0-15.5,10.94,2.53,21.04,11.89,27.08,20.97l5.95-2.5c-4.07-10.69-25.59-27.07-36.55-27.51-2.04-.08-1.16.21-1.6,1.42-4.62,12.54-1.31,33.26,5.66,44.63,8.64-2.78.25-14.63-.53-21.5ZM351.49,193.02v16.5c0,6.66-9.74,18.52-.53,21.5,7.2-11.18,10.22-32.23,5.66-44.63-.44-1.21.44-1.5-1.6-1.42-4.47.18-15.51,5.99-19.44,8.63-4.02,2.7-17.01,14.3-17.12,18.87,6,3.37,5.47,1.62,8.48-1.47,7.31-7.53,14.66-14,24.55-17.99ZM288.29,214.32c-61.75,4.53-94.62,74.44-58.61,125.02,32.57,45.75,103.28,42.27,131.62-6.01,31.97-54.48-10.07-123.63-73.01-119.01ZM217.99,252.02h-16c-17.45,0-48.11,26.47-64.48,35.52-2.01,1.11-10.85,4.41-11.03,4.99-.59,1.96.97,1.45,2.01,1.94,18.64,8.82,56.68,39.55,73.49,39.55h17.5l-3.67-8.04c-29.01,3.22-48.5-14.77-68.34-32.47l16.53-15.46c14.72-12.99,32.6-19.21,52.31-18.19l2.73-5.8-1.07-2.04ZM384.99,252.02c-5.52-.59-11.87.43-17.5,0l3.63,7.87c28.55-2.44,50.19,14.46,68.37,34.11-10.38,6.6-18.42,16.83-29.33,23.19-11.85,6.9-25.31,9.6-39,8.79l-3.67,8.04h17.5c16.68,0,38.78-19.74,52.58-28.42,7.05-4.43,13.66-7.39,20.89-11.16,1.1-.58,2.49.23,2.04-1.92-26.25-8.59-47.59-37.55-75.51-40.51ZM214.49,264.03c-18.35-.91-34.99,5.85-48.47,18.02l-11.52,11.46c16.72,16.09,35.21,30.46,59.99,28.51-.17-8.63-8.41-5.9-14.26-7.23-14.02-3.2-27.99-10.53-36.67-22.12,12.5-14.23,30.18-21.78,48.97-23.1l1.95-5.54ZM372.5,322.02c23.97,2,42.14-11.5,58.55-26.94l1.37-2.41c-16.12-16.77-35.42-30.31-59.92-28.63.21,1.79.89,5.21,2.66,5.83,3.89,1.36,11.5,1.39,16.34,2.66,12.21,3.2,23.51,10.83,31.92,20.14-7.31,9.46-20.31,17.79-31.92,20.87-4.85,1.29-12.44,1.29-16.34,2.66-1.77.62-2.45,4.05-2.66,5.83ZM211.49,274.03c-15.96.34-32.9,7.28-42.93,19.51,11.85,10.8,26.48,18.61,42.94,18.48l-1.98-6.5c-9.11-1.49-17.59-3.7-25.53-8.46-1.24-.74-5.88-3.09-5.49-4.52.7-2.56,26.4-13.07,31.04-11.98l1.96-6.53ZM415.07,289.45c-9.89-9.34-25.99-15.61-39.58-15.42-.17,1.86.32,5.54,2,6.5,1.55.89,12.11,2.53,15.99,4.01,5.03,1.92,9.84,4.6,14.02,8,.66,2.7-11.59,8.04-14.02,8.96-5.41,2.05-11.08,3.88-16.94,3.57l-1.04,6.94c16.4.26,31.27-7.73,42.99-18.51.23-.97-2.52-3.21-3.42-4.07ZM222.47,337.03c-2.28-.58-1.63.43-2.27,1.25-21.15,27.16-8.3,60.78-9.67,92.28-.11,2.54-1.19,4.89-1.03,7.46,6.75-4.01,13.06-8.74,19.97-12.52,18.38-10.06,37.92-13.95,51.99-31.01,2.58-3.13,8.95-12.47,10.01-16,.79-2.65-6.93-1.74-8.56-.55-1.3.95-5.21,8.7-7,11-14.09,18.17-33.85,24.15-55.38,30.06-4.75-20.92-9.68-39.53-2.07-60.5,2.89-7.97,10.01-13.69,4.01-21.47ZM366.47,337.03c-1.63-1.36-4.91,5.09-4.92,6.49,0,2.3,5.21,10.4,6.42,13.52,8.29,21.4,3.42,40.52-1.52,61.96-17.23-4.8-37.1-10.32-49.96-23.48-3.33-3.41-10.66-16.29-12.43-17.57-1.63-1.19-9.35-2.1-8.56.55,1.05,3.54,7.42,12.87,10.01,16,13.61,16.5,34.4,21.76,52.64,31.36l19.32,12.17c-5.27-27.95,7.75-57.12-2.23-84.26-2.19-5.96-6.15-11.02-8.78-16.73ZM267.14,392.67c1.84-1.86,11.06-13.58,11.23-15.3.25-2.52-3.33-2.86-5.22-2.21-1.24.43-5.99,7.67-7.63,9.38-10.45,10.96-21.8,18.55-37.07,21.06-4.66-12.46-4.7-25.77-1.47-38.59,1.68-6.67,8.57-15.29,2.01-19.97-14.43,20.67-11,43.98-5.49,66.98,15.31-5.18,31.92-9.51,43.64-21.35ZM363.49,414.02c5.38-22.9,9.14-46.5-5.49-66.98-1.15,1.33-3.34,2.4-3.45,4.43-.12,2.26,5.62,15.02,6.51,19.49,2.28,11.53,1.22,23.52-2.51,34.64-16.5-2.83-29.21-11.79-40.02-24.11-3-3.42-4.11-9.9-10.03-4.95,10.6,22.29,32.57,31.08,55,37.48ZM235.49,393.02v-16.5c0-6.66,9.74-18.52.53-21.5-7.13,11.35-10.34,32.06-5.66,44.62.44,1.18-.44,1.53,1.62,1.43,5.44-.25,18.96-8.03,23.43-11.64,2.57-2.07,12.68-12.35,13.12-14.91.74-2-5.51-3.31-6.08-3.04-6.89,9.69-16.03,16.87-26.95,21.53ZM351.49,377.52c.51,4.91-.37,10.5,0,15.5-10.87-4.36-20.09-12.04-26.95-21.53l-6.07,2.06c7.31,13.87,22.52,25.07,37.99,27.43,3.68-15.09,3.09-32.6-5.49-45.97-1.44-.33-4.35,2.95-4.42,4.45-.13,2.56,4.49,13.57,4.95,18.05Z"/>
        <path d="M235.49,327.02c-.31-5.32,2.3-8.83,7.94-8.06l2.07-9.43c-8.17,1.27-19.63-10.92-17.58-18.52,1.84-6.79,10.02-15.31,17.57-14l-2.06-9.94c-5.02.73-7.91-2.01-7.54-7.09,5.21-3.44,7.18-1.54,10.99,2.01l8.6-1.99c-5.04-7.24-.85-23.86,8.48-25,8.65-1.06,14.7,1.29,20.02,8l6.37-5.15c-.68-5.1-2.75-9.52,3.64-11.57,5.93,2.36,1.97,8.31,2.96,10.71.63,1.52,4.87,4.26,6.03,6.01,6.63-8.35,21.66-12.92,27.93-1.91,3.79,6.66,2.49,11.77,1.98,18.98.55.72,7.09,2.1,7.97,1.85,1.11-.32,1.22-2.21,2.39-2.88,9.62-5.49,11.4,9.38.29,8.04l-2.06,9.94c7.76-1.49,15.71,7.22,17.57,14,2,7.28-9.15,20.03-17.58,18.52l2.07,9.42c5.65-.76,8.25,2.74,7.94,8.06-5.35,1.48-7.63.8-11.4-2.98l-8.6,1.99c5.24,7.15.55,23.99-8.48,24.99-8.77.97-14.59-1.16-20.02-7.98-1.25,1.85-5.25,4.35-6.06,6.01-.54,1.12,3.49,9.43-2.99,10.02-6.91.63-3.31-8.28-3.99-10.1-.57-1.52-4.71-3.23-4.48-5.94-1.49-1.06-5.86,4.81-7.63,5.84-16.53,9.7-30.05-7.52-22.35-22.84l-9.34-2.08c-2.66,5.03-5.76,4.17-10.66,3.07ZM272.48,247.02c.19-6.28-6.41-9.48-11.99-9-.8,5.44-1.14,10.15,3.5,14l.5-7.99,7.98,3ZM324.47,252.02c8.68-15.32-4.95-19.37-10.98-5l8.99-2.99v7.49s1.99.5,1.99.5ZM281.49,251.02c1.01-6.02-2.18-10.51-7.99-11.99l3.93,10.56,4.06,1.43ZM297.14,241.38c-1-.87-2.19-1.54-3.34-2.21-4.13,1.84-10.05,8.81-10.12,13.54-.03,2.27,8.36,6.74,9.32,10.3,1.86.47,2.7-2.89,3.95-4.04,1.57-1.45,6.01-3.82,6.34-5.6.49-2.62-4.05-10.16-6.15-12ZM313.49,239.03c-5.85.9-8.92,6.26-7.99,11.99l4.06-1.43,3.93-10.56ZM264.49,261.02l-.52-3.97-7.47-9.02c-.41,6.17-.01,13.97,7.98,12.99ZM267.49,248.02v17.5c0,1.37,2,8.65,2.8,10.2.87,1.69,2.22,3.2,3.84,4.22,6.9-2.36.39-5.99-.43-9.63s.15-8.42-.2-12.29c6.28,3.38,12.01,6.12,13.94,13.58,1.65-.22,4.09.14,4.14-2.06.21-9.16-17.02-17.57-24.08-21.52ZM319.49,266.52c.68-5.76-.5-12.6,0-18.5-7.24,3.8-24.1,12.38-24.04,21.49.02,2.51,2.61,1.91,4.05,1.03.79-.49,3.05-5.44,5.49-7.51,1.03-.87,7.61-4.95,8.5-3.99-.25,3.64.51,7.71-.22,11.27-.51,2.48-3.47,5.3-3.63,6.41-.57,3.94,4.36,3.4,6.73-.32.98-1.53,2.92-8.06,3.13-9.87ZM328.23,259.76c2.43-2.29,2.46-8.56,2.25-11.73l-7.98,10.51v2.48c1.75.04,4.41-.01,5.73-1.26ZM267.49,279.02c-.89-2.77-2.25-13.22-4.01-14.48-3.64-2.61-12.93-1.43-16.55,1.48-1.32,2.14,2.51,10.99,4.14,12.93,4.92,5.83,9.97-1.42,16.43.08ZM340.46,265.06c-4.67-.69-12.81-3.99-16.94-.51-1.97,1.66-3.02,11.44-4.03,14.47,4.13-1.55,8.87,2.51,11.67,2.77,5.01.46,9.87-12.29,9.3-16.73ZM284.49,273.01c.39-2.07-6.65-10.57-8-8.98-.15,5.6,1.25,12.13,8,8.98ZM310.49,264.03c-1.1-1.31-9.73,7.02-7.05,9.48,4.57,4.19,7.87-5.73,7.05-9.48ZM306.15,306.68c11.01-10.29,5.25-30.34-10.1-31.7-23.46-2.07-27.99,28.2-9.28,35.26,6.41,2.42,14.31,1.17,19.38-3.57ZM251.49,284.01c-3.11-6.33-10.54-4.54-14.99-.48,5.4.09,10.05,3.4,14.99.48ZM350.49,284.01c-3.78-4.8-11.43-6.02-14.99-.49,4.54,3.22,9.89-.54,14.99.49ZM313.48,303.01c7.59,3.34,16.77-1.13,23.69-4.8,1.52-.81,7.7-4.06,7.31-5.67-.44-1.81-16.42-9.02-19.21-9.79-4.75-1.32-7-1.47-11.79.29l1.14,3.85c3.11-1.54,18.67,3.27,17.87,6.62-.62,2.59-14.72,7.09-17.87,5.65l-1.14,3.85ZM272.38,286.93l.85-2.43c-5.03-6.12-16.77,0-22.62,3.14-1.58.85-8.55,4.06-8.12,5.87.46,1.91,24.07,13.7,28.36,10.37l1.64-4.85c-7.27,1.32-12.91-2.34-19-5.5.64-1.47,8.27-5.6,9.96-6.03,2.55-.65,8.15-.09,8.92-.57ZM242.49,287.03c-15.77-.5-15.84,12.47,0,11.99l-5.99-6.98c1.3.25,7.5-3.74,5.99-5.01ZM343.49,299.01c5.69.87,11.51-.89,13.92-6.35-3.22-5.02-8.21-6.2-13.92-5.63l7.01,5.5-7.01,6.48ZM271.35,291.17c-2.99-1.73-6.73-.98-9.58.63-1.11.63-1.71-.07-1.28,2.22,3.82.89,6.96,3.22,10.85.87v-3.72ZM327.49,292.03c-3.34-.79-13.78-5.18-12.06,2.39.67,2.94,11.24.87,12.06-2.39ZM251.49,302.04c-5.05-2.87-9.24.61-14.99.48,4.46,4.05,11.88,5.85,14.99-.48ZM350.49,302.03c-5.86,1.4-10.27-3.69-14.99.49,3.57,5.53,11.22,4.31,14.99-.49ZM254.97,304.36c-3.18.35-9.47,11.2-8.4,15.02,3.74,3.95,16.44,5.55,18.47-.31,1.04-3,.57-7.28,2.41-10.48-.14-.65-11.79-4.3-12.48-4.23ZM335.15,306.37c-.79-.8-2.9-2.22-3.98-2.15l-11.24,3.76c-.45.57,2.46,12.72,3.58,13.53,4.33,3.1,12.2.4,16.91-.56,1.75-2.03-3.32-12.62-5.27-14.58ZM267.49,319.52c-.64,5.46.47,11.92,0,17.5,6.03-1,20.25-10.57,22.87-15.63,1.79-3.44,2.16-9.01-2.89-5.89-.69.43-2.95,5.12-4.97,7.03-2.5,2.36-5.98,3.93-9.01,5.48-.39-7.19-.38-13.28,3.89-19.36l-3.26-2.56c-3.23.53-6.31,10.57-6.64,13.42ZM319.49,338.02v-18.5c0-2.53-3.63-12.92-6.64-13.42l-3.26,2.56c4.27,6.08,4.28,12.16,3.89,19.36-5.28-3.17-12.55-5.77-13.1-12.89-1.97.05-4.91-1.38-4.94,1.4-.09,9.06,17.02,17.65,24.04,21.48ZM283.41,312.11c-3.08-4.07-8.56,6.51-6.91,9.91,1.1,1.31,9.47-6.52,6.91-9.91ZM310.49,322.02c.31-4.04-.79-8.57-4.48-10.75-4.33,1.89-3.94,3.01-1.06,6.8.59.77,4.68,4.96,5.54,3.95ZM299.08,342.66c1.35-1.91,4.62-8.71,3.87-10.68l-9.95-8.95c-3.97,7.25-11.32,5.23-7.8,14.8,1.53,4.17,4.04,7,7.97,9.03,1.24.18,5.16-3.12,5.92-4.19ZM264.49,325.03c-8-.98-8.4,6.82-7.98,12.99l7.47-9.02.52-3.97ZM328.23,326.29c-1.32-1.25-3.98-1.3-5.74-1.26-2.26,2.32,6.4,10.15,7.98,11.99.28-2.89-.07-8.69-2.25-10.74ZM264.49,334.03c-1.6-1.98-4.57,5.42-4.67,6.62-1.1,12.89,13.27,6.32,12.18-1.62l-7.5,2.99v-7.99ZM313.49,339.03c1.91,7.74,14.7,14.55,13.55,1.94-.81-8.9-6.48-9.88-4.56,1.05l-8.99-2.99ZM281.49,335.02l-4.79,1.22-3.2,10.78c5.49-2,9.78-5.85,7.99-12ZM313.49,347.02l-3.93-10.56-4.06-1.43c-1.01,6.02,2.18,10.51,7.99,11.99Z"/>
        <path d="M243.91,346.6c-37.2-33.48-27.91-95.73,16.22-118.44,53.37-27.46,114.92,18.2,105.08,77.08-9.49,56.79-78.36,80.01-121.3,41.35ZM351.49,327.02c30.79-51.51-16.93-114.27-74.82-99.32-43.53,11.24-63.92,60.34-41.18,99.32,26.14,44.79,89.32,44.63,116,0Z"/>
        <path d="M292.24,283.2c9.64-1.6,16.03,13.41,5.52,18.59-13.17,6.49-20.42-16.12-5.52-18.59Z"/>
    </g>
</svg>