<?xml version="1.0" encoding="iso-8859-1"?>
<!-- Generator: Adobe Illustrator 29.8.2, SVG Export Plug-In . SVG Version: 9.03 Build 0)  -->
<svg version="1.1" id="c" xmlns="http://www.w3.org/2000/svg" xmlns:xlink="http://www.w3.org/1999/xlink" x="0px" y="0px"
	 viewBox="0 0 250 250" style="enable-background:new 0 0 250 250;" xml:space="preserve">
<symbol  id="wheat" viewBox="-146.685 -113.525 293.37 227.05">
	<path d="M35.542,75.345l27.741,20.811l-3.422-24.284c11.087-1.255,19.24,6.345,26.057,13.861l-5.193-20.829l34.705,10.39
		C75.477,43.968,94.972,41.807,129.296,61.43c1.747-16.783-14.157-18.259-24.216-26.056c10.243-15.074,27.328-7.272,41.605-10.407
		c-10.85-17.243-32.545-1.301-45.13-13.966c-1.665-7.757,29.766-18.535,24.266-32.954L91.132,2.35l5.21-31.235L71.958,5.812
		l-8.597-20.808c-5.266,12.123-5.89,29.425-19.174,34.71c-4.977-7.823,13.12-25.269,1.804-31.219
		C38.784,2.612,32.449,24.863,19.868,33.613c-3.043-8.837,8.539-27.917-1.679-34.702c0.994,19.798-9.952,34.272-27.796,41.672
		c-3.01-3.564,26-35.649,6.949-41.69c3.609,15.233-15.686,39.328-30.645,30.556c-1.792-1.051-19.419-30.361-22.101-35.172
		c-19.686-35.313-28.64-60.829-21.011-102.181c1.263-6.847-4.151-6.254-6.136-4.369c-13.664,12.985,9.491,80.668,10.02,99.37
		c0.808,28.538-15.39,75.495-50.797,54.232c-35.076-21.064,12.95-68.123,23.396-14.668c8.191-1.416,1.868-18.063-0.443-22.161
		c-21.995-38.999-71.519,14.344-30.649,44.552C-89.712,79.587-65.22,26.644-63.509-8.04c5.637,9.146,23.431,28.046,25.423,37.304
		c2.315,10.759-15.522,38.271,0.694,56.461l10.343-24.276c0.411,13.875,4.284,31.289,17.373,38.198l3.466-27.768
		c-0.555,5.118,13.519,42.158,20.888,34.683C9.906,96.299-0.541,73.343,18.124,71.851l20.835,41.675L35.542,75.345z M93.728,13.632
		c11.986,11.787-4.723,29.889-15.343,36.808C54.123,66.246,4.195,68.328-16.573,45.778c3.428-4.317,9.986,1.95,15.28,1.635
		C26.322,45.768,72.502-7.242,93.728,13.632z"/>
</symbol>
<use xlink:href="#wheat"  width="293.37" height="227.05" x="-146.685" y="-113.525" transform="matrix(0.7775 -0.522 -0.522 -0.7775 133.8321 119.4938)" style="overflow:visible;"/>
</svg>
