<?xml version="1.0" encoding="UTF-8"?><svg id="b" xmlns="http://www.w3.org/2000/svg" viewBox="0 0 658.56 742.88"><defs><style>.d{fill:#e6ce9a;}</style></defs><g id="c"><path class="d" d="M328.74,0c-1.2,7.04-2.57,12.24-4.68,18.42-1.7,4.96-4.49,9.97-7.9,14.03-15.32,18.23-45.29,22.97-55.52,45.71-2.07,4.61-2.66,10.11-4.9,14.71-.89.66-13.78-7.45-15.97-8.4-24.83-10.7-50.38-2.34-63.55,21.19-3.27,5.84-4.56,12.23-7.92,17.67-22.06,2.57-43.96,15.16-52.21,36.53-4.29,11.1-4.27,20.37-1.91,31.94.54,2.67,2.54,4.67,1.59,7.72-.29.92-9.23,7.81-11.07,9.74-12.05,12.6-20.14,31.96-15.56,49.22,4.34,16.34,16.32,30.8,22.59,46.99,13.75,35.51,7.72,74.71-28.57,92.63-3.82,1.89-13.28,4.57-15.62,6.77-1.73,1.62-3.09,5.63-4.85,7.95-7.45,9.8-15.22,19.34-24.29,27.68-3.69,3.39-27.33,21.68-27.06,24.64,5.33,7.4,3.5,15.72-4.27,18.91-.38.39-.86.74-1.46,1.02-1.85.87-3.71,1.52-5.59,2.01v255.74c.66-.36,1.45-.57,2.38-.57.59,0,1.13.09,1.62.23h650.56v.4c.68-.4,1.51-.63,2.5-.63.55,0,1.04.08,1.5.21v-254.25c-3.73-.74-6.99-2.54-9.87-5.35-.53-.51-.89-1.06-1.14-1.62-2.12-2.24-3.4-5.23-3.06-8.37.4-3.67,4.2-6.78,2.13-10.03-18.93-15.97-36.39-31.14-51.05-51.31-1.36-1.88-2.97-5.99-4.17-7.03-2.48-2.14-15.72-6.24-20.49-9.09-33.36-19.88-36.2-58.34-22.78-91.88,11.35-28.37,32.2-42.82,18.35-76.48-4.65-11.3-14.08-20.37-23.71-27.52.38-4.38,2.28-8.44,3-12.77,4.93-29.55-16.76-54.71-44.47-61.66-3.11-.78-8.18-.66-10.2-1.79-2.36-1.32-6.07-13.55-8.21-17.38-13.14-23.47-36.99-31.89-62.22-22.01-5.33,2.09-10.42,6.6-14.89,8.33-.81.31-1.18.91-2.17.27-2.12-1.35-4.22-12.09-5.68-15.16-5.37-11.35-17.03-18.18-27.38-24.37-5.71-3.41-11.49-6.74-16.89-10.63-4.92-3.54-15.65-13.04-22.62-33.94"/></g></svg>