<?xml version="1.0" encoding="UTF-8"?><svg id="b" xmlns="http://www.w3.org/2000/svg" viewBox="0 0 328.91 491.42"><g id="c"><path d="M5.87,488.34c.6-.28,1.08-.63,1.46-1.02,7.76-3.19,9.6-11.51,4.27-18.91-.27-2.96,23.37-21.25,27.06-24.64,9.07-8.35,16.85-17.89,24.29-27.68,1.76-2.32,3.12-6.33,4.85-7.95,2.34-2.19,11.8-4.88,15.62-6.77,36.29-17.92,42.32-57.12,28.57-92.63-6.27-16.19-18.25-30.65-22.59-46.99-4.58-17.26,3.51-36.62,15.56-49.22,1.84-1.93,10.78-8.82,11.07-9.74.95-3.05-1.04-5.05-1.59-7.72-2.36-11.57-2.37-20.84,1.91-31.94,8.26-21.37,30.15-33.97,52.21-36.53,3.36-5.44,4.65-11.83,7.92-17.67,13.17-23.53,38.72-31.88,63.55-21.19,2.19.94,15.08,9.06,15.97,8.4,2.23-4.6,2.82-10.1,4.9-14.71,10.23-22.74,40.2-27.48,55.52-45.71,3.41-4.06,6.21-9.07,7.9-14.03,2.05-6,3.4-11.08,4.57-17.81V0H0v491.42h.28v-1.07c1.88-.5,3.74-1.15,5.59-2.01Z"/></g></svg>